<svg xmlns="http://www.w3.org/2000/svg" viewBox="0 0 583.18 53.86"><defs><style>.cls-1{fill:#c1c1c1;}</style></defs><g id="Layer_2" data-name="Layer 2"><g id="Layer_2_kr_익스_outline" data-name="Layer 2 kr 익스 outline"><path class="cls-1" d="M1.5,12.55a.4.4,0,0,1-.59,0l-.8-.75c-.16-.16-.14-.33.05-.53A11.07,11.07,0,0,0,2.05,9,11.9,11.9,0,0,0,3.3,6.41a11.18,11.18,0,0,0,.35-1.22c.1-.4.17-.81.23-1.22A12.85,12.85,0,0,0,4,2.68c0-.45,0-.92,0-1.42a.24.24,0,0,1,.07-.18A.27.27,0,0,1,4.26,1l1.51.05a.19.19,0,0,1,.15.08A.24.24,0,0,1,6,1.31C6,2,6,2.64,5.92,3.24A15.53,15.53,0,0,1,5.7,5a7.51,7.51,0,0,0,.53,1.6A10.85,10.85,0,0,0,7.06,8.1a11,11,0,0,0,1,1.36,8.31,8.31,0,0,0,1.1,1.06c.18.14.19.31,0,.53l-.71.87a.32.32,0,0,1-.23.13A.46.46,0,0,1,8,12a8.61,8.61,0,0,1-.87-.8,12.75,12.75,0,0,1-.87-1A10.72,10.72,0,0,1,5.45,9a7.22,7.22,0,0,1-.58-1.14,15.23,15.23,0,0,1-.7,1.4,14.82,14.82,0,0,1-.83,1.28c-.3.4-.6.78-.91,1.12A7.77,7.77,0,0,1,1.5,12.55ZM15.35,7.94a.28.28,0,0,1-.16.07H12.87v8.07a.19.19,0,0,1-.22.22H11.14a.19.19,0,0,1-.22-.22V.39a.19.19,0,0,1,.22-.22h1.51a.19.19,0,0,1,.22.22v6h2.32a.33.33,0,0,1,.16,0,.18.18,0,0,1,.07.15V7.77A.22.22,0,0,1,15.35,7.94Z"/><path class="cls-1" d="M31.08,9.54a.27.27,0,0,1-.17.08H16.1a.25.25,0,0,1-.17-.08.32.32,0,0,1-.06-.17V8.3a.28.28,0,0,1,.06-.18A.25.25,0,0,1,16.1,8h3.68V5.73a3.15,3.15,0,0,1-1.21-1,2.17,2.17,0,0,1-.43-1.31,2.19,2.19,0,0,1,.4-1.26,3.44,3.44,0,0,1,1.12-1A6.11,6.11,0,0,1,21.37.62a11.42,11.42,0,0,1,4.36,0,6.4,6.4,0,0,1,1.7.61,3.51,3.51,0,0,1,1.11,1,2.12,2.12,0,0,1,.4,1.26,2.22,2.22,0,0,1-.44,1.34,3.56,3.56,0,0,1-1.26,1V8h3.67a.24.24,0,0,1,.17.09.22.22,0,0,1,.09.17V9.37A.26.26,0,0,1,31.08,9.54Zm-2.16,3.92a2.05,2.05,0,0,1-.36,1.18,3.34,3.34,0,0,1-1.06.92,5.82,5.82,0,0,1-1.7.6,11.2,11.2,0,0,1-2.28.21,11.31,11.31,0,0,1-2.29-.21,5.93,5.93,0,0,1-1.7-.6,3.19,3.19,0,0,1-1.05-.92,2,2,0,0,1,0-2.34,3,3,0,0,1,1.05-.92,6.25,6.25,0,0,1,1.7-.59,12,12,0,0,1,4.57,0,6.13,6.13,0,0,1,1.7.59,3.11,3.11,0,0,1,1.06.92A2,2,0,0,1,28.92,13.46Zm-5.4-1.41a8.28,8.28,0,0,0-1.5.12,4.32,4.32,0,0,0-1.08.33,1.91,1.91,0,0,0-.66.45.73.73,0,0,0,0,1.06,2.06,2.06,0,0,0,.66.46,4.81,4.81,0,0,0,1.08.32,8.28,8.28,0,0,0,1.5.12A8.21,8.21,0,0,0,25,14.79a4.75,4.75,0,0,0,1.09-.32,2.06,2.06,0,0,0,.66-.46.73.73,0,0,0,0-1.06,1.91,1.91,0,0,0-.66-.45A4.27,4.27,0,0,0,25,12.17,8.21,8.21,0,0,0,23.52,12.05ZM23.55,2a6.59,6.59,0,0,0-1.37.1,4,4,0,0,0-1.06.31,2.1,2.1,0,0,0-.7.48.83.83,0,0,0,0,1.19,2.09,2.09,0,0,0,.7.47,4.43,4.43,0,0,0,1.06.32A8.27,8.27,0,0,0,23.55,5a8,8,0,0,0,1.35-.11A4.3,4.3,0,0,0,26,4.52a2.09,2.09,0,0,0,.7-.47.86.86,0,0,0,.26-.6.82.82,0,0,0-.26-.58,2.08,2.08,0,0,0-.7-.46,4.77,4.77,0,0,0-1.06-.32A7.06,7.06,0,0,0,23.55,2Zm0,4.52q-.51,0-1,0c-.3,0-.6-.06-.89-.1V8h3.62V6.36c-.28,0-.57.08-.86.1S23.87,6.49,23.55,6.49Z"/><path class="cls-1" d="M33,12.21a.41.41,0,0,1-.28.06.28.28,0,0,1-.23-.15l-.67-.87a.23.23,0,0,1,0-.28.63.63,0,0,1,.18-.21,14.67,14.67,0,0,0,2-1.53A15.8,15.8,0,0,0,35.79,7.4a13.76,13.76,0,0,0,1.33-1.95,8.55,8.55,0,0,0,.78-1.91.72.72,0,0,0,0-.38c0-.05-.15-.08-.34-.08H33.19A.22.22,0,0,1,33,3,.28.28,0,0,1,33,2.82V1.68A.25.25,0,0,1,33,1.51a.28.28,0,0,1,.18-.06h5.54a1.84,1.84,0,0,1,1,.25.79.79,0,0,1,.37.66,3.4,3.4,0,0,1,0,.45q0,.24-.09.42a13.94,13.94,0,0,1-.63,1.85,12.56,12.56,0,0,1-1,1.84q.33.44.75.93t.87.93c.29.3.59.58.88.83s.56.47.8.64a.44.44,0,0,1,.16.22.28.28,0,0,1-.06.27l-.73.84c-.15.17-.33.18-.56,0a6.28,6.28,0,0,1-.71-.56,10.32,10.32,0,0,1-.84-.8c-.29-.29-.58-.6-.87-.92s-.55-.64-.78-.93A17.55,17.55,0,0,1,33,12.21ZM47.31,8a.23.23,0,0,1-.16.07H44.83v8a.19.19,0,0,1-.22.22H43.1a.19.19,0,0,1-.22-.22V.39A.19.19,0,0,1,43.1.17h1.51a.19.19,0,0,1,.22.22v6h2.32a.27.27,0,0,1,.16.06.17.17,0,0,1,.07.14V7.82A.18.18,0,0,1,47.31,8Z"/><path class="cls-1" d="M55.83,9.27v5a.2.2,0,0,1-.22.22H54.1c-.14,0-.2-.08-.2-.22V1.85A.24.24,0,0,1,54,1.71a.2.2,0,0,1,.15-.06h3.43a4.53,4.53,0,0,1,3,.92,3.5,3.5,0,0,1,1.09,2.85,4.1,4.1,0,0,1-.31,1.66,3.37,3.37,0,0,1-.89,1.21A3.94,3.94,0,0,1,59.07,9a5.65,5.65,0,0,1-1.69.25Zm0-5.84V7.5h1.38A2.94,2.94,0,0,0,59,7a1.86,1.86,0,0,0,.67-1.6,1.93,1.93,0,0,0-.53-1.47,1.9,1.9,0,0,0-1.38-.51Z"/><path class="cls-1" d="M72.37,14.33a11.75,11.75,0,0,1-1.19.26,9.53,9.53,0,0,1-1.61.12,7,7,0,0,1-2.63-.48,5.65,5.65,0,0,1-2-1.35,6.08,6.08,0,0,1-1.29-2.1,7.61,7.61,0,0,1-.46-2.72,7.72,7.72,0,0,1,.45-2.7,6,6,0,0,1,1.28-2.1,5.67,5.67,0,0,1,2-1.36,6.72,6.72,0,0,1,2.64-.49,14.76,14.76,0,0,1,1.5.08,7.18,7.18,0,0,1,1.32.26c.13,0,.2.08.22.13a.54.54,0,0,1,0,.24l0,1.26c0,.18,0,.28-.09.28a1.41,1.41,0,0,1-.29-.07,9,9,0,0,0-2.65-.39,4.85,4.85,0,0,0-1.88.35,3.93,3.93,0,0,0-1.39,1,4.43,4.43,0,0,0-.87,1.53,6.17,6.17,0,0,0-.3,2A5.53,5.53,0,0,0,65.46,10a4.49,4.49,0,0,0,.9,1.55,4.31,4.31,0,0,0,1.4,1,4.22,4.22,0,0,0,1.79.37,13.09,13.09,0,0,0,1.51-.07,5,5,0,0,0,1.14-.27.53.53,0,0,1,.29,0,.17.17,0,0,1,.07.16l.07,1.2a.55.55,0,0,1,0,.28C72.58,14.25,72.5,14.3,72.37,14.33Z"/><path class="cls-1" d="M87.15,7.45a1.33,1.33,0,0,1-.92.25h-5a1.49,1.49,0,0,1-1-.25,1.21,1.21,0,0,1-.28-.92V1.82a1.21,1.21,0,0,1,.27-.9,1.33,1.33,0,0,1,.92-.26h5.1a1.46,1.46,0,0,1,.92.23,1.21,1.21,0,0,1,.27.93V6.53A1.25,1.25,0,0,1,87.15,7.45Zm-5.15,9a.84.84,0,0,1-.28,0,.21.21,0,0,1-.17-.16l-.3-1c0-.17,0-.27.25-.3a38.23,38.23,0,0,0,4-.85,13.6,13.6,0,0,0,3.17-1.25c.19-.11.27-.17.23-.19a.49.49,0,0,0-.2,0H82.51c-.15,0-.23-.07-.23-.22v-1.1c0-.14.08-.21.23-.21h7.75a2.78,2.78,0,0,1,1.26.22c.27.15.4.31.4.48a1.19,1.19,0,0,1-.18.64,4.23,4.23,0,0,1-.56.63,7.21,7.21,0,0,1-1.53,1.06q.81.24,1.77.45c.64.14,1.23.26,1.78.35a.2.2,0,0,1,.15.09.19.19,0,0,1,0,.18l-.36.95a.32.32,0,0,1-.13.16.29.29,0,0,1-.23,0c-.35,0-.73-.11-1.16-.2s-.86-.18-1.31-.29l-1.35-.37c-.45-.13-.88-.26-1.28-.4a20.66,20.66,0,0,1-2.69.84A25.7,25.7,0,0,1,82,16.44ZM85.55,2.38a.26.26,0,0,0,0-.18.32.32,0,0,0-.19,0H82.05a.4.4,0,0,0-.2,0s0,.08,0,.17V6c0,.12,0,.19,0,.21a.4.4,0,0,0,.2,0h3.26a.43.43,0,0,0,.2,0,.36.36,0,0,0,0-.21Zm3.92,7.84a.28.28,0,0,1-.2.08H84.92a.25.25,0,0,1-.16-.07.2.2,0,0,1-.09-.18V9a.23.23,0,0,1,.09-.19.25.25,0,0,1,.16-.07h4.35a.26.26,0,0,1,.19.09.23.23,0,0,1,.08.18v1A.28.28,0,0,1,89.47,10.22ZM92.09,8.7c0,.16-.07.24-.22.24H90.36c-.15,0-.22-.08-.22-.25V.39a.19.19,0,0,1,.22-.22h1.51a.19.19,0,0,1,.22.22Z"/><path class="cls-1" d="M114.53,13.35a.25.25,0,0,1-.17.08H99.57a.25.25,0,0,1-.17-.08.32.32,0,0,1-.06-.17V12.07a.33.33,0,0,1,.06-.19.25.25,0,0,1,.17-.08h14.79a.22.22,0,0,1,.17.09.26.26,0,0,1,.09.18v1.11A.26.26,0,0,1,114.53,13.35Zm-2.48-4.83a1.36,1.36,0,0,1-1,.29h-8.18a1.51,1.51,0,0,1-1-.26,1.26,1.26,0,0,1-.27-.93V1.11a.18.18,0,0,1,.07-.15A.2.2,0,0,1,101.8.9h1.5a.27.27,0,0,1,.16.06.18.18,0,0,1,.07.15V3.5h6.84V1.09a.18.18,0,0,1,.07-.15.18.18,0,0,1,.15-.07h1.51a.21.21,0,0,1,.16.07.2.2,0,0,1,.06.15V7.67A1.2,1.2,0,0,1,112.05,8.52Zm-1.68-3.44h-6.84V6.92c0,.19.11.29.31.29h6.22c.21,0,.31-.1.31-.29Z"/><path class="cls-1" d="M125.32,11.69a.55.55,0,0,1-.23.11c-.5.11-1.1.21-1.79.3s-1.4.15-2.11.19-1.38.08-2,.09a13.54,13.54,0,0,1-1.53,0,1.74,1.74,0,0,1-1-.32,1.17,1.17,0,0,1-.28-.9V7a1.16,1.16,0,0,1,.29-.89,1.31,1.31,0,0,1,.9-.27h4a.32.32,0,0,0,.19,0,.32.32,0,0,0,0-.21V3.25a.41.41,0,0,0,0-.19.32.32,0,0,0-.21-.05h-4.89a.23.23,0,0,1-.17-.07.18.18,0,0,1-.07-.15V1.62a.18.18,0,0,1,.07-.15.27.27,0,0,1,.17-.06h5.91a1.22,1.22,0,0,1,1,.27,1.5,1.5,0,0,1,.21.89V6.34a1.17,1.17,0,0,1-.27.89,1.42,1.42,0,0,1-.92.23h-4a.21.21,0,0,0-.24.24v2.69a.3.3,0,0,0,.07.24.35.35,0,0,0,.24.06c.51,0,1,0,1.57,0s1.08,0,1.61-.08,1.07-.1,1.59-.16,1-.15,1.48-.24a.35.35,0,0,1,.25,0,.3.3,0,0,1,.14.22l.16,1A.23.23,0,0,1,125.32,11.69ZM130.74,8a.25.25,0,0,1-.16.06h-2.31v8.06a.19.19,0,0,1-.22.22h-1.51c-.15,0-.23-.07-.23-.22V.39c0-.15.08-.22.23-.22h1.51a.19.19,0,0,1,.22.22v6h2.31a.25.25,0,0,1,.16.06.19.19,0,0,1,.08.15V7.79A.25.25,0,0,1,130.74,8Z"/><path class="cls-1" d="M146.49,10.38a.22.22,0,0,1-.17.09H139.9V16c0,.16-.08.23-.24.23h-1.48c-.16,0-.24-.07-.24-.23V10.47h-6.42a.2.2,0,0,1-.17-.09.27.27,0,0,1-.07-.18V9.1a.24.24,0,0,1,.07-.18.21.21,0,0,1,.17-.08h14.8a.33.33,0,0,1,.26.26v1.1A.26.26,0,0,1,146.49,10.38Zm-7.56-3.07a9.49,9.49,0,0,1-2.09-.23,6.58,6.58,0,0,1-1.78-.67,3.87,3.87,0,0,1-1.24-1.09,2.46,2.46,0,0,1-.47-1.48,2.48,2.48,0,0,1,.47-1.48,3.85,3.85,0,0,1,1.24-1.08A6.59,6.59,0,0,1,136.84.6,9.61,9.61,0,0,1,141,.6a6.59,6.59,0,0,1,1.78.68A3.81,3.81,0,0,1,144,2.36a2.55,2.55,0,0,1,.46,1.48A2.52,2.52,0,0,1,144,5.32a3.83,3.83,0,0,1-1.23,1.09,6.58,6.58,0,0,1-1.78.67A9.56,9.56,0,0,1,138.93,7.31Zm0-5.34a6.14,6.14,0,0,0-1.29.14,5,5,0,0,0-1.13.37,2.32,2.32,0,0,0-.81.6,1.16,1.16,0,0,0-.31.78,1.07,1.07,0,0,0,.31.76,2.43,2.43,0,0,0,.81.59,4.17,4.17,0,0,0,1.13.37,6.14,6.14,0,0,0,1.29.13,6.14,6.14,0,0,0,1.29-.13,4.1,4.1,0,0,0,1.12-.37,2.49,2.49,0,0,0,.8-.59,1.07,1.07,0,0,0,.31-.76,1.16,1.16,0,0,0-.31-.78,2.37,2.37,0,0,0-.8-.6,4.91,4.91,0,0,0-1.12-.37A6.14,6.14,0,0,0,138.93,2Z"/><path class="cls-1" d="M148.72,12.21a.43.43,0,0,1-.29.06.32.32,0,0,1-.24-.15l-.66-.88a.25.25,0,0,1,0-.29.63.63,0,0,1,.18-.21,14.67,14.67,0,0,0,2-1.53,16.53,16.53,0,0,0,1.75-1.81,12.88,12.88,0,0,0,1.32-1.95,8.16,8.16,0,0,0,.79-1.91c0-.2.05-.32,0-.38s-.14-.08-.34-.08h-4.38a.21.21,0,0,1-.17-.08.24.24,0,0,1-.07-.18V1.68a.23.23,0,0,1,.07-.17.32.32,0,0,1,.18-.06h5.55a1.8,1.8,0,0,1,1,.25.77.77,0,0,1,.38.66,3.42,3.42,0,0,1,0,.45,3.51,3.51,0,0,1-.08.42,11.74,11.74,0,0,1-.66,1.85A14.36,14.36,0,0,1,154,7c.22.3.47.61.76.94s.58.65.89,1,.61.6.91.87.58.48.82.65a.53.53,0,0,1,.17.23.33.33,0,0,1-.06.26l-.73.84a.39.39,0,0,1-.57,0,6.73,6.73,0,0,1-.74-.58c-.29-.25-.58-.53-.88-.83s-.59-.62-.88-1-.55-.65-.78-.95a16.43,16.43,0,0,1-1.91,2A20,20,0,0,1,148.72,12.21ZM161,16.3H159.5a.19.19,0,0,1-.22-.22V7.26h-3.05a.24.24,0,0,1-.15-.06.21.21,0,0,1-.07-.14V5.83a.19.19,0,0,1,.07-.14.24.24,0,0,1,.15-.06h3.05V.39a.19.19,0,0,1,.22-.22H161a.19.19,0,0,1,.22.22V16.08A.19.19,0,0,1,161,16.3Z"/><path class="cls-1" d="M168.51,10c.63,0,1.28,0,2,.05l2.06,0V8.89a5.58,5.58,0,0,1-1.05-.3,3.12,3.12,0,0,1-.86-.49,2.07,2.07,0,0,1-.57-.69,1.76,1.76,0,0,1-.21-.85,1.79,1.79,0,0,1,.3-1,2.58,2.58,0,0,1,.81-.76,4.34,4.34,0,0,1,1.18-.47,5.93,5.93,0,0,1,2.82,0,4.34,4.34,0,0,1,1.18.47,2.58,2.58,0,0,1,.81.76,1.79,1.79,0,0,1,.3,1,1.87,1.87,0,0,1-.21.88,2.07,2.07,0,0,1-.6.69,3.32,3.32,0,0,1-.89.5,5.27,5.27,0,0,1-1.09.28V10q1,0,1.92-.12c.63,0,1.23-.1,1.8-.17a.28.28,0,0,1,.18,0,.17.17,0,0,1,.11.15l.09,1a.26.26,0,0,1,0,.2.29.29,0,0,1-.16.09c-.78.09-1.6.17-2.47.23l-2.58.15-2.51.06c-.82,0-1.57,0-2.26,0a.21.21,0,0,1-.17-.08.24.24,0,0,1-.07-.18v-1A.21.21,0,0,1,168.51,10Zm9.29-6.4a.25.25,0,0,1-.18.08H169.1a.26.26,0,0,1-.17-.09.25.25,0,0,1-.08-.18V2.53a.24.24,0,0,1,.09-.18.26.26,0,0,1,.18-.09h8.5a.25.25,0,0,1,.18.08.26.26,0,0,1,.08.19v.9A.25.25,0,0,1,177.8,3.61Zm4,12.47a.25.25,0,0,1-.16.05h-9.49a1.51,1.51,0,0,1-1-.27,1.34,1.34,0,0,1-.26-.93V12.48a.28.28,0,0,1,.24-.24h1.48a.22.22,0,0,1,.18.08.21.21,0,0,1,.07.16v1.75a.25.25,0,0,0,.08.22.49.49,0,0,0,.25.05h8.5a.23.23,0,0,1,.16.07.19.19,0,0,1,.07.15v1.21A.16.16,0,0,1,181.78,16.08ZM175.67,1.59a.26.26,0,0,1-.21.09h-4.18a.29.29,0,0,1-.17-.07.23.23,0,0,1-.1-.2V.49a.19.19,0,0,1,.1-.18.29.29,0,0,1,.17-.07h4.18a.32.32,0,0,1,.21.08.29.29,0,0,1,.08.19v.88A.32.32,0,0,1,175.67,1.59Zm-2.15,3.94a2.5,2.5,0,0,0-1.26.28.86.86,0,0,0-.5.75.84.84,0,0,0,.5.75,2.5,2.5,0,0,0,1.26.29,2.55,2.55,0,0,0,1.28-.29.84.84,0,0,0,.49-.75.87.87,0,0,0-.49-.75A2.56,2.56,0,0,0,173.52,5.53ZM183.46,8a.21.21,0,0,1-.16.07h-2.23v4.44a.2.2,0,0,1-.22.22h-1.51a.2.2,0,0,1-.22-.22V.39a.19.19,0,0,1,.22-.22h1.51a.19.19,0,0,1,.22.22V6.48h2.23a.25.25,0,0,1,.16.06.17.17,0,0,1,.08.14V7.89A.19.19,0,0,1,183.46,8Z"/><path class="cls-1" d="M192.82,2s0,.11,0,.2,0,.17,0,.26,0,.18,0,.25,0,.13,0,.16,0,0,0,0h3.08V.39A.19.19,0,0,1,196,.17h1.51a.19.19,0,0,1,.22.22v9c0,.17-.07.26-.22.26H196c-.15,0-.22-.08-.22-.24V7.79h-3.66a.26.26,0,0,1-.16-.07.22.22,0,0,1-.08-.15V6.44a.19.19,0,0,1,.08-.14.25.25,0,0,1,.16-.06h3.66V4.51H192A10,10,0,0,1,189.7,7.6,13,13,0,0,1,186,9.86a.5.5,0,0,1-.32.06.32.32,0,0,1-.23-.2l-.44-.9a.5.5,0,0,1,0-.29.33.33,0,0,1,.2-.22,11.57,11.57,0,0,0,1.91-1A10.29,10.29,0,0,0,188.66,6a8.89,8.89,0,0,0,1.17-1.42,6.65,6.65,0,0,0,.71-1.51.69.69,0,0,0,.05-.37c0-.07-.12-.1-.29-.1h-4.55a.2.2,0,0,1-.18-.09.33.33,0,0,1-.06-.19V1.24c0-.16.08-.24.25-.24h5.7a1.72,1.72,0,0,1,1,.24A.92.92,0,0,1,192.82,2Zm4.89,11.07a2.33,2.33,0,0,1-.38,1.31,3.21,3.21,0,0,1-1.05,1,5.77,5.77,0,0,1-1.61.66,8.11,8.11,0,0,1-2,.24,8.94,8.94,0,0,1-2.1-.23,5.07,5.07,0,0,1-1.58-.65,3.27,3.27,0,0,1-1-1,2.61,2.61,0,0,1-.34-1.33,2.56,2.56,0,0,1,.34-1.31,3,3,0,0,1,1-1,5.07,5.07,0,0,1,1.58-.65,8.42,8.42,0,0,1,2.1-.24,8.12,8.12,0,0,1,2,.23,5.48,5.48,0,0,1,1.61.65,3.28,3.28,0,0,1,1.05,1A2.32,2.32,0,0,1,197.71,13.09Zm-2,.05a1.14,1.14,0,0,0-.25-.74,1.86,1.86,0,0,0-.66-.53,3.32,3.32,0,0,0-1-.33,5.52,5.52,0,0,0-1.17-.12,4.72,4.72,0,0,0-2.2.44,1.39,1.39,0,0,0-.83,1.28,1.32,1.32,0,0,0,.84,1.22,5.06,5.06,0,0,0,2.19.41,6.29,6.29,0,0,0,1.17-.1,4,4,0,0,0,1-.3,1.94,1.94,0,0,0,.66-.51A1.11,1.11,0,0,0,195.71,13.14Z"/><path class="cls-1" d="M210.87,15.76h-1.39a.21.21,0,0,1-.24-.24v-8h-1.55a6.37,6.37,0,0,1-.4,1.85,4.57,4.57,0,0,1-.8,1.39,3.3,3.3,0,0,1-1.11.87,3.25,3.25,0,0,1-1.36.29,3.06,3.06,0,0,1-1.48-.36,3.25,3.25,0,0,1-1.13-1.06,5.23,5.23,0,0,1-.72-1.67,8.92,8.92,0,0,1-.26-2.23,8.63,8.63,0,0,1,.28-2.34,5.26,5.26,0,0,1,.74-1.67,3.08,3.08,0,0,1,1.13-1A3.17,3.17,0,0,1,204,1.29a3.64,3.64,0,0,1,1.4.28,3.1,3.1,0,0,1,1.13.85,4.32,4.32,0,0,1,.8,1.44,7.41,7.41,0,0,1,.38,2h1.51V.68c0-.15.08-.22.24-.22h1.39a.19.19,0,0,1,.22.22V15.52C211.09,15.68,211,15.76,210.87,15.76Zm-5-9.13a9.34,9.34,0,0,0-.1-1.29,5,5,0,0,0-.33-1.17,2.35,2.35,0,0,0-.57-.85A1.14,1.14,0,0,0,204,3a1,1,0,0,0-.77.33,2.5,2.5,0,0,0-.52.86,5.49,5.49,0,0,0-.31,1.18,8.05,8.05,0,0,0,0,2.53,5.81,5.81,0,0,0,.31,1.18,2.6,2.6,0,0,0,.52.88,1.05,1.05,0,0,0,.77.34,1.11,1.11,0,0,0,.81-.34,2.74,2.74,0,0,0,.57-.87,6.21,6.21,0,0,0,.33-1.17A8.1,8.1,0,0,0,205.86,6.63Zm8.29,9.69h-1.48a.2.2,0,0,1-.22-.22V.39c0-.15.08-.22.24-.22h1.46a.19.19,0,0,1,.22.22V16.1A.19.19,0,0,1,214.15,16.32Z"/><path class="cls-1" d="M225.68,11.48a.5.5,0,0,1-.19.13,3.62,3.62,0,0,1-.67.13l-.76.07-.74,0a5.46,5.46,0,0,1-.62,0,2,2,0,0,1-.87-.29.85.85,0,0,1-.37-.78V2.58a1.18,1.18,0,0,1,.26-.85,1.26,1.26,0,0,1,.9-.25h2.75c.16,0,.24.07.24.22V2.82c0,.15-.08.22-.24.22h-1.73c-.2,0-.31.1-.31.29V9.84a.46.46,0,0,0,.06.28.61.61,0,0,0,.32.1H224l.43,0,.45,0,.4-.05a.28.28,0,0,1,.22,0,.29.29,0,0,1,.12.19l.11.92A.24.24,0,0,1,225.68,11.48Zm5.63-.11a1.2,1.2,0,0,1-.17.11,7.54,7.54,0,0,1-.79.17,9.11,9.11,0,0,1-1,.13c-.35,0-.7.06-1,.07a7.81,7.81,0,0,1-1,0,1.38,1.38,0,0,1-.87-.34,1,1,0,0,1-.36-.8V2.55a1.1,1.1,0,0,1,.25-.83,1.26,1.26,0,0,1,.89-.24h3c.16,0,.24.07.24.22V2.82c0,.15-.08.22-.24.22h-1.94c-.2,0-.31.1-.31.29V9.74a.42.42,0,0,0,.09.32.58.58,0,0,0,.37.11h.5l.64-.05c.23,0,.45,0,.67-.07l.61-.12a.28.28,0,0,1,.22,0,.29.29,0,0,1,.13.2l.16.95A.32.32,0,0,1,231.31,11.37ZM236.24,8a.27.27,0,0,1-.17.07h-2.3v8a.17.17,0,0,1-.08.16.25.25,0,0,1-.16.06h-1.42a.27.27,0,0,1-.17-.06.19.19,0,0,1-.07-.16V.39a.18.18,0,0,1,.07-.15.23.23,0,0,1,.17-.07h1.42a.21.21,0,0,1,.16.07.17.17,0,0,1,.08.15v6h2.3a.32.32,0,0,1,.17.06.17.17,0,0,1,.08.14V7.84A.21.21,0,0,1,236.24,8Z"/><path class="cls-1" d="M246.7,11.69a.55.55,0,0,1-.23.11c-.5.11-1.1.21-1.79.3s-1.4.15-2.11.19-1.38.08-2,.09a13.54,13.54,0,0,1-1.53,0,1.72,1.72,0,0,1-1-.32,1.17,1.17,0,0,1-.29-.9V7a1.17,1.17,0,0,1,.3-.89,1.3,1.3,0,0,1,.89-.27h4a.32.32,0,0,0,.19,0,.32.32,0,0,0,.05-.21V3.25a.3.3,0,0,0,0-.19S243.06,3,243,3h-4.89a.23.23,0,0,1-.17-.07.18.18,0,0,1-.07-.15V1.62a.18.18,0,0,1,.07-.15.27.27,0,0,1,.17-.06H244c.49,0,.8.09.94.27a1.42,1.42,0,0,1,.22.89V6.34a1.17,1.17,0,0,1-.27.89,1.42,1.42,0,0,1-.92.23h-4a.21.21,0,0,0-.24.24v2.69a.3.3,0,0,0,.07.24.35.35,0,0,0,.24.06c.51,0,1,0,1.57,0s1.08,0,1.61-.08,1.07-.1,1.59-.16,1-.15,1.48-.24a.36.36,0,0,1,.25,0,.3.3,0,0,1,.14.22l.16,1A.23.23,0,0,1,246.7,11.69ZM252.12,8A.25.25,0,0,1,252,8h-2.31v8.06a.19.19,0,0,1-.22.22h-1.51c-.15,0-.23-.07-.23-.22V.39c0-.15.08-.22.23-.22h1.51a.19.19,0,0,1,.22.22v6H252a.25.25,0,0,1,.16.06.19.19,0,0,1,.08.15V7.79A.25.25,0,0,1,252.12,8Z"/><path class="cls-1" d="M263.72,14.44a.34.34,0,0,1-.17,0h-1.47a.34.34,0,0,1-.17,0s-.07-.07-.11-.16L257.16,1.89a.27.27,0,0,1,0-.18s.12-.06.27-.06h1.47a.62.62,0,0,1,.18,0,.22.22,0,0,1,.09.15l3.62,9.9,3.65-9.9c0-.08.07-.13.11-.15a.62.62,0,0,1,.18,0h1.47c.14,0,.23,0,.26.06a.21.21,0,0,1,0,.18l-4.64,12.39C263.79,14.37,263.76,14.42,263.72,14.44Z"/><path class="cls-1" d="M276.93,14.47a.79.79,0,0,1-.26,0,.34.34,0,0,1-.16-.14l-2.6-5H272v5a.2.2,0,0,1-.22.22h-1.51a.19.19,0,0,1-.21-.22V1.85a.2.2,0,0,1,.06-.14.2.2,0,0,1,.15-.06h3.43a4.55,4.55,0,0,1,3,.92,3.48,3.48,0,0,1,1.11,2.85,3.86,3.86,0,0,1-.55,2.1,3.37,3.37,0,0,1-1.49,1.3l2.84,5.41q.14.24-.21.24Zm-5-11V7.5h1.39A2.92,2.92,0,0,0,275.15,7a1.85,1.85,0,0,0,.66-1.6,1.92,1.92,0,0,0-.52-1.47,1.86,1.86,0,0,0-1.38-.51Z"/><path class="cls-1" d="M299.27,8.23a.22.22,0,0,1-.17.08H284.31a.22.22,0,0,1-.17-.07.29.29,0,0,1-.07-.18V7c0-.17.08-.25.24-.25H299.1a.25.25,0,0,1,.17.07.23.23,0,0,1,.09.18V8.06A.24.24,0,0,1,299.27,8.23ZM286.66,1.87a.29.29,0,0,1-.18-.08.3.3,0,0,1-.1-.21v-1a.28.28,0,0,1,.1-.17.29.29,0,0,1,.18-.08h10.11a.24.24,0,0,1,.18.07.27.27,0,0,1,.08.18v1a.26.26,0,0,1-.08.19.25.25,0,0,1-.18.08h-1.6V4.05h1.91a.24.24,0,0,1,.25.25v1a.24.24,0,0,1-.07.18.25.25,0,0,1-.18.08H286.35a.3.3,0,0,1-.19-.09.24.24,0,0,1-.1-.18v-1a.28.28,0,0,1,.1-.17.34.34,0,0,1,.19-.08h1.9V1.87ZM297.32,16a.27.27,0,0,1-.16.08h-9.5a1.28,1.28,0,0,1-.9-.24,1.07,1.07,0,0,1-.24-.78v-2a1.13,1.13,0,0,1,.23-.79,1.18,1.18,0,0,1,.89-.25h7.24a.34.34,0,0,0,.18,0s0-.07,0-.17v-.53a.5.5,0,0,0,0-.23s-.09,0-.19,0h-8.14a.27.27,0,0,1-.17-.06.18.18,0,0,1-.07-.15V9.67a.23.23,0,0,1,.07-.16.23.23,0,0,1,.17-.07h9.11a1.35,1.35,0,0,1,.92.22,1,1,0,0,1,.23.8v2a1,1,0,0,1-.23.8,1.43,1.43,0,0,1-.92.2h-7.19c-.09,0-.15,0-.17,0s0,.08,0,.18v.62c0,.11,0,.17,0,.18a.31.31,0,0,0,.18,0h8.49a.32.32,0,0,1,.17.06.22.22,0,0,1,.08.18v1.1A.23.23,0,0,1,297.32,16ZM290.14,1.87V4.05h3.15V1.87Z"/><path class="cls-1" d="M308.31,11.51a.4.4,0,0,1-.22.12c-.38.1-.84.19-1.36.28s-1.08.15-1.64.2l-1.62.12a12.17,12.17,0,0,1-1.34,0,1.57,1.57,0,0,1-1.06-.31,1.25,1.25,0,0,1-.27-.91V7.09a1.13,1.13,0,0,1,.3-.88A1.33,1.33,0,0,1,302,6h2.6a.37.37,0,0,0,.21,0,.32.32,0,0,0,.05-.21V3.35a.32.32,0,0,0,0-.19s-.09-.05-.22-.05h-3.48A.21.21,0,0,1,301,3a.17.17,0,0,1-.08-.15V1.77a.17.17,0,0,1,.08-.15.21.21,0,0,1,.16-.07h4.45c.49,0,.8.09.94.27a1.42,1.42,0,0,1,.22.9V6.39a1.13,1.13,0,0,1-.27.88,1.42,1.42,0,0,1-.92.23h-2.59c-.17,0-.25.08-.25.24V10.3c0,.13,0,.21.07.25a.38.38,0,0,0,.25.06c.34,0,.72,0,1.15,0s.86-.06,1.3-.11l1.28-.17c.42-.06.78-.13,1.1-.19s.29,0,.32.23l.19,1A.19.19,0,0,1,308.31,11.51Zm1.3-11H311a.19.19,0,0,1,.22.22V15.52c0,.16-.07.24-.22.24h-1.39a.21.21,0,0,1-.24-.24V7.63H307.6a.25.25,0,0,1-.16-.06.23.23,0,0,1-.08-.16V6.26a.23.23,0,0,1,.08-.16A.25.25,0,0,1,307.6,6h1.77V.68C309.37.53,309.45.46,309.61.46Zm4.64,15.88h-1.48a.2.2,0,0,1-.22-.22V.39c0-.15.08-.22.24-.22h1.46a.2.2,0,0,1,.22.22V16.12A.2.2,0,0,1,314.25,16.34Z"/><path class="cls-1" d="M321.32,12.39a3.73,3.73,0,0,1-1.75-.4,3.93,3.93,0,0,1-1.32-1.15,5.51,5.51,0,0,1-.82-1.78,8.18,8.18,0,0,1-.29-2.28,8.3,8.3,0,0,1,.29-2.31,5.21,5.21,0,0,1,.82-1.76,3.84,3.84,0,0,1,1.32-1.12,4.05,4.05,0,0,1,3.51,0,3.9,3.9,0,0,1,1.31,1.12,5.21,5.21,0,0,1,.82,1.76,8.3,8.3,0,0,1,.29,2.31,8.42,8.42,0,0,1-.29,2.32,5.21,5.21,0,0,1-.82,1.76,3.66,3.66,0,0,1-3.07,1.53Zm2.26-5.61a7.07,7.07,0,0,0-.15-1.48A4.76,4.76,0,0,0,323,4.06a2.54,2.54,0,0,0-.71-.83,1.64,1.64,0,0,0-1.92,0,2.54,2.54,0,0,0-.71.83,4.76,4.76,0,0,0-.44,1.24,7.33,7.33,0,0,0,0,3,4.84,4.84,0,0,0,.44,1.25,2.58,2.58,0,0,0,.71.84,1.6,1.6,0,0,0,1.92,0A2.58,2.58,0,0,0,323,9.5a4.84,4.84,0,0,0,.44-1.25A7,7,0,0,0,323.58,6.78Zm6.14,9.3a.2.2,0,0,1-.22.22H328a.2.2,0,0,1-.22-.22V.39A.2.2,0,0,1,328,.17h1.52a.2.2,0,0,1,.22.22Z"/><path class="cls-1" d="M337.16,12.41a3.61,3.61,0,0,1-1.74-.42,3.88,3.88,0,0,1-1.31-1.15,5.51,5.51,0,0,1-.82-1.78A8.18,8.18,0,0,1,333,6.78a8.3,8.3,0,0,1,.29-2.31,5.36,5.36,0,0,1,.82-1.77,3.93,3.93,0,0,1,1.31-1.13,3.84,3.84,0,0,1,1.74-.4,4,4,0,0,1,1.64.34,3.81,3.81,0,0,1,1.26,1A4.73,4.73,0,0,1,340.92,4a7.4,7.4,0,0,1,.41,2h2.53V.39a.19.19,0,0,1,.22-.22h1.52a.2.2,0,0,1,.22.22V16.08a.2.2,0,0,1-.22.22h-1.52a.19.19,0,0,1-.22-.22V7.58h-2.53a7.46,7.46,0,0,1-.41,2,4.78,4.78,0,0,1-.86,1.52,3.71,3.71,0,0,1-1.26,1A3.82,3.82,0,0,1,337.16,12.41Zm2.28-5.63a7.07,7.07,0,0,0-.15-1.48,4.76,4.76,0,0,0-.44-1.24,2.59,2.59,0,0,0-.72-.84,1.56,1.56,0,0,0-1-.31,1.52,1.52,0,0,0-.94.31,2.69,2.69,0,0,0-.71.84,4.76,4.76,0,0,0-.44,1.24,7.33,7.33,0,0,0,0,3,4.84,4.84,0,0,0,.44,1.25,2.73,2.73,0,0,0,.71.85,1.48,1.48,0,0,0,.94.33,1.52,1.52,0,0,0,1-.33,2.63,2.63,0,0,0,.72-.85,4.84,4.84,0,0,0,.44-1.25A7,7,0,0,0,339.44,6.78Z"/><path class="cls-1" d="M354.37,12.55a.41.41,0,0,1-.6,0l-.8-.75c-.16-.16-.14-.33,0-.53A10.75,10.75,0,0,0,354.91,9a12.4,12.4,0,0,0,1.26-2.62c.13-.41.25-.81.35-1.22s.17-.81.23-1.22.09-.84.12-1.29,0-.92,0-1.42a.25.25,0,0,1,.08-.18.23.23,0,0,1,.16-.08l1.51.05a.23.23,0,0,1,.16.08.28.28,0,0,1,.06.18c0,.69,0,1.33-.06,1.93s-.12,1.17-.22,1.72a7.47,7.47,0,0,0,.52,1.6,10.91,10.91,0,0,0,.84,1.54,11,11,0,0,0,1,1.36,9,9,0,0,0,1.1,1.06c.18.14.19.31,0,.53l-.71.87a.3.3,0,0,1-.23.13.44.44,0,0,1-.31-.1,7.66,7.66,0,0,1-.87-.8,11.07,11.07,0,0,1-.88-1c-.27-.36-.53-.74-.77-1.13a8.19,8.19,0,0,1-.58-1.14,13,13,0,0,1-.69,1.4,14.89,14.89,0,0,1-.84,1.28,13,13,0,0,1-.91,1.12A8.56,8.56,0,0,1,354.37,12.55Zm13.84-4.61a.26.26,0,0,1-.16.07h-2.31v8.07a.19.19,0,0,1-.22.22H364a.19.19,0,0,1-.22-.22V.39A.19.19,0,0,1,364,.17h1.51a.19.19,0,0,1,.22.22v6h2.31a.3.3,0,0,1,.16,0,.19.19,0,0,1,.08.15V7.77A.23.23,0,0,1,368.21,7.94Z"/><path class="cls-1" d="M384,9.54a.29.29,0,0,1-.17.08H369a.21.21,0,0,1-.17-.08.27.27,0,0,1-.07-.17V8.3a.24.24,0,0,1,.07-.18A.21.21,0,0,1,369,8h3.67V5.73a3.31,3.31,0,0,1-1.21-1A2.16,2.16,0,0,1,371,3.45a2.12,2.12,0,0,1,.4-1.26,3.4,3.4,0,0,1,1.11-1,6.35,6.35,0,0,1,1.71-.61,10.57,10.57,0,0,1,2.19-.21,10.44,10.44,0,0,1,2.17.21,6.15,6.15,0,0,1,1.7.61,3.3,3.3,0,0,1,1.11,1,2.12,2.12,0,0,1,.4,1.26,2.16,2.16,0,0,1-.44,1.34,3.39,3.39,0,0,1-1.26,1V8h3.68a.26.26,0,0,1,.17.09.25.25,0,0,1,.08.17V9.37A.29.29,0,0,1,384,9.54Zm-2.16,3.92a2,2,0,0,1-.37,1.18,3.19,3.19,0,0,1-1.05.92,5.93,5.93,0,0,1-1.7.6,12.59,12.59,0,0,1-4.58,0,5.93,5.93,0,0,1-1.7-.6,3.3,3.3,0,0,1-1.05-.92,2.08,2.08,0,0,1,0-2.34,3.07,3.07,0,0,1,1.05-.92,6.25,6.25,0,0,1,1.7-.59,12,12,0,0,1,4.58,0,6.25,6.25,0,0,1,1.7.59,3,3,0,0,1,1.05.92A2,2,0,0,1,381.79,13.46Zm-5.41-1.41a8.36,8.36,0,0,0-1.5.12,4.11,4.11,0,0,0-1.07.33,2.06,2.06,0,0,0-.67.45.73.73,0,0,0,0,1.06,2.24,2.24,0,0,0,.67.46,4.56,4.56,0,0,0,1.07.32,9.37,9.37,0,0,0,3,0,4.91,4.91,0,0,0,1.09-.32,2.06,2.06,0,0,0,.66-.46.73.73,0,0,0,0-1.06,1.91,1.91,0,0,0-.66-.45,4.4,4.4,0,0,0-1.09-.33A8.32,8.32,0,0,0,376.38,12.05Zm0-10.08a6.54,6.54,0,0,0-1.37.1,4.11,4.11,0,0,0-1.07.31,2.16,2.16,0,0,0-.69.48.86.86,0,0,0-.26.59.86.86,0,0,0,.26.6,2.15,2.15,0,0,0,.69.47,4.52,4.52,0,0,0,1.07.32,8.18,8.18,0,0,0,1.37.11,8.2,8.2,0,0,0,1.35-.11,4.58,4.58,0,0,0,1.06-.32,2.2,2.2,0,0,0,.7-.47.85.85,0,0,0,.25-.6.8.8,0,0,0-.25-.58,2.18,2.18,0,0,0-.7-.46,5.13,5.13,0,0,0-1.06-.32A7.21,7.21,0,0,0,376.42,2Zm0,4.52c-.34,0-.67,0-1,0s-.6-.06-.9-.1V8h3.62V6.36c-.28,0-.57.08-.86.1S376.73,6.49,376.42,6.49Z"/><path class="cls-1" d="M395.63,15.76h-1.4a.21.21,0,0,1-.24-.24v-8h-1.54a6.72,6.72,0,0,1-.4,1.85,4.78,4.78,0,0,1-.8,1.39,3.43,3.43,0,0,1-1.12.87,3.25,3.25,0,0,1-1.36.29,3.09,3.09,0,0,1-1.48-.36,3.34,3.34,0,0,1-1.13-1.06,5.23,5.23,0,0,1-.72-1.67,9,9,0,0,1-.25-2.23,9.07,9.07,0,0,1,.27-2.34,5.06,5.06,0,0,1,.75-1.67,2.93,2.93,0,0,1,1.13-1,3.1,3.1,0,0,1,1.43-.33,3.61,3.61,0,0,1,1.4.28,3.22,3.22,0,0,1,1.14.85,4.5,4.5,0,0,1,.8,1.44,7.82,7.82,0,0,1,.37,2H394V.68c0-.15.08-.22.24-.22h1.4a.2.2,0,0,1,.22.22V15.52C395.85,15.68,395.77,15.76,395.63,15.76Zm-5-9.13a8,8,0,0,0-.1-1.29,5,5,0,0,0-.33-1.17,2.21,2.21,0,0,0-.56-.85,1.18,1.18,0,0,0-.83-.33,1,1,0,0,0-.76.33,2.37,2.37,0,0,0-.53.86,5.49,5.49,0,0,0-.31,1.18,9.17,9.17,0,0,0-.1,1.27,9.15,9.15,0,0,0,.1,1.26,5.81,5.81,0,0,0,.31,1.18A2.46,2.46,0,0,0,388,10a1,1,0,0,0,.76.34,1.15,1.15,0,0,0,.82-.34,2.9,2.9,0,0,0,.56-.87,5.54,5.54,0,0,0,.33-1.17A8.1,8.1,0,0,0,390.61,6.63Zm8.3,9.69h-1.48a.19.19,0,0,1-.22-.22V.39c0-.15.08-.22.23-.22h1.47a.2.2,0,0,1,.22.22V16.1A.2.2,0,0,1,398.91,16.32Z"/><path class="cls-1" d="M406.59,12.24a.37.37,0,0,1-.26.09.32.32,0,0,1-.25-.12l-.7-.82a.41.41,0,0,1-.07-.26.32.32,0,0,1,.16-.23,12,12,0,0,0,1.86-1.62,12.19,12.19,0,0,0,1.46-1.88,12.73,12.73,0,0,0,1-2,8.91,8.91,0,0,0,.56-1.87.79.79,0,0,0,0-.33c0-.06-.11-.09-.26-.09h-3.57a.14.14,0,0,1-.13-.08.28.28,0,0,1-.06-.18V1.8c0-.17.07-.25.21-.25h4.52a1.82,1.82,0,0,1,1.06.24.79.79,0,0,1,.32.68c0,.1,0,.21,0,.34a3.09,3.09,0,0,1,0,.35,13.42,13.42,0,0,1-1.3,3.74c.18.31.38.63.61,1a10.09,10.09,0,0,0,.73,1,10.58,10.58,0,0,0,.75.84,4.32,4.32,0,0,0,.65.57c.13.1.19.18.18.27a.49.49,0,0,1-.13.26l-.64.8c-.16.2-.35.21-.58,0a6,6,0,0,1-.58-.52l-.67-.73c-.23-.27-.46-.55-.68-.86s-.42-.61-.6-.9a15.73,15.73,0,0,1-1.61,1.95A15.66,15.66,0,0,1,406.59,12.24Zm9.81,3.52H415a.21.21,0,0,1-.24-.24V7.34h-2a.25.25,0,0,1-.16-.06.23.23,0,0,1-.08-.16V6a.17.17,0,0,1,.08-.14.25.25,0,0,1,.16-.06h2V.66c0-.14.08-.22.24-.22h1.38c.16,0,.24.08.24.22V15.52A.21.21,0,0,1,416.4,15.76Zm3.24.58h-1.47a.2.2,0,0,1-.22-.22V.39c0-.15.07-.22.23-.22h1.46c.15,0,.23.07.23.22V16.12A.2.2,0,0,1,419.64,16.34Z"/><path class="cls-1" d="M431.28,4.28a.24.24,0,0,1-.18.07h-9a.25.25,0,0,1-.18-.08.29.29,0,0,1-.09-.21v-1a.24.24,0,0,1,.09-.17.29.29,0,0,1,.2-.08h9a.24.24,0,0,1,.18.07.25.25,0,0,1,.08.18v1A.3.3,0,0,1,431.28,4.28ZM426.73,5a4.37,4.37,0,0,1,1.45.24,3.72,3.72,0,0,1,1.18.64,3,3,0,0,1,.79,1A2.54,2.54,0,0,1,430.44,8a2.59,2.59,0,0,1-.29,1.2,3,3,0,0,1-.79,1,4,4,0,0,1-1.18.65,4.38,4.38,0,0,1-1.46.24,4.11,4.11,0,0,1-2.6-.89,3.17,3.17,0,0,1-.79-1A2.59,2.59,0,0,1,423,8a2.54,2.54,0,0,1,.29-1.18,3.17,3.17,0,0,1,.79-1,3.83,3.83,0,0,1,1.18-.64A4.17,4.17,0,0,1,426.73,5Zm2.36-3a.25.25,0,0,1-.21.08h-4.44a.29.29,0,0,1-.16-.06.22.22,0,0,1-.1-.19v-1a.24.24,0,0,1,.1-.21.31.31,0,0,1,.16-.07h4.44a.27.27,0,0,1,.2.09.26.26,0,0,1,.08.2v1A.28.28,0,0,1,429.09,2ZM435,16a.41.41,0,0,1-.17.05h-9a1.49,1.49,0,0,1-1-.27,1.34,1.34,0,0,1-.27-.94V12.21a.33.33,0,0,1,.26-.26h1.44a.27.27,0,0,1,.2.09.23.23,0,0,1,.07.17v1.93a.31.31,0,0,0,.07.23.48.48,0,0,0,.24.05h8a.32.32,0,0,1,.17.06.23.23,0,0,1,.08.16v1.2A.19.19,0,0,1,435,16Zm-8.27-9.54a2,2,0,0,0-1.32.44A1.36,1.36,0,0,0,424.88,8a1.44,1.44,0,0,0,.53,1.11,2.15,2.15,0,0,0,2.66,0A1.46,1.46,0,0,0,428.59,8a1.38,1.38,0,0,0-.52-1.07A2,2,0,0,0,426.73,6.46Zm10.16,1a.28.28,0,0,1-.18.06h-2.29v4.89a.2.2,0,0,1-.22.22h-1.52a.2.2,0,0,1-.22-.22V.39a.2.2,0,0,1,.22-.22h1.52a.2.2,0,0,1,.22.22V5.87h2.29a.28.28,0,0,1,.18.06.23.23,0,0,1,.08.16v1.2A.19.19,0,0,1,436.89,7.44Z"/><path class="cls-1" d="M442.7,12.39a3.64,3.64,0,0,1-3.07-1.55,5.74,5.74,0,0,1-.83-1.78,8.57,8.57,0,0,1-.29-2.28,8.69,8.69,0,0,1,.29-2.31,5.42,5.42,0,0,1,.83-1.76A3.66,3.66,0,0,1,441,1.59a3.73,3.73,0,0,1,1.75-.4,3.65,3.65,0,0,1,3.06,1.52,5.22,5.22,0,0,1,.83,1.76,8.69,8.69,0,0,1,.29,2.31,8.82,8.82,0,0,1-.29,2.32,5.22,5.22,0,0,1-.83,1.76,3.6,3.6,0,0,1-1.3,1.13A3.77,3.77,0,0,1,442.7,12.39ZM445,6.78a6.46,6.46,0,0,0-.16-1.48,4.76,4.76,0,0,0-.44-1.24,2.51,2.51,0,0,0-.7-.83,1.62,1.62,0,0,0-1-.31,1.58,1.58,0,0,0-1,.31,2.42,2.42,0,0,0-.71.83,4.76,4.76,0,0,0-.44,1.24,6.88,6.88,0,0,0,0,3A4.84,4.84,0,0,0,441,9.5a2.46,2.46,0,0,0,.71.84,1.52,1.52,0,0,0,1,.32,1.56,1.56,0,0,0,1-.32,2.56,2.56,0,0,0,.7-.84,4.84,4.84,0,0,0,.44-1.25A6.43,6.43,0,0,0,445,6.78Zm6.13,9.3a.19.19,0,0,1-.22.22h-1.51a.19.19,0,0,1-.22-.22V.39a.19.19,0,0,1,.22-.22h1.51a.19.19,0,0,1,.22.22Z"/><path class="cls-1" d="M467.28,4.68a4,4,0,0,1-.3,1.56,3.4,3.4,0,0,1-.85,1.22,3.94,3.94,0,0,1-1.31.8,4.47,4.47,0,0,1-1.67.29,4.37,4.37,0,0,1-1.65-.29,3.85,3.85,0,0,1-1.29-.8,3.45,3.45,0,0,1-.82-1.22,4.2,4.2,0,0,1-.29-1.56,4,4,0,0,1,.29-1.53,3.77,3.77,0,0,1,.82-1.25,4.09,4.09,0,0,1,1.29-.83,4.37,4.37,0,0,1,1.65-.3,4.47,4.47,0,0,1,1.67.3,4.18,4.18,0,0,1,1.31.83A3.7,3.7,0,0,1,467,3.15,3.87,3.87,0,0,1,467.28,4.68Zm-6.14,11.61a1.12,1.12,0,0,1-.26.11.28.28,0,0,1-.25-.13l-.65-.92a.27.27,0,0,1-.07-.2c0-.07.07-.14.19-.21a5.22,5.22,0,0,0,2.18-2,5.52,5.52,0,0,0,.68-2.72c0-.17.07-.25.22-.25l1.34,0q.24,0,.24.18c0,.2,0,.38,0,.56a4.34,4.34,0,0,1-.05.53,3.76,3.76,0,0,0,.27.94,5.67,5.67,0,0,0,.44.85,4.19,4.19,0,0,0,.53.69,3.61,3.61,0,0,0,.58.5,1.22,1.22,0,0,0,.24.11.32.32,0,0,0,.25-.11,4.26,4.26,0,0,0,1.37-1.73,5.84,5.84,0,0,0,.44-2.29c0-.17.07-.25.22-.25l1.34,0a.34.34,0,0,1,.18,0,.15.15,0,0,1,.08.14,5.22,5.22,0,0,1,0,.58l-.06.54a4.18,4.18,0,0,0,.4,1.14,5.86,5.86,0,0,0,.66,1,6.41,6.41,0,0,0,.84.81,5.56,5.56,0,0,0,.92.6.32.32,0,0,1,.16.19.24.24,0,0,1-.06.2l-.67,1c-.07.1-.2.11-.4,0a3.93,3.93,0,0,1-.71-.39,6.51,6.51,0,0,1-.73-.59,6.64,6.64,0,0,1-.68-.72,4.33,4.33,0,0,1-.54-.8,6,6,0,0,1-1.15,1.4,7.41,7.41,0,0,1-1.49,1,.74.74,0,0,1-.68,0,5.2,5.2,0,0,1-1.43-1,5.13,5.13,0,0,1-1.12-1.48,7.28,7.28,0,0,1-1.16,1.49A6.33,6.33,0,0,1,461.14,16.29Zm4.2-11.58a2.15,2.15,0,0,0-.6-1.61,2.44,2.44,0,0,0-3.16,0A2.18,2.18,0,0,0,461,4.71a2.2,2.2,0,0,0,.59,1.61,2.44,2.44,0,0,0,3.16,0A2.17,2.17,0,0,0,465.34,4.71Zm6.1,4.47h-1.51c-.15,0-.22-.08-.22-.24V.39a.19.19,0,0,1,.22-.22h1.51a.19.19,0,0,1,.22.22V9A.19.19,0,0,1,471.44,9.18Z"/><path class="cls-1" d="M474.13,8.18V7.09a.24.24,0,0,1,.07-.18.21.21,0,0,1,.17-.08h14.8a.22.22,0,0,1,.17.09.24.24,0,0,1,.09.17V8.18a.22.22,0,0,1-.09.16.25.25,0,0,1-.17.08h-14.8A.21.21,0,0,1,474.13,8.18Zm13-5.24a2,2,0,0,1-.35,1.15,2.87,2.87,0,0,1-1,.92,6.57,6.57,0,0,1-1.68.6,10.4,10.4,0,0,1-2.29.22,10.37,10.37,0,0,1-2.28-.22,6.44,6.44,0,0,1-1.68-.6,2.87,2.87,0,0,1-1-.92,2.06,2.06,0,0,1,0-2.3,2.83,2.83,0,0,1,1-.94,6.08,6.08,0,0,1,1.68-.62,11.47,11.47,0,0,1,4.57,0,6.21,6.21,0,0,1,1.68.62,2.83,2.83,0,0,1,1,.94A2,2,0,0,1,487.13,2.94ZM487.31,16a.23.23,0,0,1-.14.08h-9.49a1.28,1.28,0,0,1-.9-.24,1.07,1.07,0,0,1-.24-.78v-2a1.12,1.12,0,0,1,.23-.78,1.23,1.23,0,0,1,.89-.24h7.21a.29.29,0,0,0,.17,0s0-.08,0-.19v-.51a.46.46,0,0,0,0-.23s-.08,0-.19,0h-8.1a.27.27,0,0,1-.17-.06.18.18,0,0,1-.07-.15V9.72a.21.21,0,0,1,.07-.15.28.28,0,0,1,.17-.07h9.09a1.38,1.38,0,0,1,.93.22,1.06,1.06,0,0,1,.23.79v2a1,1,0,0,1-.23.79,1.45,1.45,0,0,1-.93.21h-7.17c-.09,0-.15,0-.17,0s0,.09,0,.2v.57c0,.11,0,.17,0,.18a.31.31,0,0,0,.18,0h8.47a.26.26,0,0,1,.24.24v1.1A.23.23,0,0,1,487.31,16ZM481.79,1.48a8.14,8.14,0,0,0-1.36.11,4.75,4.75,0,0,0-1.06.31,2.26,2.26,0,0,0-.7.48.85.85,0,0,0-.24.58.81.81,0,0,0,.24.56,2.23,2.23,0,0,0,.7.45,4.76,4.76,0,0,0,1.06.3,9.43,9.43,0,0,0,1.36.1,9.54,9.54,0,0,0,1.36-.1,4.71,4.71,0,0,0,1.07-.3,1.93,1.93,0,0,0,.69-.46.8.8,0,0,0,.25-.57.82.82,0,0,0-.25-.57,2.24,2.24,0,0,0-.69-.47,4.69,4.69,0,0,0-1.07-.31A8.23,8.23,0,0,0,481.79,1.48Z"/><path class="cls-1" d="M510.08,10.29a.21.21,0,0,1-.17.1h-6.44V16c0,.16-.08.23-.24.23h-1.48c-.16,0-.24-.07-.24-.23V10.39H495.1a.21.21,0,0,1-.17-.1.32.32,0,0,1-.06-.17V9a.28.28,0,0,1,.06-.18.23.23,0,0,1,.17-.07h14.81a.21.21,0,0,1,.17.08.24.24,0,0,1,.09.17v1.11A.26.26,0,0,1,510.08,10.29ZM497,7.19l-.24,0a.2.2,0,0,1-.17-.1L496,6a.3.3,0,0,1,0-.23.26.26,0,0,1,.19-.15,13.68,13.68,0,0,0,2.17-.8A6.57,6.57,0,0,0,500,3.77a4.92,4.92,0,0,0,1.11-1.47A5.43,5.43,0,0,0,501.6.43a.47.47,0,0,1,.09-.22.27.27,0,0,1,.22-.09l1.42.05q.24,0,.24.27c0,.34-.06.65-.1.94a4.26,4.26,0,0,0,.77,1.32,7.24,7.24,0,0,0,1.26,1.13,8.54,8.54,0,0,0,1.6.91,11.4,11.4,0,0,0,1.79.6.35.35,0,0,1,.19.12.2.2,0,0,1,0,.2l-.51,1.12a.28.28,0,0,1-.36.17,8.87,8.87,0,0,1-1.66-.48A10.7,10.7,0,0,1,505,5.68a10.16,10.16,0,0,1-1.36-1,5.32,5.32,0,0,1-1-1.14,7.33,7.33,0,0,1-2.27,2.23A11.58,11.58,0,0,1,497,7.19Z"/><path class="cls-1" d="M524.74,4.68a4,4,0,0,1-.3,1.56,3.4,3.4,0,0,1-.85,1.22,4,4,0,0,1-1.31.8,4.53,4.53,0,0,1-1.68.29A4.31,4.31,0,0,1,519,8.26a3.85,3.85,0,0,1-1.29-.8,3.33,3.33,0,0,1-.82-1.22,4,4,0,0,1-.29-1.56,3.86,3.86,0,0,1,.29-1.53,3.62,3.62,0,0,1,.82-1.25A4.09,4.09,0,0,1,519,1.07a4.32,4.32,0,0,1,1.64-.3,4.53,4.53,0,0,1,1.68.3,4.3,4.3,0,0,1,1.31.83,3.7,3.7,0,0,1,.85,1.25A3.87,3.87,0,0,1,524.74,4.68ZM518.6,16.29a1,1,0,0,1-.27.11.27.27,0,0,1-.24-.13l-.65-.92a.27.27,0,0,1-.07-.2c0-.07.07-.14.19-.21a5.28,5.28,0,0,0,2.18-2,5.52,5.52,0,0,0,.68-2.72c0-.17.07-.25.22-.25L522,10q.24,0,.24.18c0,.2,0,.38,0,.56s0,.36-.05.53a3.38,3.38,0,0,0,.27.94,4.87,4.87,0,0,0,.44.85,4.19,4.19,0,0,0,.53.69,3.23,3.23,0,0,0,.58.5,1.22,1.22,0,0,0,.24.11.32.32,0,0,0,.25-.11,4.16,4.16,0,0,0,1.36-1.73,5.67,5.67,0,0,0,.45-2.29c0-.17.07-.25.22-.25l1.34,0a.34.34,0,0,1,.18,0,.14.14,0,0,1,.07.14,5.34,5.34,0,0,1,0,.58l-.06.54a4.18,4.18,0,0,0,.4,1.14,5.86,5.86,0,0,0,.66,1,6.34,6.34,0,0,0,.83.81,5.63,5.63,0,0,0,.93.6A.27.27,0,0,1,531,15a.21.21,0,0,1-.05.2l-.68,1q-.11.15-.39,0a3.93,3.93,0,0,1-.71-.39,6.51,6.51,0,0,1-.73-.59,6.64,6.64,0,0,1-.68-.72,5,5,0,0,1-.55-.8A6,6,0,0,1,526,15.1a7.41,7.41,0,0,1-1.49,1,.74.74,0,0,1-.68,0,5.2,5.2,0,0,1-1.43-1,5,5,0,0,1-1.12-1.48,7,7,0,0,1-1.17,1.49A6.28,6.28,0,0,1,518.6,16.29Zm4.2-11.58a2.15,2.15,0,0,0-.6-1.61,2.17,2.17,0,0,0-1.6-.58A2.14,2.14,0,0,0,519,3.1a2.14,2.14,0,0,0-.59,1.61A2.16,2.16,0,0,0,519,6.32a2.14,2.14,0,0,0,1.56.58,2.17,2.17,0,0,0,1.6-.58A2.17,2.17,0,0,0,522.8,4.71Zm6.1,4.47h-1.51c-.15,0-.22-.08-.22-.24V.39a.19.19,0,0,1,.22-.22h1.51a.19.19,0,0,1,.22.22V9A.19.19,0,0,1,528.9,9.18Z"/><path class="cls-1" d="M546.78,8.59a.21.21,0,0,1-.17.1H531.82c-.15,0-.23-.09-.23-.27V7.33a.21.21,0,0,1,.23-.24h14.79a.25.25,0,0,1,.17.08.21.21,0,0,1,.09.16V8.42A.26.26,0,0,1,546.78,8.59ZM533.88,6.1c-.25.06-.4,0-.46-.1L533,4.93a.31.31,0,0,1,0-.19.24.24,0,0,1,.16-.13,12.34,12.34,0,0,0,2-.61,7,7,0,0,0,1.59-.86A4,4,0,0,0,537.78,2a3.39,3.39,0,0,0,.47-1.5.28.28,0,0,1,.32-.28l1.31.06c.16,0,.24.07.24.23l0,.31a1.35,1.35,0,0,1,0,.29,3.64,3.64,0,0,0,.79,1.19,6.82,6.82,0,0,0,1.25,1,9.87,9.87,0,0,0,1.57.73,16.8,16.8,0,0,0,1.71.51.22.22,0,0,1,.15.13.25.25,0,0,1,0,.17l-.51,1a.45.45,0,0,1-.13.15.28.28,0,0,1-.26,0,7.28,7.28,0,0,1-1.48-.34,9,9,0,0,1-1.5-.65,10,10,0,0,1-1.36-.9,5.31,5.31,0,0,1-1-1.06A6.36,6.36,0,0,1,537.08,5,10.36,10.36,0,0,1,533.88,6.1Zm10.3,9.67a1.36,1.36,0,0,1-1,.28h-7.87a1.51,1.51,0,0,1-1-.26,1.26,1.26,0,0,1-.27-.93V10.05a.2.2,0,0,1,.06-.15.25.25,0,0,1,.16-.06h1.49a.29.29,0,0,1,.17.06.18.18,0,0,1,.07.15v1.54h6.53V10.05a.21.21,0,0,1,.07-.16.2.2,0,0,1,.15-.06h1.51a.25.25,0,0,1,.16.06.26.26,0,0,1,.07.16v4.86A1.22,1.22,0,0,1,544.18,15.77Zm-1.68-2.59H536v1c0,.19.11.29.32.29h5.89c.21,0,.32-.1.32-.29Z"/><path class="cls-1" d="M558.15,10.78a.47.47,0,0,1-.25.13,12.73,12.73,0,0,1-1.66.34c-.63.1-1.27.17-1.94.22s-1.35.08-2,.1-1.34,0-2,0a1.25,1.25,0,0,1-.95-.37,1.39,1.39,0,0,1-.29-.92V1.39a.24.24,0,0,1,.08-.16.21.21,0,0,1,.16-.07h1.46a.24.24,0,0,1,.18.07.24.24,0,0,1,.08.16V9.61q0,.17.06.21a.61.61,0,0,0,.26.06,21.27,21.27,0,0,0,3-.05,26.74,26.74,0,0,0,3.35-.48.24.24,0,0,1,.24.06.53.53,0,0,1,.11.21l.21.94A.23.23,0,0,1,558.15,10.78Zm3.1,5.3a.19.19,0,0,1-.22.22h-1.51c-.15,0-.23-.07-.23-.22V.39c0-.15.08-.22.23-.22H561a.19.19,0,0,1,.22.22Z"/><path class="cls-1" d="M573.67,10.91a.65.65,0,0,1-.16.09,13.53,13.53,0,0,1-1.69.36q-1,.15-2.1.24c-.72.07-1.42.11-2.1.13a15.82,15.82,0,0,1-1.73,0,1.53,1.53,0,0,1-.93-.28,1.08,1.08,0,0,1-.29-.86v-8a1.17,1.17,0,0,1,.24-.84,1.32,1.32,0,0,1,.9-.23H572c.16,0,.23.07.23.22V2.86c0,.14-.07.22-.23.22h-5.05c-.21,0-.31.09-.31.29V9.55c0,.19,0,.3.09.35a.94.94,0,0,0,.42.11,8.46,8.46,0,0,0,1.26,0c.49,0,1-.06,1.55-.11s1.1-.12,1.66-.2,1.11-.16,1.62-.25a.22.22,0,0,1,.3.2l.19,1C573.73,10.78,573.72,10.87,573.67,10.91ZM579,8a.27.27,0,0,1-.16.06h-2.31v8.06c0,.15-.08.22-.23.22h-1.51a.19.19,0,0,1-.22-.22V.39a.19.19,0,0,1,.22-.22h1.51c.15,0,.23.07.23.22v6h2.31a.27.27,0,0,1,.16.06.19.19,0,0,1,.08.15V7.79A.25.25,0,0,1,579,8Z"/><path class="cls-1" d="M581.89,15.59a1.28,1.28,0,0,1-.93-.38,1.3,1.3,0,0,1-.38-.93,1.26,1.26,0,0,1,.38-.92,1.27,1.27,0,0,1,.93-.37,1.21,1.21,0,0,1,.91.37,1.26,1.26,0,0,1,.38.92,1.3,1.3,0,0,1-.38.93A1.22,1.22,0,0,1,581.89,15.59Z"/><path class="cls-1" d="M73.33,43.19h2.32l2.33,0c.75,0,1.46,0,2.14,0s1.28,0,1.82-.08c0-.5,0-1,.06-1.41s0-.84,0-1.19a.84.84,0,0,0-.07-.4c0-.08-.15-.13-.33-.13H73.19a.18.18,0,0,1-.15-.07.23.23,0,0,1-.07-.16V38.56A.23.23,0,0,1,73,38.4a.18.18,0,0,1,.15-.07h9.66a1.44,1.44,0,0,1,.6.1.92.92,0,0,1,.36.28,1.16,1.16,0,0,1,.17.44l.06.57a39.24,39.24,0,0,1-.14,4c-.13,1.58-.31,3.29-.56,5.14h2.43a.28.28,0,0,1,.25.25v1.12a.21.21,0,0,1-.08.17.24.24,0,0,1-.17.09H71a.22.22,0,0,1-.17-.09.27.27,0,0,1-.06-.17V49.07a.28.28,0,0,1,.06-.18.23.23,0,0,1,.17-.07H81.4c.09-.48.17-1.09.25-1.83s.14-1.52.19-2.34c-1.2.06-2.5.1-3.89.12s-2.94,0-4.62,0a.21.21,0,0,1-.16-.07.28.28,0,0,1-.06-.18V43.43C73.11,43.27,73.18,43.19,73.33,43.19Z"/><path class="cls-1" d="M99.79,43.9a.2.2,0,0,1-.15.09H95.32v1.36h6.41a.23.23,0,0,1,.17.07.22.22,0,0,1,.09.16v1.11a.24.24,0,0,1-.09.17.22.22,0,0,1-.17.09H86.94a.25.25,0,0,1-.17-.08.28.28,0,0,1-.06-.18V45.58a.2.2,0,0,1,.23-.23h6.43V44h-3a1.24,1.24,0,0,1-.91-.25,1.15,1.15,0,0,1-.23-.79V41a1.07,1.07,0,0,1,.23-.78,1.23,1.23,0,0,1,.89-.24h7.12a.27.27,0,0,0,.17,0,.4.4,0,0,0,0-.2v-.63a.24.24,0,0,0,0-.16.31.31,0,0,0-.18,0H89.48a.29.29,0,0,1-.17-.06.21.21,0,0,1-.07-.16V37.6a.21.21,0,0,1,.07-.16.31.31,0,0,1,.17-.07h8.9a1.42,1.42,0,0,1,.93.22,1.06,1.06,0,0,1,.23.79v2a1.09,1.09,0,0,1-.23.8,1.37,1.37,0,0,1-.93.22h-7c-.1,0-.17,0-.19,0a.36.36,0,0,0,0,.18v.64q0,.16,0,.18a.4.4,0,0,0,.21,0h8.28a.27.27,0,0,1,.16.06.19.19,0,0,1,.07.16v1A.23.23,0,0,1,99.79,43.9Zm-.54,9a1.48,1.48,0,0,1-1,.27H90.39a1.42,1.42,0,0,1-1-.26,1.28,1.28,0,0,1-.27-.93v-2.7a1.2,1.2,0,0,1,.32-.93,1.5,1.5,0,0,1,1-.28h7.89a1.46,1.46,0,0,1,1,.27,1.29,1.29,0,0,1,.26.94v2.7A1.13,1.13,0,0,1,99.25,52.86Zm-1.63-3c0-.18-.08-.27-.22-.27H91.28a.22.22,0,0,0-.18.06.35.35,0,0,0,0,.2v1.42c0,.11,0,.17,0,.19a.34.34,0,0,0,.18,0H97.4a.34.34,0,0,0,.18,0,.3.3,0,0,0,0-.19Z"/><path class="cls-1" d="M105.05,53.82a.54.54,0,0,1-.22,0h-1.36a.17.17,0,0,1-.14-.06.17.17,0,0,1,0-.16l.84-3.09a.54.54,0,0,1,.1-.18.29.29,0,0,1,.25-.09h1.65c.15,0,.23,0,.24.11a.38.38,0,0,1,0,.21l-1.17,3A.28.28,0,0,1,105.05,53.82Z"/><path class="cls-1" d="M114.21,49.55a.4.4,0,0,1-.59,0l-.8-.75c-.16-.16-.15-.33.05-.53A11,11,0,0,0,114.75,46,11.94,11.94,0,0,0,116,43.41c.14-.41.25-.81.35-1.22s.17-.81.23-1.22a12.85,12.85,0,0,0,.12-1.29c0-.45,0-.92,0-1.42a.24.24,0,0,1,.07-.18A.24.24,0,0,1,117,38l1.52,0a.22.22,0,0,1,.15.08.24.24,0,0,1,.07.18c0,.69,0,1.33-.07,1.93s-.12,1.17-.22,1.72a7.51,7.51,0,0,0,.53,1.6,9.93,9.93,0,0,0,.83,1.54,11,11,0,0,0,1,1.36,8.93,8.93,0,0,0,1.09,1.06c.19.14.2.31,0,.53l-.72.87a.29.29,0,0,1-.23.13.45.45,0,0,1-.31-.1,8.61,8.61,0,0,1-.87-.8,12.75,12.75,0,0,1-.87-1,12.59,12.59,0,0,1-.78-1.13,8.07,8.07,0,0,1-.57-1.14,15.23,15.23,0,0,1-.7,1.4,14.82,14.82,0,0,1-.83,1.28c-.3.4-.6.78-.91,1.12A7.77,7.77,0,0,1,114.21,49.55Zm13.85-4.61a.28.28,0,0,1-.16.07h-2.32v8.07a.19.19,0,0,1-.22.22h-1.51a.19.19,0,0,1-.22-.22V37.39a.19.19,0,0,1,.22-.22h1.51a.19.19,0,0,1,.22.22v6h2.32a.33.33,0,0,1,.16,0,.18.18,0,0,1,.07.15v1.19A.22.22,0,0,1,128.06,44.94Z"/><path class="cls-1" d="M128.93,47l.82,0h.8v-7h-1.36A.3.3,0,0,1,129,40a.22.22,0,0,1-.1-.18V38.75a.24.24,0,0,1,.1-.19.34.34,0,0,1,.19-.08H138a.22.22,0,0,1,.18.08.25.25,0,0,1,.07.19v1.07a.24.24,0,0,1-.07.18.25.25,0,0,1-.18.08h-1.17v6.71l.9-.07.86-.11a.26.26,0,0,1,.19,0,.17.17,0,0,1,.12.13l.15,1.07a.17.17,0,0,1,0,.2.29.29,0,0,1-.16.09c-.68.1-1.42.19-2.21.26s-1.62.13-2.47.17-1.71.07-2.6.08-1.75,0-2.6,0a.22.22,0,0,1-.17-.07.34.34,0,0,1-.07-.18V47.27A.21.21,0,0,1,128.93,47Zm6-.1V40.08h-2.47v7C133.28,47,134.11,47,134.9,46.93ZM144,45a.23.23,0,0,1-.16.07h-2.32v8a.19.19,0,0,1-.22.22h-1.51a.19.19,0,0,1-.22-.22V37.39a.19.19,0,0,1,.22-.22h1.51a.19.19,0,0,1,.22.22v6h2.32a.27.27,0,0,1,.16.06.17.17,0,0,1,.07.14v1.21A.18.18,0,0,1,144,45Z"/><path class="cls-1" d="M155.08,48.69a.66.66,0,0,1-.24.11c-.33.08-.71.15-1.13.21s-.88.12-1.35.16-1,.09-1.45.12-.95.06-1.41.07l-1.25,0a8.23,8.23,0,0,1-.94,0,1.78,1.78,0,0,1-1-.32,1.17,1.17,0,0,1-.28-.9V44a1.17,1.17,0,0,1,.3-.89,1.28,1.28,0,0,1,.89-.27h4.05a.26.26,0,0,0,.18,0s.05-.1.05-.21V40.25a.41.41,0,0,0,0-.19s-.09-.05-.2-.05h-4.9a.21.21,0,0,1-.16-.07.19.19,0,0,1-.08-.15V38.62a.19.19,0,0,1,.08-.15.25.25,0,0,1,.16-.06h5.92a1.2,1.2,0,0,1,.94.27,1.5,1.5,0,0,1,.21.89v3.77a1.21,1.21,0,0,1-.26.89,1.47,1.47,0,0,1-.93.23h-4c-.16,0-.23.08-.23.24v2.69a.35.35,0,0,0,.06.24.41.41,0,0,0,.26.06c.5,0,1,0,1.57,0s1.1,0,1.66-.08,1.1-.1,1.62-.16,1-.15,1.49-.24a.31.31,0,0,1,.23,0,.3.3,0,0,1,.14.22l.16,1A.18.18,0,0,1,155.08,48.69Zm3.16,4.39a.19.19,0,0,1-.22.22h-1.51a.19.19,0,0,1-.22-.22V37.39a.19.19,0,0,1,.22-.22H158a.19.19,0,0,1,.22.22Z"/><path class="cls-1" d="M180.49,48a.25.25,0,0,1-.17.08H165.53a.25.25,0,0,1-.17-.08.32.32,0,0,1-.06-.17v-1a.28.28,0,0,1,.06-.18.22.22,0,0,1,.17-.09h6.4v-.9a5.28,5.28,0,0,1-2.67-.79,1.79,1.79,0,0,1-.87-1.42,1.48,1.48,0,0,1,.28-.87,2.53,2.53,0,0,1,.84-.72,5.15,5.15,0,0,1,1.41-.5,10.73,10.73,0,0,1,4,0,5,5,0,0,1,1.42.5,2.34,2.34,0,0,1,.84.72,1.48,1.48,0,0,1,.28.87,1.76,1.76,0,0,1-.89,1.43,5.53,5.53,0,0,1-2.71.78v.9h6.38a.37.37,0,0,1,.2.09q.12.11.12.18v1A.26.26,0,0,1,180.49,48Zm-1.5-7.4a.23.23,0,0,1-.18.09H167.06a.28.28,0,0,1-.17-.1.31.31,0,0,1-.08-.19v-.9a.22.22,0,0,1,.09-.17.26.26,0,0,1,.18-.09h11.73a.25.25,0,0,1,.18.08.24.24,0,0,1,.07.18v.91A.28.28,0,0,1,179,40.57Zm-.9,12.84a.24.24,0,0,1-.16.08H176.5a.25.25,0,0,1-.18-.08.23.23,0,0,1-.08-.16V50.67a.29.29,0,0,0-.06-.22.44.44,0,0,0-.26-.05h-8.31a.25.25,0,0,1-.16-.06.17.17,0,0,1-.08-.15V49.07a.15.15,0,0,1,.08-.15.24.24,0,0,1,.16-.05H177a1.17,1.17,0,0,1,.89.26,1.42,1.42,0,0,1,.23.91v3.21A.21.21,0,0,1,178.09,53.41Zm-2.48-14.86a.3.3,0,0,1-.2.08h-4.95a.27.27,0,0,1-.16-.07.2.2,0,0,1-.09-.18v-1a.23.23,0,0,1,.09-.19.35.35,0,0,1,.16-.07h4.95a.26.26,0,0,1,.19.09.27.27,0,0,1,.08.19v.93A.28.28,0,0,1,175.61,38.55Zm-2.68,3.89a5.4,5.4,0,0,0-2,.28q-.69.28-.69.69c0,.26.23.48.69.67a5.4,5.4,0,0,0,2,.28,5.49,5.49,0,0,0,2-.28c.45-.19.68-.41.68-.67s-.23-.5-.68-.69A5.49,5.49,0,0,0,172.93,42.44Z"/><path class="cls-1" d="M181.34,46.52a.33.33,0,0,1-.06-.19v-1.1a.28.28,0,0,1,.06-.18.25.25,0,0,1,.17-.08h14.81a.33.33,0,0,1,.26.26v1.1a.35.35,0,0,1-.26.28H181.51A.22.22,0,0,1,181.34,46.52ZM189,43.61a10.71,10.71,0,0,1-2.19-.21,6.15,6.15,0,0,1-1.7-.6,3.24,3.24,0,0,1-1.12-1,2.3,2.3,0,0,1-.4-1.31,2.33,2.33,0,0,1,.4-1.32,3.27,3.27,0,0,1,1.12-1,6.15,6.15,0,0,1,1.7-.6,10.71,10.71,0,0,1,2.19-.21,10.54,10.54,0,0,1,2.18.21,6.2,6.2,0,0,1,1.69.6,3.27,3.27,0,0,1,1.12,1,2.33,2.33,0,0,1,.4,1.32,2.3,2.3,0,0,1-.4,1.31,3.24,3.24,0,0,1-1.12,1,6.2,6.2,0,0,1-1.69.6A10.54,10.54,0,0,1,189,43.61Zm5.69,9.17a.37.37,0,0,1-.18,0H185a1.46,1.46,0,0,1-1-.27,1.36,1.36,0,0,1-.26-1V47.91a.24.24,0,0,1,.23-.23h1.47a.23.23,0,0,1,.17.07.21.21,0,0,1,.08.16v3c0,.12,0,.19.07.22a.38.38,0,0,0,.25.06h8.49a.3.3,0,0,1,.17,0,.19.19,0,0,1,.08.15v1.22A.19.19,0,0,1,194.65,52.78ZM189,39a8.05,8.05,0,0,0-1.36.11,4.58,4.58,0,0,0-1.06.32,1.9,1.9,0,0,0-.7.49,1,1,0,0,0-.25.63.94.94,0,0,0,.25.62,1.88,1.88,0,0,0,.7.48,4.14,4.14,0,0,0,1.06.32,8.05,8.05,0,0,0,1.36.11,7.9,7.9,0,0,0,1.34-.11,4.14,4.14,0,0,0,1.06-.32,1.8,1.8,0,0,0,.7-.48.89.89,0,0,0,.25-.62.92.92,0,0,0-.25-.63,1.82,1.82,0,0,0-.7-.49,4.58,4.58,0,0,0-1.06-.32A7.9,7.9,0,0,0,189,39Z"/><path class="cls-1" d="M212.14,47.91A.65.65,0,0,1,212,48a13.53,13.53,0,0,1-1.69.36q-1,.15-2.1.24c-.72.07-1.42.11-2.1.13a15.82,15.82,0,0,1-1.73,0,1.53,1.53,0,0,1-.93-.28,1.08,1.08,0,0,1-.29-.86v-8a1.17,1.17,0,0,1,.24-.84,1.32,1.32,0,0,1,.9-.23h6.17c.16,0,.24.07.24.22v1.19c0,.14-.08.22-.24.22h-5c-.21,0-.31.09-.31.29v6.18c0,.19,0,.3.1.35a.85.85,0,0,0,.41.11,8.46,8.46,0,0,0,1.26,0c.49,0,1-.06,1.55-.11s1.1-.12,1.66-.2,1.11-.16,1.62-.25a.22.22,0,0,1,.3.2l.19,1C212.2,47.78,212.19,47.87,212.14,47.91ZM217.46,45a.27.27,0,0,1-.16.06H215v8.06a.2.2,0,0,1-.22.22h-1.52a.19.19,0,0,1-.22-.22V37.39a.19.19,0,0,1,.22-.22h1.52a.2.2,0,0,1,.22.22v6h2.31a.27.27,0,0,1,.16.06.19.19,0,0,1,.08.15v1.19A.25.25,0,0,1,217.46,45Z"/><path class="cls-1" d="M233.19,47.23a.22.22,0,0,1-.17.09H218.23a.22.22,0,0,1-.17-.09.28.28,0,0,1-.06-.18V46c0-.16.07-.24.23-.24H233a.25.25,0,0,1,.17.08.21.21,0,0,1,.09.16v1.09A.3.3,0,0,1,233.19,47.23Zm-1.95,5.63a.3.3,0,0,1-.17,0h-9.32a1.46,1.46,0,0,1-1-.27,1.29,1.29,0,0,1-.27-.93v-3.1a.28.28,0,0,1,.24-.24h1.46a.25.25,0,0,1,.18.08.23.23,0,0,1,.08.16V51c0,.11,0,.19.07.22a.47.47,0,0,0,.25.05h8.35a.32.32,0,0,1,.17.06.19.19,0,0,1,.08.14v1.23A.16.16,0,0,1,231.24,52.86Zm-.13-8.56a.23.23,0,0,1-.14.08h-9.35a1.29,1.29,0,0,1-.91-.24,1.12,1.12,0,0,1-.23-.78V41.1a1,1,0,0,1,.23-.78,1.23,1.23,0,0,1,.89-.24h7.12a.27.27,0,0,0,.17,0,.4.4,0,0,0,0-.2V39a.27.27,0,0,0,0-.17.53.53,0,0,0-.18,0H220.8a.25.25,0,0,1-.16-.06.19.19,0,0,1-.08-.14V37.49a.22.22,0,0,1,.08-.15.21.21,0,0,1,.16-.07h8.87a1.37,1.37,0,0,1,.93.22,1.06,1.06,0,0,1,.23.79v2.24a1.07,1.07,0,0,1-.23.8,1.51,1.51,0,0,1-.93.2h-7a.33.33,0,0,0-.19,0,.36.36,0,0,0,0,.18v.89a.31.31,0,0,0,0,.18.67.67,0,0,0,.21,0H231a.21.21,0,0,1,.16.07.23.23,0,0,1,.08.17v1.07A.23.23,0,0,1,231.11,44.3Z"/><path class="cls-1" d="M254,50.35a.27.27,0,0,1-.17.08H239a.21.21,0,0,1-.17-.08.27.27,0,0,1-.07-.17V49.07a.28.28,0,0,1,.07-.19.21.21,0,0,1,.17-.08h14.79a.24.24,0,0,1,.17.09.24.24,0,0,1,.08.18v1.11A.24.24,0,0,1,254,50.35Zm-2.48-4.83a1.38,1.38,0,0,1-1,.29h-8.17a1.51,1.51,0,0,1-1-.26,1.26,1.26,0,0,1-.27-.93V38.11a.2.2,0,0,1,.06-.15.25.25,0,0,1,.16-.06h1.49a.25.25,0,0,1,.16.06.17.17,0,0,1,.08.15V40.5h6.83V38.09a.24.24,0,0,1,.23-.22h1.51a.24.24,0,0,1,.22.22v6.58A1.2,1.2,0,0,1,251.47,45.52Zm-1.69-3.44H243v1.84c0,.19.1.29.31.29h6.22a.26.26,0,0,0,.3-.29Z"/><path class="cls-1" d="M264.74,48.69a.61.61,0,0,1-.23.11q-.75.16-1.8.3c-.69.08-1.4.15-2.1.19s-1.39.08-2,.09a13.27,13.27,0,0,1-1.52,0,1.78,1.78,0,0,1-1-.32,1.21,1.21,0,0,1-.28-.9V44a1.17,1.17,0,0,1,.3-.89,1.28,1.28,0,0,1,.89-.27H261a.26.26,0,0,0,.18,0s.06-.1.06-.21V40.25a.38.38,0,0,0,0-.19S261.1,40,261,40h-4.9a.21.21,0,0,1-.16-.07.19.19,0,0,1-.08-.15V38.62a.19.19,0,0,1,.08-.15.25.25,0,0,1,.16-.06H262a1.2,1.2,0,0,1,.94.27,1.5,1.5,0,0,1,.21.89v3.77a1.17,1.17,0,0,1-.26.89,1.45,1.45,0,0,1-.93.23h-4a.21.21,0,0,0-.23.24v2.69a.35.35,0,0,0,.06.24.38.38,0,0,0,.24.06c.51,0,1,0,1.57,0s1.08,0,1.62-.08,1.07-.1,1.59-.16,1-.15,1.48-.24a.36.36,0,0,1,.25,0,.3.3,0,0,1,.14.22l.15,1A.22.22,0,0,1,264.74,48.69ZM270.16,45A.27.27,0,0,1,270,45h-2.31v8.06c0,.15-.08.22-.23.22H266a.19.19,0,0,1-.22-.22V37.39a.19.19,0,0,1,.22-.22h1.51c.15,0,.23.07.23.22v6H270a.27.27,0,0,1,.16.06.19.19,0,0,1,.08.15v1.19A.25.25,0,0,1,270.16,45Z"/><path class="cls-1" d="M285.91,47.38a.24.24,0,0,1-.17.09h-6.43V53a.2.2,0,0,1-.23.23H277.6c-.16,0-.24-.07-.24-.23V47.47h-6.43a.21.21,0,0,1-.17-.09.34.34,0,0,1-.07-.18V46.1a.29.29,0,0,1,.07-.18.23.23,0,0,1,.17-.08h14.81a.24.24,0,0,1,.17.09.21.21,0,0,1,.08.17v1.1A.24.24,0,0,1,285.91,47.38Zm-7.57-3.07a9.56,9.56,0,0,1-2.09-.23,6.39,6.39,0,0,1-1.77-.67,3.77,3.77,0,0,1-1.24-1.09,2.57,2.57,0,0,1,0-3,3.74,3.74,0,0,1,1.24-1.08,6.4,6.4,0,0,1,1.77-.68,9.66,9.66,0,0,1,4.19,0,6.52,6.52,0,0,1,1.77.68,3.61,3.61,0,0,1,1.23,1.08,2.61,2.61,0,0,1,0,3,3.63,3.63,0,0,1-1.23,1.09,6.51,6.51,0,0,1-1.77.67A9.59,9.59,0,0,1,278.34,44.31Zm0-5.34a6.14,6.14,0,0,0-1.29.14,5.17,5.17,0,0,0-1.13.37,2.52,2.52,0,0,0-.81.6,1.19,1.19,0,0,0-.3.78,1.11,1.11,0,0,0,.3.76,2.65,2.65,0,0,0,.81.59,4.28,4.28,0,0,0,1.13.37,6.52,6.52,0,0,0,2.59,0,4.1,4.1,0,0,0,1.12-.37,2.6,2.6,0,0,0,.8-.59,1.11,1.11,0,0,0,.3-.76,1.19,1.19,0,0,0-.3-.78,2.47,2.47,0,0,0-.8-.6,4.91,4.91,0,0,0-1.12-.37A6.16,6.16,0,0,0,278.34,39Z"/><path class="cls-1" d="M288.14,49.21a.43.43,0,0,1-.29.06.32.32,0,0,1-.24-.15l-.66-.88a.25.25,0,0,1-.05-.29.76.76,0,0,1,.18-.21,13.58,13.58,0,0,0,2-1.53,15.65,15.65,0,0,0,1.75-1.81,13,13,0,0,0,1.33-1.95,8.55,8.55,0,0,0,.78-1.91.63.63,0,0,0,0-.38s-.15-.08-.34-.08h-4.39a.23.23,0,0,1-.17-.08.29.29,0,0,1-.07-.18V38.68a.25.25,0,0,1,.08-.17.28.28,0,0,1,.18-.06h5.54a1.84,1.84,0,0,1,1,.25.76.76,0,0,1,.37.66,3.4,3.4,0,0,1,0,.45,2.2,2.2,0,0,1-.09.42,11.68,11.68,0,0,1-.65,1.85,17.26,17.26,0,0,1-1,1.87c.21.3.47.61.75.94s.59.65.9,1,.61.6.91.87a9.21,9.21,0,0,0,.82.65.51.51,0,0,1,.16.23.27.27,0,0,1-.06.26l-.73.84c-.15.17-.33.18-.56,0a7.79,7.79,0,0,1-.75-.58c-.28-.25-.57-.53-.87-.83s-.6-.62-.89-1-.54-.65-.77-.95a17.22,17.22,0,0,1-1.91,2A20,20,0,0,1,288.14,49.21Zm12.29,4.09h-1.51c-.15,0-.23-.07-.23-.22V44.26h-3a.2.2,0,0,1-.15-.06.17.17,0,0,1-.07-.14V42.83a.16.16,0,0,1,.07-.14.2.2,0,0,1,.15-.06h3V37.39c0-.15.08-.22.23-.22h1.51a.19.19,0,0,1,.22.22V53.08A.19.19,0,0,1,300.43,53.3Z"/><path class="cls-1" d="M303,48.26a.25.25,0,0,1,.19-.07q1.2,0,2.55,0c.89,0,1.79-.06,2.68-.11s1.75-.1,2.59-.17,1.61-.16,2.31-.25a.41.41,0,0,1,.19,0c.08,0,.12.07.13.16l.11,1.1a.26.26,0,0,1-.07.22.29.29,0,0,1-.16.09c-.63.09-1.37.18-2.22.26s-1.75.14-2.68.2-1.87.1-2.81.13-1.82,0-2.62,0a.25.25,0,0,1-.19-.07.31.31,0,0,1-.07-.18V48.44A.29.29,0,0,1,303,48.26ZM308,38.16a4.56,4.56,0,0,1,1.62.28,3.86,3.86,0,0,1,1.32.8,3.63,3.63,0,0,1,.88,1.25,4.24,4.24,0,0,1,0,3.23A3.55,3.55,0,0,1,311,45a4.13,4.13,0,0,1-1.32.77A4.82,4.82,0,0,1,308,46a4.75,4.75,0,0,1-1.62-.27,4,4,0,0,1-1.3-.77,3.66,3.66,0,0,1-.87-1.23,4.24,4.24,0,0,1,0-3.23,3.72,3.72,0,0,1,2.18-2.05A4.62,4.62,0,0,1,308,38.16Zm0,1.61a2.16,2.16,0,0,0-1.6.63,2.64,2.64,0,0,0,0,3.42,2.16,2.16,0,0,0,1.6.63,2.2,2.2,0,0,0,1.63-.63,2.64,2.64,0,0,0,0-3.42A2.2,2.2,0,0,0,308,39.77Zm8.33,13.31c0,.15-.08.22-.24.22h-1.5a.27.27,0,0,1-.16-.06.19.19,0,0,1-.08-.16V37.39a.19.19,0,0,1,.08-.15.23.23,0,0,1,.16-.07h1.5c.16,0,.24.07.24.22Z"/><path class="cls-1" d="M328.21,46.47a.24.24,0,0,1,.18-.07h1.43a.23.23,0,0,1,.26.26v2l2.13-.16c.68-.06,1.32-.14,1.91-.21a.23.23,0,0,1,.2,0c.07,0,.11.07.12.17l.11,1.1a.24.24,0,0,1-.05.2.29.29,0,0,1-.16.09q-.94.15-2.25.27c-.87.08-1.77.15-2.72.21l-2.85.12c-.95,0-1.83,0-2.63,0a.26.26,0,0,1-.19-.08.29.29,0,0,1-.07-.18V49.07c0-.16.09-.24.26-.24.65,0,1.34,0,2.06,0s1.45,0,2.19-.07V46.66A.24.24,0,0,1,328.21,46.47Zm-2.93.39a.29.29,0,0,1-.24,0,.31.31,0,0,1-.17-.14l-.39-.85a.3.3,0,0,1,0-.26.3.3,0,0,1,.18-.16,16.09,16.09,0,0,0,3.14-1.57,10,10,0,0,0,2.09-1.8c.13-.14.19-.23.19-.28s-.09-.08-.27-.08h-4.47a.19.19,0,0,1-.22-.22V40.4c0-.14.07-.2.22-.2h5.93a1.88,1.88,0,0,1,.95.22.63.63,0,0,1,.39.54,1.31,1.31,0,0,1-.07.44,2.63,2.63,0,0,1-.32.56,6.27,6.27,0,0,1-.72.92,11.11,11.11,0,0,1-1,.95,9.66,9.66,0,0,0,1.4.71c.49.21.95.39,1.36.55a.6.6,0,0,1,.22.16.19.19,0,0,1,0,.23l-.42.89a.26.26,0,0,1-.16.12.62.62,0,0,1-.27,0,12.78,12.78,0,0,1-1.77-.73c-.6-.3-1.15-.59-1.66-.89A19.21,19.21,0,0,1,327.37,46,12.79,12.79,0,0,1,325.28,46.86Zm5.7-7.72a.26.26,0,0,1-.21.09h-4a.25.25,0,0,1-.16-.07.22.22,0,0,1-.1-.19V38a.24.24,0,0,1,.1-.21.31.31,0,0,1,.16-.07h4a.29.29,0,0,1,.21.09.3.3,0,0,1,.08.2v1A.23.23,0,0,1,331,39.14Zm5.88,14.2h-1.5a.27.27,0,0,1-.16-.06.21.21,0,0,1-.08-.16V37.39a.19.19,0,0,1,.08-.15.23.23,0,0,1,.16-.07h1.5c.16,0,.24.07.24.22V53.12C337.1,53.26,337,53.34,336.86,53.34Z"/><path class="cls-1" d="M341.07,46.76a.47.47,0,0,1-.34.1.44.44,0,0,1-.22-.15l-.69-.8c-.12-.13-.16-.23-.13-.32a.5.5,0,0,1,.19-.23A11.07,11.07,0,0,0,341.55,44a7.5,7.5,0,0,0,1.2-1.61,7.87,7.87,0,0,0,.73-2,11.3,11.3,0,0,0,.25-2.44.32.32,0,0,1,.08-.22.24.24,0,0,1,.17-.09l1.5.09c.14,0,.22.08.22.25,0,.48,0,.93-.06,1.37a11.74,11.74,0,0,1-.18,1.25,5.75,5.75,0,0,0,.61,1.37,9,9,0,0,0,.91,1.2,8.52,8.52,0,0,0,1,1,6.49,6.49,0,0,0,1,.68c.17.1.2.23.07.41l-.64.92a.31.31,0,0,1-.45.1,7.28,7.28,0,0,1-1.94-1.39A8.41,8.41,0,0,1,344.64,43,9.26,9.26,0,0,1,343.17,45,13.31,13.31,0,0,1,341.07,46.76ZM353.36,53a.34.34,0,0,1-.17,0h-8.9a1.45,1.45,0,0,1-1-.27,1.34,1.34,0,0,1-.26-.94V48a.23.23,0,0,1,.07-.17.23.23,0,0,1,.16-.07h1.48a.24.24,0,0,1,.18.07A.25.25,0,0,1,345,48v3.17c0,.12,0,.19.07.23a.47.47,0,0,0,.25.05h7.9a.27.27,0,0,1,.17.06.21.21,0,0,1,.07.16v1.2A.19.19,0,0,1,353.36,53Zm-.45-4.58a.21.21,0,0,1-.23.23h-1.51c-.15,0-.22-.08-.22-.24v-11a.19.19,0,0,1,.22-.22h1.51c.15,0,.23.07.23.22Z"/><path class="cls-1" d="M368.86,48.34a1.42,1.42,0,0,1-1,.29h-5.17a1.51,1.51,0,0,1-1-.26,1.26,1.26,0,0,1-.27-.93V38.26a.18.18,0,0,1,.07-.15.2.2,0,0,1,.15-.06h1.5a.27.27,0,0,1,.16.06.18.18,0,0,1,.07.15V42h3.83V38.24a.18.18,0,0,1,.07-.15.25.25,0,0,1,.17-.07h1.49a.21.21,0,0,1,.16.07.19.19,0,0,1,.08.15V42.7H372V37.39a.2.2,0,0,1,.22-.22h1.52a.2.2,0,0,1,.22.22V53.08a.2.2,0,0,1-.22.22h-1.52a.2.2,0,0,1-.22-.22V44.33h-2.82v3.16A1.16,1.16,0,0,1,368.86,48.34Zm-1.69-4.78h-3.83v3.18c0,.19.11.29.31.29h3.21c.21,0,.31-.1.31-.29Z"/><path class="cls-1" d="M377.51,47.15a.29.29,0,0,1-.26-.19l-.51-.83a.31.31,0,0,1,0-.28.36.36,0,0,1,.19-.23,12.32,12.32,0,0,0,1.8-1.09,13.11,13.11,0,0,0,1.58-1.34,11.52,11.52,0,0,0,1.22-1.46,6.21,6.21,0,0,0,.77-1.45.53.53,0,0,0,.06-.28c0-.07-.1-.11-.29-.11h-4.19a.18.18,0,0,1-.17-.08.27.27,0,0,1-.06-.17V38.5c0-.16.08-.24.25-.24h5.39a1.73,1.73,0,0,1,1.1.28.82.82,0,0,1,.28.82c0,.13-.05.25-.09.38s-.07.24-.1.34a7.56,7.56,0,0,1-.54,1.31,11.42,11.42,0,0,1-.84,1.34,9.11,9.11,0,0,0,.7.68c.26.23.53.44.81.65s.55.41.82.59.52.33.75.46.27.28.14.51l-.57.87a.36.36,0,0,1-.52.1,7.11,7.11,0,0,1-.73-.43c-.27-.19-.56-.4-.86-.63s-.6-.48-.89-.74-.54-.51-.77-.75a15,15,0,0,1-1.92,1.7,14.53,14.53,0,0,1-2.24,1.36A.68.68,0,0,1,377.51,47.15ZM390.21,53a.24.24,0,0,1-.16,0h-8.86a1.46,1.46,0,0,1-1-.27,1.34,1.34,0,0,1-.26-.93V48.1a.28.28,0,0,1,.24-.24h1.46a.25.25,0,0,1,.18.08.23.23,0,0,1,.08.16v3a.29.29,0,0,0,.06.22.42.42,0,0,0,.26.05h7.87a.26.26,0,0,1,.16.07.22.22,0,0,1,.08.15v1.21A.16.16,0,0,1,390.21,53ZM384.9,42.87V41.69a.17.17,0,0,1,.07-.14.29.29,0,0,1,.17-.06h2.7v-4.1a.19.19,0,0,1,.22-.22h1.51a.19.19,0,0,1,.22.22v11c0,.15-.07.23-.22.23h-1.51c-.15,0-.22-.08-.22-.23V43.09h-2.7A.31.31,0,0,1,385,43,.21.21,0,0,1,384.9,42.87Z"/><path class="cls-1" d="M392.07,45.18V44.09a.24.24,0,0,1,.07-.18.23.23,0,0,1,.17-.08h14.81a.26.26,0,0,1,.17.09.27.27,0,0,1,.08.17v1.09a.24.24,0,0,1-.08.16.29.29,0,0,1-.17.08H392.31A.21.21,0,0,1,392.07,45.18Zm13-5.24a2.1,2.1,0,0,1-.35,1.15,2.91,2.91,0,0,1-1,.92,6.36,6.36,0,0,1-1.67.6,12,12,0,0,1-4.58,0,6.36,6.36,0,0,1-1.67-.6,2.82,2.82,0,0,1-1-.92,2.06,2.06,0,0,1,0-2.3,2.78,2.78,0,0,1,1-.94,6,6,0,0,1,1.67-.62,11.52,11.52,0,0,1,4.58,0,6,6,0,0,1,1.67.62,2.86,2.86,0,0,1,1,.94A2.1,2.1,0,0,1,405.08,39.94ZM405.26,53c-.06,0-.1.08-.15.08h-9.48a1.29,1.29,0,0,1-.91-.24,1.12,1.12,0,0,1-.23-.78v-2a1.07,1.07,0,0,1,.23-.78,1.23,1.23,0,0,1,.89-.24h7.21a.32.32,0,0,0,.17,0s0-.08,0-.19v-.51a.5.5,0,0,0,0-.23s-.09,0-.19,0h-8.11a.25.25,0,0,1-.16-.06.19.19,0,0,1-.08-.15V46.72a.22.22,0,0,1,.08-.15.26.26,0,0,1,.16-.07h9.1a1.35,1.35,0,0,1,.92.22,1.06,1.06,0,0,1,.23.79v2a1,1,0,0,1-.23.79,1.42,1.42,0,0,1-.92.21h-7.18c-.09,0-.15,0-.17,0a.4.4,0,0,0,0,.2v.57q0,.16,0,.18a.36.36,0,0,0,.19,0h8.46a.25.25,0,0,1,.17.07.21.21,0,0,1,.07.17v1.1A.21.21,0,0,1,405.26,53Zm-5.52-14.54a8.05,8.05,0,0,0-1.36.11,4.6,4.6,0,0,0-1.06.31,2.15,2.15,0,0,0-.7.48.87.87,0,0,0-.25.58.82.82,0,0,0,.25.56,2.12,2.12,0,0,0,.7.45,4.61,4.61,0,0,0,1.06.3,9.23,9.23,0,0,0,2.71,0,4.71,4.71,0,0,0,1.07-.3,2.08,2.08,0,0,0,.7-.46.84.84,0,0,0,.25-.57.86.86,0,0,0-.25-.57,2.44,2.44,0,0,0-.7-.47,4.69,4.69,0,0,0-1.07-.31A8,8,0,0,0,399.74,38.48Z"/><path class="cls-1" d="M414.43,49.55a.41.41,0,0,1-.6,0l-.8-.75c-.16-.16-.14-.33.05-.53A10.75,10.75,0,0,0,415,46a12.4,12.4,0,0,0,1.26-2.62c.13-.41.25-.81.35-1.22s.17-.81.23-1.22.09-.84.11-1.29,0-.92,0-1.42a.25.25,0,0,1,.08-.18.23.23,0,0,1,.16-.08l1.51,0a.23.23,0,0,1,.16.08.28.28,0,0,1,.06.18c0,.69,0,1.33-.06,1.93s-.12,1.17-.22,1.72a7.47,7.47,0,0,0,.52,1.6,12,12,0,0,0,1.86,2.9,9,9,0,0,0,1.1,1.06c.18.14.19.31,0,.53l-.71.87a.3.3,0,0,1-.23.13.44.44,0,0,1-.31-.1,7.66,7.66,0,0,1-.87-.8,11.07,11.07,0,0,1-.88-1c-.27-.36-.53-.74-.77-1.13a8.19,8.19,0,0,1-.58-1.14,13,13,0,0,1-.69,1.4,14.89,14.89,0,0,1-.84,1.28,13,13,0,0,1-.91,1.12A8.56,8.56,0,0,1,414.43,49.55Zm13.84-4.61a.26.26,0,0,1-.16.07H425.8v8.07a.19.19,0,0,1-.22.22h-1.51c-.15,0-.23-.07-.23-.22V37.39c0-.15.08-.22.23-.22h1.51a.19.19,0,0,1,.22.22v6h2.31a.3.3,0,0,1,.16,0,.19.19,0,0,1,.08.15v1.19A.23.23,0,0,1,428.27,44.94Z"/><path class="cls-1" d="M444,46.54a.29.29,0,0,1-.17.08H429a.21.21,0,0,1-.17-.08.27.27,0,0,1-.07-.17V45.3a.24.24,0,0,1,.07-.18A.21.21,0,0,1,429,45h3.67V42.73a3.31,3.31,0,0,1-1.21-1,2.16,2.16,0,0,1-.42-1.31,2.12,2.12,0,0,1,.4-1.26,3.4,3.4,0,0,1,1.11-1,6.35,6.35,0,0,1,1.71-.61,11.42,11.42,0,0,1,4.36,0,6.15,6.15,0,0,1,1.7.61,3.3,3.3,0,0,1,1.11,1,2.12,2.12,0,0,1,.4,1.26,2.16,2.16,0,0,1-.44,1.34,3.39,3.39,0,0,1-1.26,1V45h3.68a.26.26,0,0,1,.17.09.25.25,0,0,1,.08.17v1.07A.29.29,0,0,1,444,46.54Zm-2.16,3.92a2.06,2.06,0,0,1-.37,1.18,3.19,3.19,0,0,1-1.05.92,5.93,5.93,0,0,1-1.7.6,12.59,12.59,0,0,1-4.58,0,5.93,5.93,0,0,1-1.7-.6,3.3,3.3,0,0,1-1.05-.92,2.08,2.08,0,0,1,0-2.34,3.07,3.07,0,0,1,1.05-.92,6.25,6.25,0,0,1,1.7-.59,12,12,0,0,1,4.58,0,6.25,6.25,0,0,1,1.7.59,3,3,0,0,1,1.05.92A2,2,0,0,1,441.85,50.46Zm-5.41-1.41a8.36,8.36,0,0,0-1.5.12,4.11,4.11,0,0,0-1.07.33,2.06,2.06,0,0,0-.67.45.73.73,0,0,0,0,1.06,2.24,2.24,0,0,0,.67.46,4.56,4.56,0,0,0,1.07.32,9.37,9.37,0,0,0,3,0,4.91,4.91,0,0,0,1.09-.32,2.06,2.06,0,0,0,.66-.46.73.73,0,0,0,0-1.06,1.91,1.91,0,0,0-.66-.45,4.4,4.4,0,0,0-1.09-.33A8.32,8.32,0,0,0,436.44,49.05Zm0-10.08a6.49,6.49,0,0,0-1.36.1,4.11,4.11,0,0,0-1.07.31,2.16,2.16,0,0,0-.69.48.81.81,0,0,0,0,1.19,2.15,2.15,0,0,0,.69.47,4.52,4.52,0,0,0,1.07.32,8.14,8.14,0,0,0,1.36.11,8.23,8.23,0,0,0,1.36-.11,4.58,4.58,0,0,0,1.06-.32,2.2,2.2,0,0,0,.7-.47.85.85,0,0,0,.25-.6.8.8,0,0,0-.25-.58,2.18,2.18,0,0,0-.7-.46,5.13,5.13,0,0,0-1.06-.32A7.25,7.25,0,0,0,436.47,39Zm0,4.52q-.51,0-1,0c-.3,0-.59-.06-.89-.1V45h3.62V43.36c-.28,0-.57.08-.86.1S436.79,43.49,436.47,43.49Z"/><path class="cls-1" d="M453.11,42.11a.25.25,0,0,1-.18.08h-7.6a.26.26,0,0,1-.18-.09.26.26,0,0,1-.09-.19v-1a.22.22,0,0,1,.09-.17.26.26,0,0,1,.18-.09h7.6a.27.27,0,0,1,.26.26v1A.25.25,0,0,1,453.11,42.11Zm-3.78.94a3.57,3.57,0,0,1,1.4.27,3.67,3.67,0,0,1,1.1.74,3.11,3.11,0,0,1,.7,1.07,3.72,3.72,0,0,1,0,2.68,3.23,3.23,0,0,1-.7,1.1,3.47,3.47,0,0,1-1.1.73,3.56,3.56,0,0,1-1.4.26,3.61,3.61,0,0,1-1.41-.26,3.27,3.27,0,0,1-1.08-.73,3.23,3.23,0,0,1-.7-1.1,3.72,3.72,0,0,1,0-2.68,3.11,3.11,0,0,1,.7-1.07,3.46,3.46,0,0,1,1.08-.74A3.62,3.62,0,0,1,449.33,43.05Zm2.1-3.49a.25.25,0,0,1-.2.09h-4.08a.25.25,0,0,1-.16-.07.25.25,0,0,1-.09-.2v-1a.2.2,0,0,1,.09-.18.25.25,0,0,1,.16-.07h4.08a.27.27,0,0,1,.27.27v1A.31.31,0,0,1,451.43,39.56Zm-2.1,5a1.72,1.72,0,0,0-.72.15,1.68,1.68,0,0,0-.54.41,1.86,1.86,0,0,0-.34.62,2.18,2.18,0,0,0-.12.72,2.25,2.25,0,0,0,.12.74,2,2,0,0,0,.34.62,1.62,1.62,0,0,0,1.26.58,1.6,1.6,0,0,0,.73-.16,1.58,1.58,0,0,0,.54-.42,2,2,0,0,0,.34-.62,2.25,2.25,0,0,0,.12-.74,2.18,2.18,0,0,0-.12-.72,1.86,1.86,0,0,0-.34-.62,1.68,1.68,0,0,0-.54-.41A1.73,1.73,0,0,0,449.33,44.57Zm7.94-7.18c0-.15.07-.22.23-.22H459c.15,0,.23.07.23.22V53.08c0,.15-.08.22-.23.22h-1.47a.19.19,0,0,1-.22-.22v-8h-1.45v7.38c0,.15-.07.23-.22.23h-1.39a.21.21,0,0,1-.24-.23V37.7c0-.15.08-.22.24-.22h1.39a.19.19,0,0,1,.22.22v5.73h1.45Z"/><path class="cls-1" d="M476,47.39a.25.25,0,0,1-.17.08h-6.4V53c0,.16-.08.23-.24.23h-1.48c-.16,0-.24-.07-.24-.23V47.47H461a.21.21,0,0,1-.17-.08.27.27,0,0,1-.07-.17V46.11a.26.26,0,0,1,.07-.18.21.21,0,0,1,.17-.07h14.8a.25.25,0,0,1,.17.08.26.26,0,0,1,.09.17v1.11A.26.26,0,0,1,476,47.39Zm-13-3a.41.41,0,0,1-.27,0,.3.3,0,0,1-.15-.17l-.39-1a.21.21,0,0,1,.05-.22.42.42,0,0,1,.17-.16c.79-.19,1.57-.41,2.33-.65s1.46-.51,2.12-.78a17.42,17.42,0,0,0,1.78-.87,8.17,8.17,0,0,0,1.32-.91c.12-.1.19-.18.2-.25s-.08-.09-.27-.09h-6.22c-.15,0-.23-.07-.23-.22V37.83c0-.13.08-.2.23-.2h8a2.3,2.3,0,0,1,1.06.21.64.64,0,0,1,.4.55,1.23,1.23,0,0,1-.16.57,5.6,5.6,0,0,1-.3.49,8.15,8.15,0,0,1-2.14,1.88c.3.12.63.23,1,.35l1.06.35c.36.12.71.22,1.06.31s.68.16,1,.22a.27.27,0,0,1,.18.13.23.23,0,0,1,0,.23l-.41,1a.31.31,0,0,1-.37.22c-.34-.07-.72-.17-1.15-.29s-.87-.27-1.32-.44-.93-.34-1.4-.53-.92-.39-1.35-.58a23.61,23.61,0,0,1-2.85,1.18A29.48,29.48,0,0,1,462.94,44.36Z"/><path class="cls-1" d="M478.33,49.44a.34.34,0,0,1-.55,0L477,48.7c-.17-.16-.17-.33,0-.51a8.92,8.92,0,0,0,1.53-1.91,10.71,10.71,0,0,0,1-2.26,14.73,14.73,0,0,0,.54-2.63,28.6,28.6,0,0,0,.16-3c0-.17.07-.25.22-.25l1.41,0a.25.25,0,0,1,.17.07.22.22,0,0,1,.08.18c0,.85,0,1.64-.07,2.36a15.57,15.57,0,0,1-.27,2,8.57,8.57,0,0,0,.52,1.46,11.32,11.32,0,0,0,.76,1.42,12.14,12.14,0,0,0,.88,1.23,6.57,6.57,0,0,0,.89.92c.17.15.19.29.05.44l-.78.8a.31.31,0,0,1-.51,0,4.7,4.7,0,0,1-.72-.65,9.78,9.78,0,0,1-1.37-1.83,9,9,0,0,1-.5-1,10,10,0,0,1-1.12,2A14.32,14.32,0,0,1,478.33,49.44Zm9.3,3.32h-1.4c-.17,0-.25-.08-.25-.24v-8.4h-2.55a.25.25,0,0,1-.16-.06.21.21,0,0,1-.08-.17V42.73a.17.17,0,0,1,.08-.15.24.24,0,0,1,.16,0H486V37.66c0-.14.08-.22.25-.22h1.4a.2.2,0,0,1,.22.22V52.52C487.85,52.68,487.77,52.76,487.63,52.76Zm3.29.58h-1.47a.2.2,0,0,1-.23-.22V37.39c0-.15.08-.22.24-.22h1.46c.15,0,.23.07.23.22V53.12A.2.2,0,0,1,490.92,53.34Z"/><path class="cls-1" d="M507.92,50.46a.22.22,0,0,1-.17.09H493a.2.2,0,0,1-.17-.09.23.23,0,0,1-.07-.17v-1.1q0-.27.24-.27h3.4V46.27c0-.16.08-.24.25-.24h1.46c.17,0,.26.08.26.24v2.65h4.06V46.27c0-.16.09-.24.26-.24h1.46a.24.24,0,0,1,.18.07.21.21,0,0,1,.07.17v2.65h3.4a.25.25,0,0,1,.17.08.26.26,0,0,1,.09.19v1.1A.22.22,0,0,1,507.92,50.46Zm-7.58-5a9.06,9.06,0,0,1-2.12-.24,6.13,6.13,0,0,1-1.77-.71,3.74,3.74,0,0,1-1.21-1.16,3,3,0,0,1-.44-1.6,2.88,2.88,0,0,1,.44-1.57A3.87,3.87,0,0,1,496.45,39a6.13,6.13,0,0,1,1.77-.71,9.06,9.06,0,0,1,2.12-.24,9.26,9.26,0,0,1,2.15.24,5.91,5.91,0,0,1,1.77.71,4,4,0,0,1,1.2,1.17,2.88,2.88,0,0,1,.44,1.57,3,3,0,0,1-.44,1.6,3.81,3.81,0,0,1-1.2,1.16,5.91,5.91,0,0,1-1.77.71A9.26,9.26,0,0,1,500.34,45.47Zm0-5.78a5.8,5.8,0,0,0-1.32.14,4.56,4.56,0,0,0-1.13.41,2.44,2.44,0,0,0-.79.65,1.49,1.49,0,0,0,0,1.79,2.32,2.32,0,0,0,.79.65,4.56,4.56,0,0,0,1.13.41,5.81,5.81,0,0,0,1.32.15,5.7,5.7,0,0,0,1.3-.15,4.56,4.56,0,0,0,1.13-.41,2.32,2.32,0,0,0,.79-.65,1.49,1.49,0,0,0,0-1.79,2.44,2.44,0,0,0-.79-.65,4.56,4.56,0,0,0-1.13-.41A5.69,5.69,0,0,0,500.36,39.69Z"/><path class="cls-1" d="M511.05,52.59a1.31,1.31,0,0,1-1.31-1.31,1.23,1.23,0,0,1,.39-.92,1.29,1.29,0,0,1,2.21.92,1.29,1.29,0,0,1-.37.93A1.26,1.26,0,0,1,511.05,52.59Z"/></g></g></svg>