<svg xmlns="http://www.w3.org/2000/svg" viewBox="0 0 136.68 67.1"><defs><style>.cls-1{fill:none;stroke:#fff;stroke-width:2px;}.cls-2{fill:#fff;}</style></defs><title>Asset 20</title><g id="Layer_2" data-name="Layer 2"><g id="tutorial_design_2" data-name="tutorial design 2"><rect class="cls-1" x="1" y="1" width="134.68" height="65.1" rx="8.9"/><path class="cls-2" d="M38,36.31h2.91c.3,2.38,1.71,3.37,4.32,3.37,2.77,0,4.06-1.06,4.06-2.68,0-1.35-.89-2.11-2.67-2.47l-3.43-.73c-3.3-.69-4.72-2.21-4.72-4.62,0-3,2.14-4.92,6.33-4.92,3.86,0,6.51,1.69,6.93,5.35h-3c-.33-2-1.62-2.94-4-2.94-2.14,0-3.43.73-3.43,2.25,0,1.09.63,1.85,2.64,2.28l3.3.72c3.53.79,5,2.34,5,4.82,0,3.33-2.61,5.38-7.1,5.38C40.77,42.12,38.36,40.2,38,36.31Z"/><path class="cls-2" d="M61.46,32.81,59,35.06v6.63H56V18.19h3V31.92l7.52-7.26h3.83l-6.8,6.27,7.29,10.76H67.27Z"/><path class="cls-2" d="M74.53,18.19h3v3.27h-3Zm0,6.47h3v17h-3Z"/><path class="cls-2" d="M98.39,32.78c0,5.28-2.84,9.27-7.46,9.27a6.21,6.21,0,0,1-5.05-2.44v8.81h-3V24.66h2.64V27.4a6.14,6.14,0,0,1,5.58-3.1C95.39,24.3,98.39,27.63,98.39,32.78Zm-3,0c0-3.9-1.78-5.88-4.72-5.88S85.71,29,85.71,33s2.08,6.47,4.92,6.47S95.35,36.74,95.35,32.78Z"/></g></g></svg>