<svg xmlns="http://www.w3.org/2000/svg" viewBox="0 0 634 768"><defs><style>.cls-1,.cls-2,.cls-3,.cls-4,.cls-5,.cls-7,.cls-9{fill:none;}.cls-1,.cls-2,.cls-3,.cls-4,.cls-5,.cls-6,.cls-7{stroke:#fff;}.cls-1,.cls-2{stroke-width:2.01px;}.cls-2{stroke-linecap:square;}.cls-3{stroke-width:1.34px;}.cls-4{stroke-width:1.27px;}.cls-5{stroke-width:1.32px;}.cls-6,.cls-8{fill:#fff;}.cls-6{stroke-width:2.33px;}.cls-7{stroke-width:0.92px;}</style></defs><g id="Layer_2" data-name="Layer 2"><g id="Layer_2_copy_2" data-name="Layer 2 copy 2"><g id="Layer_1-2" data-name="Layer 1-2"><g id="Group-4"><circle id="Oval-10" class="cls-1" cx="487.72" cy="639.1" r="50.22"/><circle id="Oval-10-2" class="cls-1" cx="487.72" cy="639.1" r="36.16"/></g><path id="Line-29" class="cls-2" d="M488.22,702.38v46.21"/></g><g id="Layer_1-2-2" data-name="Layer 1-2"><g id="Group"><path id="Oval-8" class="cls-3" d="M170,173.31c-24.92-1.75-50.32,17.32-52.2,44.13"/><path id="Rectangle-18" class="cls-4" d="M108.09,216.91l7.11,12.3,12.3-7.1"/></g><rect id="Rectangle-29" class="cls-3" x="87.64" y="116.26" width="103.95" height="172.81"/><rect id="Rectangle-29-2" class="cls-3" x="81.01" y="105.01" width="117.19" height="195.31" rx="5.3"/></g><g id="Layer_1-2-3" data-name="Layer 1-2"><g id="Group-5"><circle id="Oval-10-2-2" data-name="Oval-10" class="cls-5" cx="139.5" cy="668.06" r="19.86"/><circle id="Oval-10-2-3" data-name="Oval-10-2" class="cls-6" cx="139.5" cy="668.06" r="14"/></g><rect id="Rectangle-29-2-2" data-name="Rectangle-29" class="cls-1" x="87.53" y="581.66" width="103.95" height="172.81"/><rect id="Rectangle-29-2-3" data-name="Rectangle-29-2" class="cls-1" x="80.91" y="570.41" width="117.19" height="195.31" rx="5.3"/></g><g id="Layer_1-2-4" data-name="Layer 1-2"><rect id="Rectangle-29-3" data-name="Rectangle-29" class="cls-3" x="435.85" y="116.26" width="103.95" height="172.81"/><rect id="Rectangle-29-2-4" data-name="Rectangle-29-2" class="cls-3" x="429.23" y="105.01" width="117.19" height="195.31" rx="5.3"/></g><polyline class="cls-7" points="469.87 231.97 457.85 231.97 457.85 219.95"/><line class="cls-3" x1="464.48" y1="225.34" x2="479.63" y2="210.18"/><polyline class="cls-7" points="505.78 173.35 517.8 173.35 517.8 185.37"/><line class="cls-3" x1="511.17" y1="179.98" x2="496.02" y2="195.14"/><path class="cls-8" d="M15.8,434.17a4.91,4.91,0,0,1,1.46.21,3.9,3.9,0,0,1,1.19.59,2.68,2.68,0,0,1,.8.91,2.43,2.43,0,0,1,.29,1.16,2.48,2.48,0,0,1-.21,1,2.52,2.52,0,0,1-.6.82,3.13,3.13,0,0,1-.91.6,4.25,4.25,0,0,1-1.13.35v1.43a36.4,36.4,0,0,0,3.92-.41.41.41,0,0,1,.19,0,.16.16,0,0,1,.12.16l.1,1.06a.25.25,0,0,1-.05.2.37.37,0,0,1-.15.08,39,39,0,0,1-4.93.51c-1.7.08-3.37.11-5,.09a.21.21,0,0,1-.17-.08.24.24,0,0,1-.07-.18v-1.1c0-.17.08-.26.24-.26,1.29,0,2.59,0,3.91,0v-1.53a4.3,4.3,0,0,1-1.1-.36,3.94,3.94,0,0,1-.87-.6,2.62,2.62,0,0,1-.56-.81,2.43,2.43,0,0,1,.09-2.16,2.82,2.82,0,0,1,.81-.91,3.9,3.9,0,0,1,1.19-.59A4.82,4.82,0,0,1,15.8,434.17Zm4.55-.65a.24.24,0,0,1-.18.07h-9a.29.29,0,0,1-.17-.08.24.24,0,0,1-.1-.19v-.95a.26.26,0,0,1,.1-.17.3.3,0,0,1,.19-.09h9a.27.27,0,0,1,.26.26v1A.27.27,0,0,1,20.35,433.52Zm-2.16-2.19a.25.25,0,0,1-.2.09H13.44a.31.31,0,0,1-.16-.07.23.23,0,0,1-.1-.21v-1a.22.22,0,0,1,.1-.19.31.31,0,0,1,.16-.07H18a.31.31,0,0,1,.28.28v.95A.3.3,0,0,1,18.19,431.33Zm-2.39,4.35a2.28,2.28,0,0,0-1.36.39,1.14,1.14,0,0,0-.54,1,1.19,1.19,0,0,0,.53,1,2.29,2.29,0,0,0,1.37.39,2.27,2.27,0,0,0,1.37-.39,1.18,1.18,0,0,0,.54-1,1.14,1.14,0,0,0-.54-1A2.27,2.27,0,0,0,15.8,435.68ZM26,437.86a.28.28,0,0,1-.16.07H23.64v7.6a.2.2,0,0,1-.22.22H21.9a.2.2,0,0,1-.22-.22V429.84a.2.2,0,0,1,.22-.23h1.52a.2.2,0,0,1,.22.23v6.46h2.23a.27.27,0,0,1,.16.06.21.21,0,0,1,.07.16v1.19A.21.21,0,0,1,26,437.86Z"/><path class="cls-8" d="M35.14,438.45a1.3,1.3,0,0,1-.91.26h-5a1.47,1.47,0,0,1-1-.26,1.22,1.22,0,0,1-.27-.91v-5.87a1.17,1.17,0,0,1,.27-.89,1.27,1.27,0,0,1,.91-.25h5.13a1.42,1.42,0,0,1,.91.23,1.24,1.24,0,0,1,.26.91v.65h2.89v-2.48a.2.2,0,0,1,.22-.23H40a.2.2,0,0,1,.22.23V441a.2.2,0,0,1-.22.22H38.51a.2.2,0,0,1-.22-.22v-3.81H35.4v.33A1.27,1.27,0,0,1,35.14,438.45Zm-1.66-6.13a.17.17,0,0,0-.22-.22h-3.2a.29.29,0,0,0-.17,0s-.05.08-.05.17v4.62c0,.12,0,.19.05.21a.29.29,0,0,0,.17,0h3.2a.36.36,0,0,0,.18,0s0-.09,0-.21Zm7.18,13.09a.3.3,0,0,1-.16,0H31.66a1.51,1.51,0,0,1-1-.27,1.34,1.34,0,0,1-.27-.94v-3.5a.24.24,0,0,1,.09-.17.22.22,0,0,1,.17-.09h1.44a.25.25,0,0,1,.2.09.27.27,0,0,1,.08.17v2.8a.32.32,0,0,0,.06.23.48.48,0,0,0,.24.05H40.5a.25.25,0,0,1,.16.06.23.23,0,0,1,.08.16v1.2A.19.19,0,0,1,40.66,445.41Zm-2.37-9.76v-1.77H35.4v1.77Z"/><path class="cls-8" d="M53.44,445.2H52a.21.21,0,0,1-.23-.23v-8H50.26a6.8,6.8,0,0,1-.4,1.85,4.86,4.86,0,0,1-.8,1.38,3.3,3.3,0,0,1-1.11.87,3.11,3.11,0,0,1-1.36.3,2.93,2.93,0,0,1-1.48-.37A3.22,3.22,0,0,1,44,440a5.39,5.39,0,0,1-.72-1.68,8.84,8.84,0,0,1-.26-2.22,9.09,9.09,0,0,1,.27-2.35,5,5,0,0,1,.75-1.66,3,3,0,0,1,1.13-1,3.17,3.17,0,0,1,1.44-.32A3.39,3.39,0,0,1,48,431a3.1,3.1,0,0,1,1.14.85,4.37,4.37,0,0,1,.8,1.43,7.43,7.43,0,0,1,.37,2h1.52v-5.22a.2.2,0,0,1,.23-.22h1.4a.2.2,0,0,1,.22.22V445C53.66,445.12,53.59,445.2,53.44,445.2Zm-5-9.13a8,8,0,0,0-.1-1.29,5,5,0,0,0-.32-1.17,2.54,2.54,0,0,0-.57-.85,1.15,1.15,0,0,0-.83-.32,1,1,0,0,0-.76.33,2.51,2.51,0,0,0-.53.86,6.24,6.24,0,0,0-.3,1.17,7.94,7.94,0,0,0-.1,1.27,7.82,7.82,0,0,0,.1,1.26,6.35,6.35,0,0,0,.3,1.18,2.61,2.61,0,0,0,.53.88,1,1,0,0,0,.76.34,1.11,1.11,0,0,0,.82-.34,2.72,2.72,0,0,0,.56-.87,5,5,0,0,0,.33-1.17A7,7,0,0,0,48.42,436.07Zm8.3,9.69H55.24a.19.19,0,0,1-.22-.22v-15.7a.21.21,0,0,1,.24-.23h1.46c.15,0,.22.08.22.23v15.7A.19.19,0,0,1,56.72,445.76Z"/><path class="cls-8" d="M78.48,441.33a.21.21,0,0,1,.08.17v1.12a.28.28,0,0,1-.25.25H63.5a.21.21,0,0,1-.17-.08.29.29,0,0,1-.06-.17V441.5a.28.28,0,0,1,.06-.18.25.25,0,0,1,.17-.08H78.31A.24.24,0,0,1,78.48,441.33Zm-7.93-3.73a.31.31,0,0,1-.16.11,8.77,8.77,0,0,1-1,.13c-.38,0-.76.06-1.14.08l-1.12,0a7.57,7.57,0,0,1-.87,0,1.52,1.52,0,0,1-.87-.33,1,1,0,0,1-.36-.83v-5a1.06,1.06,0,0,1,.3-.85,1.43,1.43,0,0,1,.94-.26h3.8a.2.2,0,0,1,.23.22v1.16c0,.15-.08.22-.23.22H67.29c-.21,0-.32.1-.32.29v3.35a.43.43,0,0,0,.06.26.53.53,0,0,0,.33.11,2,2,0,0,0,.5,0l.77,0,.83-.07c.28,0,.51-.06.71-.09a.33.33,0,0,1,.2,0c.06,0,.09.08.1.17l.14,1A.28.28,0,0,1,70.55,437.6Zm6.22.27a.2.2,0,0,1-.14.06H72.21a1.22,1.22,0,0,1-.94-.31,1.26,1.26,0,0,1-.29-.9v-4.91a1.06,1.06,0,0,1,.3-.88,1.55,1.55,0,0,1,.93-.23h4.25c.17,0,.25.08.25.22v1.16c0,.15-.08.22-.25.22H73.19c-.21,0-.32.1-.32.29V436a.28.28,0,0,0,.08.24.48.48,0,0,0,.24.05h3.35c.19,0,.29.07.29.22v1.12A.28.28,0,0,1,76.77,437.87Z"/><path class="cls-8" d="M94.44,438.94a.22.22,0,0,1-.17.09H79.48a.25.25,0,0,1-.17-.08.33.33,0,0,1-.06-.19v-1.12c0-.16.07-.24.23-.24H94.27a.25.25,0,0,1,.17.08.21.21,0,0,1,.09.16v1.12A.26.26,0,0,1,94.44,438.94Zm-1.9,6.37a.37.37,0,0,1-.17.05H83a1.45,1.45,0,0,1-1-.28,1.34,1.34,0,0,1-.26-.93v-3.69a.28.28,0,0,1,.24-.24h1.46a.25.25,0,0,1,.18.08.23.23,0,0,1,.08.16v3c0,.12,0,.19.06.22a.42.42,0,0,0,.26.05h8.38a.29.29,0,0,1,.17.06.17.17,0,0,1,.08.15v1.22A.17.17,0,0,1,92.54,445.31Zm-.2-9.71a.3.3,0,0,1-.16,0H83.07a1.45,1.45,0,0,1-1-.28,1.39,1.39,0,0,1-.26-.94v-4.27a.28.28,0,0,1,.24-.24h1.48a.25.25,0,0,1,.18.08.21.21,0,0,1,.07.16v3.59a.3.3,0,0,0,.07.22.51.51,0,0,0,.26,0h8.12a.25.25,0,0,1,.16.06.19.19,0,0,1,.08.14v1.21A.2.2,0,0,1,92.34,435.6Z"/><path class="cls-8" d="M111.08,437.87a.51.51,0,0,1-.16.11c-.32.06-.67.1-1.06.14l-1.19.11-1.21.1-1.13.06v2.44a.27.27,0,0,1-.26.26h-1.41a.27.27,0,0,1-.26-.26v-2.31l-1,0-1,0-1,0-.79,0a.19.19,0,0,1-.17-.08.28.28,0,0,1-.07-.19v-1.05a.24.24,0,0,1,.07-.18.21.21,0,0,1,.17-.08l2.55,0c.93,0,1.85-.05,2.77-.09s1.8-.09,2.65-.15,1.58-.14,2.21-.23a.3.3,0,0,1,.18,0,.23.23,0,0,1,.11.16l.12,1A.24.24,0,0,1,111.08,437.87Zm-5.62-8a5,5,0,0,1,1.59.25,4,4,0,0,1,1.24.66,3.29,3.29,0,0,1,.81,1,2.58,2.58,0,0,1,.29,1.19,2.76,2.76,0,0,1-.29,1.24,3.13,3.13,0,0,1-.81,1,4.43,4.43,0,0,1-1.24.66,5,5,0,0,1-1.59.24,4.9,4.9,0,0,1-1.58-.24,4.23,4.23,0,0,1-1.23-.66,2.84,2.84,0,0,1-1.08-2.24,2.57,2.57,0,0,1,.28-1.19,2.86,2.86,0,0,1,.8-1,3.81,3.81,0,0,1,1.23-.66A4.89,4.89,0,0,1,105.46,429.85ZM114,445.41a.33.33,0,0,1-.16,0h-9.64a1.51,1.51,0,0,1-1-.27,1.39,1.39,0,0,1-.26-.94v-2.43a.21.21,0,0,1,.07-.16.27.27,0,0,1,.17-.08h1.46a.25.25,0,0,1,.18.08.21.21,0,0,1,.07.16v1.73c0,.12,0,.19.07.23a.51.51,0,0,0,.26.05h8.67a.27.27,0,0,1,.16.06.21.21,0,0,1,.07.16v1.2A.19.19,0,0,1,114,445.41Zm-8.51-14.06a2.28,2.28,0,0,0-.78.13,1.91,1.91,0,0,0-.65.34,1.5,1.5,0,0,0-.43.51,1.26,1.26,0,0,0-.16.63,1.34,1.34,0,0,0,.16.66,1.5,1.5,0,0,0,.43.51,2.35,2.35,0,0,0,.65.34,2.55,2.55,0,0,0,.78.13,2.52,2.52,0,0,0,.79-.13,2.67,2.67,0,0,0,.65-.34,1.66,1.66,0,0,0,.44-.51,1.46,1.46,0,0,0,.16-.66,1.37,1.37,0,0,0-.16-.63,1.66,1.66,0,0,0-.44-.51,2.12,2.12,0,0,0-.65-.34A2.26,2.26,0,0,0,105.46,431.35Zm8,11h-1.51a.21.21,0,0,1-.23-.23v-1.55h-2.9a.21.21,0,0,1-.16-.07.21.21,0,0,1-.08-.15v-1.07a.19.19,0,0,1,.08-.15.25.25,0,0,1,.16-.06h2.9v-9.19a.21.21,0,0,1,.23-.23h1.51c.15,0,.22.08.22.23v12.24C113.67,442.23,113.6,442.31,113.45,442.31Z"/><path class="cls-8" d="M128.69,437.87a1.38,1.38,0,0,1-.93.26H124.6v3.23H131a.24.24,0,0,1,.17.09.23.23,0,0,1,.08.18v1.11a.28.28,0,0,1-.25.25H116.2a.2.2,0,0,1-.17-.08.31.31,0,0,1-.07-.17v-1.11q0-.27.24-.27h6.45v-3.23H119.5a1.52,1.52,0,0,1-1-.26,1.34,1.34,0,0,1-.26-.93v-5.06a1.18,1.18,0,0,1,.28-.91,1.31,1.31,0,0,1,.93-.27h8.26a1.52,1.52,0,0,1,1,.26,1.31,1.31,0,0,1,.26.93V437A1.21,1.21,0,0,1,128.69,437.87ZM127,432.56c0-.1,0-.15,0-.18a.26.26,0,0,0-.18-.05H120.4a.34.34,0,0,0-.18,0s0,.08,0,.17v3.74c0,.11,0,.18,0,.2a.26.26,0,0,0,.18,0h6.39a.26.26,0,0,0,.18,0s0-.09,0-.2Z"/><path class="cls-8" d="M141.09,434.12a3.86,3.86,0,0,1-.31,1.57,3.61,3.61,0,0,1-.85,1.24,3.85,3.85,0,0,1-1.32.81,4.78,4.78,0,0,1-1.68.29,4.64,4.64,0,0,1-1.67-.29,3.69,3.69,0,0,1-2.12-2.05,4,4,0,0,1-.29-1.57,4,4,0,0,1,.29-1.54,3.87,3.87,0,0,1,.84-1.26,4,4,0,0,1,1.28-.84,4.44,4.44,0,0,1,1.67-.3,4.56,4.56,0,0,1,1.68.3,4.26,4.26,0,0,1,1.32.84,3.89,3.89,0,0,1,.85,1.26A3.82,3.82,0,0,1,141.09,434.12Zm-1.94,0a2.16,2.16,0,0,0-.61-1.62,2.21,2.21,0,0,0-1.61-.6,2.08,2.08,0,0,0-2.2,2.22,2.26,2.26,0,0,0,.61,1.64,2.19,2.19,0,0,0,1.59.61,2.1,2.1,0,0,0,2.22-2.25Zm5.94,8.35a2.37,2.37,0,0,1-.39,1.32,3.37,3.37,0,0,1-1.06,1,5.77,5.77,0,0,1-1.61.66,8.19,8.19,0,0,1-2,.24,8.42,8.42,0,0,1-2.1-.24,5.57,5.57,0,0,1-1.58-.66,3.23,3.23,0,0,1-1-1,2.62,2.62,0,0,1-.35-1.33,2.57,2.57,0,0,1,.35-1.31,3.13,3.13,0,0,1,1-1,5.57,5.57,0,0,1,1.58-.66,8.42,8.42,0,0,1,2.1-.24,8.7,8.7,0,0,1,2,.23,5.48,5.48,0,0,1,1.61.65,3.46,3.46,0,0,1,1.06,1A2.38,2.38,0,0,1,145.09,442.5Zm-2,.05a1.24,1.24,0,0,0-.24-.75,2.15,2.15,0,0,0-.67-.54,3.25,3.25,0,0,0-1-.33,5.5,5.5,0,0,0-1.18-.11,4.61,4.61,0,0,0-2.19.44,1.38,1.38,0,0,0-.83,1.29,1.2,1.2,0,0,0,.22.72,1.64,1.64,0,0,0,.63.51,3.87,3.87,0,0,0,1,.31,6.47,6.47,0,0,0,1.21.11,6.23,6.23,0,0,0,1.18-.11,4,4,0,0,0,1-.31,2.08,2.08,0,0,0,.67-.51A1.16,1.16,0,0,0,143.06,442.55Zm4.33-6.94a.17.17,0,0,1,.08.14v1.19a.19.19,0,0,1-.08.15.23.23,0,0,1-.16.07h-2.31v1.63a.31.31,0,0,1-.07.17.21.21,0,0,1-.16.07h-1.51A.18.18,0,0,1,143,439a.26.26,0,0,1-.07-.18v-8.94c0-.15.07-.23.22-.23h1.51a.21.21,0,0,1,.23.23v2.38h2.31a.33.33,0,0,1,.16,0,.19.19,0,0,1,.08.15v1.19a.23.23,0,0,1-.08.16.24.24,0,0,1-.16.08h-2.31v1.7h2.31A.27.27,0,0,1,147.39,435.61Z"/><path class="cls-8" d="M167.88,440.41a.21.21,0,0,1-.17.08H152.92a.2.2,0,0,1-.17-.08.31.31,0,0,1-.07-.17v-1a.34.34,0,0,1,.07-.19.21.21,0,0,1,.17-.09h6.39v-.9a5.18,5.18,0,0,1-2.66-.79,1.77,1.77,0,0,1-.87-1.42,1.47,1.47,0,0,1,.28-.86,2.44,2.44,0,0,1,.84-.73,5.24,5.24,0,0,1,1.41-.5,11.31,11.31,0,0,1,4,0,5.32,5.32,0,0,1,1.42.5,2.27,2.27,0,0,1,.84.73,1.47,1.47,0,0,1,.28.86,1.75,1.75,0,0,1-.89,1.43,5.53,5.53,0,0,1-2.71.78v.9h6.37a.4.4,0,0,1,.21.1.24.24,0,0,1,.12.18v1A.24.24,0,0,1,167.88,440.41Zm-1.5-7.4a.23.23,0,0,1-.18.09H154.45a.26.26,0,0,1-.17-.09.34.34,0,0,1-.08-.2v-.9a.24.24,0,0,1,.09-.17.26.26,0,0,1,.18-.09H166.2a.25.25,0,0,1,.18.08.24.24,0,0,1,.07.18v.92A.24.24,0,0,1,166.38,433Zm-.9,12.85a.23.23,0,0,1-.16.07h-1.43a.24.24,0,0,1-.18-.07.24.24,0,0,1-.08-.16v-2.59a.26.26,0,0,0-.07-.22.47.47,0,0,0-.25-.05H155a.29.29,0,0,1-.17-.06.17.17,0,0,1-.07-.14v-1.13a.18.18,0,0,1,.07-.15.37.37,0,0,1,.17-.05h9.43a1.21,1.21,0,0,1,.89.26,1.42,1.42,0,0,1,.23.91v3.22A.23.23,0,0,1,165.48,445.86ZM163,431a.23.23,0,0,1-.19.09h-5a.35.35,0,0,1-.16-.07.23.23,0,0,1-.09-.19v-1a.2.2,0,0,1,.09-.18.27.27,0,0,1,.16-.07h5a.27.27,0,0,1,.27.27v.93A.24.24,0,0,1,163,431Zm-2.67,3.89a5.37,5.37,0,0,0-2,.29c-.46.18-.69.41-.69.68s.23.49.69.67a6.94,6.94,0,0,0,4,0c.46-.18.69-.41.69-.67s-.23-.5-.69-.68A5.36,5.36,0,0,0,160.32,434.88Z"/><path class="cls-8" d="M168.73,439a.29.29,0,0,1-.07-.18v-1.11a.29.29,0,0,1,.07-.18.22.22,0,0,1,.17-.07h14.81a.27.27,0,0,1,.17.08.24.24,0,0,1,.08.17v1.11a.28.28,0,0,1-.08.18.24.24,0,0,1-.17.09H168.9A.21.21,0,0,1,168.73,439Zm7.62-2.9a10.64,10.64,0,0,1-2.19-.21,6.49,6.49,0,0,1-1.7-.61,3.14,3.14,0,0,1-1.12-1,2.28,2.28,0,0,1-.4-1.31,2.33,2.33,0,0,1,.4-1.31,3.07,3.07,0,0,1,1.12-1,6.49,6.49,0,0,1,1.7-.61,10.64,10.64,0,0,1,2.19-.21,10.38,10.38,0,0,1,2.17.21,6.49,6.49,0,0,1,1.7.61,3.07,3.07,0,0,1,1.12,1,2.33,2.33,0,0,1,.4,1.31,2.28,2.28,0,0,1-.4,1.31,3.14,3.14,0,0,1-1.12,1,6.49,6.49,0,0,1-1.7.61A10.38,10.38,0,0,1,176.35,436.06Zm5.68,9.16a.34.34,0,0,1-.17,0h-9.47a1.45,1.45,0,0,1-1-.27,1.33,1.33,0,0,1-.26-.95v-3.69a.21.21,0,0,1,.07-.16.24.24,0,0,1,.16-.08h1.47a.25.25,0,0,1,.17.08.23.23,0,0,1,.08.16v3a.26.26,0,0,0,.07.22.47.47,0,0,0,.25.05h8.49a.32.32,0,0,1,.17.06.19.19,0,0,1,.08.14v1.23A.15.15,0,0,1,182,445.22Zm-5.68-13.8a7.13,7.13,0,0,0-1.36.11,4.6,4.6,0,0,0-1.06.31,2,2,0,0,0-.7.49,1,1,0,0,0-.25.63.88.88,0,0,0,.25.62,2,2,0,0,0,.7.49,4.6,4.6,0,0,0,1.06.31,7.13,7.13,0,0,0,1.36.11,7,7,0,0,0,1.34-.11,4.6,4.6,0,0,0,1.06-.31,2,2,0,0,0,.7-.49.92.92,0,0,0,.25-.62,1,1,0,0,0-.25-.63,2,2,0,0,0-.7-.49,4.6,4.6,0,0,0-1.06-.31A7,7,0,0,0,176.35,431.42Z"/><path class="cls-8" d="M197.89,437.6a1.43,1.43,0,0,1-1,.28H192a1.51,1.51,0,0,1-1-.26,1.26,1.26,0,0,1-.27-.93v-6.31a.19.19,0,0,1,.22-.22h1.48a.21.21,0,0,1,.16.07.19.19,0,0,1,.08.15v2.31h3.6v-2.33a.22.22,0,0,1,.07-.17.23.23,0,0,1,.15-.07h1.5a.23.23,0,0,1,.15.07.22.22,0,0,1,.07.17v6.38A1.22,1.22,0,0,1,197.89,437.6Zm4.64,4.92a2.44,2.44,0,0,1-.38,1.31,3.57,3.57,0,0,1-1.06,1,5.65,5.65,0,0,1-1.61.66,8,8,0,0,1-2,.24,8.94,8.94,0,0,1-2.1-.23,5,5,0,0,1-1.58-.66,3,3,0,0,1-1-1,2.65,2.65,0,0,1,0-2.63,3,3,0,0,1,1-1,5.45,5.45,0,0,1,1.58-.66,8.42,8.42,0,0,1,2.1-.24,8.55,8.55,0,0,1,2,.23,5.65,5.65,0,0,1,1.61.66,3.43,3.43,0,0,1,1.06,1A2.4,2.4,0,0,1,202.53,442.52Zm-6.31-8.25h-3.6V436a.26.26,0,0,0,.3.29h3a.26.26,0,0,0,.3-.29Zm4.3,8.3a1.19,1.19,0,0,0-.24-.74,2.15,2.15,0,0,0-.67-.54,4.09,4.09,0,0,0-1-.33,6.31,6.31,0,0,0-1.18-.11,4.73,4.73,0,0,0-2.19.44,1.35,1.35,0,0,0-.83,1.28,1.3,1.3,0,0,0,.85,1.21,4.88,4.88,0,0,0,2.17.42,6.33,6.33,0,0,0,1.18-.1,3.68,3.68,0,0,0,1-.31,1.84,1.84,0,0,0,.67-.51A1.11,1.11,0,0,0,200.52,442.57Zm4.33-7.23a.23.23,0,0,1-.16.07h-2.31v3.42a.26.26,0,0,1-.07.16.23.23,0,0,1-.16.08h-1.51a.19.19,0,0,1-.15-.08.24.24,0,0,1-.07-.18v-9c0-.15.07-.23.22-.23h1.51a.21.21,0,0,1,.23.23v4h2.31a.27.27,0,0,1,.16.06.17.17,0,0,1,.08.14v1.19A.19.19,0,0,1,204.85,435.34Z"/><path class="cls-8" d="M215.29,433.31a.25.25,0,0,1-.18.08H206a.26.26,0,0,1-.19-.09.24.24,0,0,1-.09-.18v-1a.24.24,0,0,1,.1-.17.24.24,0,0,1,.19-.1h9.1a.23.23,0,0,1,.18.09.26.26,0,0,1,.07.18v1A.24.24,0,0,1,215.29,433.31Zm-4.6.57a4.84,4.84,0,0,1,1.45.21,3.74,3.74,0,0,1,1.17.56,2.89,2.89,0,0,1,.77.9,2.36,2.36,0,0,1,.28,1.15,2.45,2.45,0,0,1-.28,1.18,2.66,2.66,0,0,1-.78.89,4.17,4.17,0,0,1-1.18.57,5.28,5.28,0,0,1-2.88,0,4,4,0,0,1-1.15-.57,2.66,2.66,0,0,1-.78-.89,2.57,2.57,0,0,1-.28-1.18,2.47,2.47,0,0,1,.28-1.15,2.79,2.79,0,0,1,.78-.9,3.68,3.68,0,0,1,1.16-.56A4.82,4.82,0,0,1,210.69,433.88Zm2.39-2.69a.28.28,0,0,1-.22.09h-4.53a.29.29,0,0,1-.17-.07.23.23,0,0,1-.09-.2v-1a.23.23,0,0,1,.09-.19.38.38,0,0,1,.17-.07h4.53a.29.29,0,0,1,.21.09.29.29,0,0,1,.08.19V431A.32.32,0,0,1,213.08,431.19Zm5.44,11.67a1.87,1.87,0,0,1-.38,1.15,3,3,0,0,1-1,.9,5.74,5.74,0,0,1-1.61.58,9.27,9.27,0,0,1-2,.21,9.54,9.54,0,0,1-2.09-.21,5.49,5.49,0,0,1-1.59-.58,2.83,2.83,0,0,1-1-.9,2,2,0,0,1-.35-1.15,2,2,0,0,1,.35-1.14,3,3,0,0,1,1-.89,5.8,5.8,0,0,1,1.59-.57,9.54,9.54,0,0,1,2.09-.21,9.27,9.27,0,0,1,2,.21,6.07,6.07,0,0,1,1.61.57,3.22,3.22,0,0,1,1,.89A1.82,1.82,0,0,1,218.52,442.86Zm-7.83-7.5a2.16,2.16,0,0,0-1.29.37,1.11,1.11,0,0,0-.53,1,1.15,1.15,0,0,0,.53,1,2.51,2.51,0,0,0,2.59,0,1.19,1.19,0,0,0,.52-1,1.15,1.15,0,0,0-.52-1A2.17,2.17,0,0,0,210.69,435.36Zm5.83,7.55a.82.82,0,0,0-.25-.6,1.88,1.88,0,0,0-.67-.45,4.23,4.23,0,0,0-1-.26,7.34,7.34,0,0,0-1.18-.09,5.74,5.74,0,0,0-2.18.35,1.14,1.14,0,0,0-.83,1.05c0,.44.28.77.84,1a6.08,6.08,0,0,0,2.17.33,8.76,8.76,0,0,0,1.18-.08,3.79,3.79,0,0,0,1-.25,2,2,0,0,0,.67-.4A.76.76,0,0,0,216.52,442.91Zm4.33-6.83a.18.18,0,0,1,.07.15v1.2a.21.21,0,0,1-.07.16.34.34,0,0,1-.18.07h-2.3v1.9a.19.19,0,0,1-.22.22h-1.51c-.15,0-.22-.08-.22-.24v-9.7c0-.15.07-.23.22-.23h1.51c.15,0,.22.08.22.23v3.07h2.3a.32.32,0,0,1,.18.06.18.18,0,0,1,.07.15v1.19a.21.21,0,0,1-.07.15.34.34,0,0,1-.18.07h-2.3V436h2.3A.32.32,0,0,1,220.85,436.08Z"/><path class="cls-8" d="M234.87,438.33a.24.24,0,0,1-.18.07h-2.11v3h3.83a.24.24,0,0,1,.17.09.21.21,0,0,1,.08.17v1.12a.28.28,0,0,1-.25.25H221.6a.2.2,0,0,1-.17-.08.31.31,0,0,1-.07-.17v-1.12a.29.29,0,0,1,.07-.18.23.23,0,0,1,.17-.08h3.83v-3h-2.11a.24.24,0,0,1-.18-.08.29.29,0,0,1-.09-.21v-1a.26.26,0,0,1,.09-.17.29.29,0,0,1,.18-.08h1.94v-4.52h-1.62a.26.26,0,0,1-.18-.09.24.24,0,0,1-.11-.2v-1c0-.06,0-.11.11-.17a.26.26,0,0,1,.18-.09h10.73a.25.25,0,0,1,.18.08.24.24,0,0,1,.07.18v1a.26.26,0,0,1-.07.19.25.25,0,0,1-.18.08h-1.62v4.52h1.94a.25.25,0,0,1,.18.08.25.25,0,0,1,.08.17v1A.28.28,0,0,1,234.87,438.33Zm-7.71-6v4.52h3.69v-4.52Zm3.47,9v-3h-3.25v3Z"/><path class="cls-8" d="M239.28,442a.4.4,0,0,1-.59,0l-.79-.74c-.18-.16-.16-.34.06-.53a11.36,11.36,0,0,0,1.87-2.23,11.76,11.76,0,0,0,1.27-2.62c.14-.4.25-.81.35-1.21s.17-.81.24-1.23a12.85,12.85,0,0,0,.12-1.29c0-.45,0-.92,0-1.42a.27.27,0,0,1,.08-.18.21.21,0,0,1,.16-.07l1.51.05a.19.19,0,0,1,.16.08.27.27,0,0,1,.06.17c0,.68,0,1.32-.07,1.91s-.12,1.15-.21,1.7A7.31,7.31,0,0,0,244,436a11.68,11.68,0,0,0,.85,1.56,13.37,13.37,0,0,0,1.05,1.37A9.93,9.93,0,0,0,247,440c.19.13.2.31,0,.52l-.72.87a.3.3,0,0,1-.23.14.4.4,0,0,1-.29-.1,8.9,8.9,0,0,1-.89-.8c-.3-.32-.6-.67-.89-1a12.36,12.36,0,0,1-.79-1.15,8.1,8.1,0,0,1-.58-1.13,11.43,11.43,0,0,1-.7,1.4,14.28,14.28,0,0,1-.84,1.29c-.3.41-.61.78-.92,1.13A9.55,9.55,0,0,1,239.28,442Zm11.77,3.54c0,.14-.08.22-.24.22h-1.5a.27.27,0,0,1-.16-.06.21.21,0,0,1-.08-.16V429.84a.23.23,0,0,1,.08-.16.28.28,0,0,1,.16-.07h1.5a.21.21,0,0,1,.24.23Z"/><path class="cls-8" d="M253.32,437.62v-1.09a.34.34,0,0,1,.07-.18.22.22,0,0,1,.17-.07h14.81a.27.27,0,0,1,.17.08.24.24,0,0,1,.08.17v1.09a.19.19,0,0,1-.08.16.27.27,0,0,1-.17.08H253.56A.21.21,0,0,1,253.32,437.62Zm13-5.23a2.06,2.06,0,0,1-.35,1.14,2.74,2.74,0,0,1-1,.92,5.72,5.72,0,0,1-1.67.6,11.52,11.52,0,0,1-4.58,0,5.72,5.72,0,0,1-1.67-.6,2.82,2.82,0,0,1-1-.92,2.06,2.06,0,0,1-.35-1.14,2.13,2.13,0,0,1,.35-1.16,3,3,0,0,1,1-.94,6.34,6.34,0,0,1,1.67-.62,11.52,11.52,0,0,1,4.58,0,6.34,6.34,0,0,1,1.67.62,3,3,0,0,1,1,.94A2.13,2.13,0,0,1,266.33,432.39Zm.18,13.08a.21.21,0,0,1-.15.07h-9.48a1.32,1.32,0,0,1-.9-.23,1.08,1.08,0,0,1-.24-.79v-2a1.07,1.07,0,0,1,.23-.78,1.23,1.23,0,0,1,.89-.24h7.21c.09,0,.15,0,.17,0s0-.08,0-.2v-.51a.53.53,0,0,0,0-.23.33.33,0,0,0-.19,0h-8.11a.27.27,0,0,1-.16-.06.19.19,0,0,1-.08-.14v-1.14a.19.19,0,0,1,.08-.15.23.23,0,0,1,.16-.07H265a1.42,1.42,0,0,1,.92.21,1,1,0,0,1,.23.79v2a1,1,0,0,1-.23.8,1.5,1.5,0,0,1-.92.2h-7.18a.3.3,0,0,0-.17,0,.43.43,0,0,0,0,.2v.58a.31.31,0,0,0,0,.18.66.66,0,0,0,.19,0h8.47a.23.23,0,0,1,.16.07.22.22,0,0,1,.07.17v1.11A.23.23,0,0,1,266.51,445.47ZM261,430.92a8.05,8.05,0,0,0-1.36.11,4.58,4.58,0,0,0-1.06.32,2.09,2.09,0,0,0-.7.47.91.91,0,0,0-.25.58.8.8,0,0,0,.25.56,2.23,2.23,0,0,0,.7.45,4.61,4.61,0,0,0,1.06.3,9.23,9.23,0,0,0,2.71,0,4.56,4.56,0,0,0,1.07-.3,2.12,2.12,0,0,0,.7-.45.86.86,0,0,0,.25-.57.82.82,0,0,0-.25-.57,2,2,0,0,0-.7-.47,4.52,4.52,0,0,0-1.07-.32A8,8,0,0,0,261,430.92Z"/><path class="cls-8" d="M59.92,474.66a.25.25,0,0,1-.17.08H53.33V476h3.13a1.35,1.35,0,0,1,.92.22,1,1,0,0,1,.23.79V479a1,1,0,0,1-.23.8,1.43,1.43,0,0,1-.92.2H49.3c-.09,0-.15,0-.17.05a.36.36,0,0,0,0,.19v.53a.31.31,0,0,0,0,.18.56.56,0,0,0,.19,0h8.45a.27.27,0,0,1,.17.07.23.23,0,0,1,.08.17v1.11a.24.24,0,0,1-.08.16.25.25,0,0,1-.16.07H48.31a1.34,1.34,0,0,1-.9-.23,1.08,1.08,0,0,1-.24-.79v-1.93a1.13,1.13,0,0,1,.23-.79,1.32,1.32,0,0,1,.9-.23h7.2a.29.29,0,0,0,.17,0s0-.08,0-.2v-.47c0-.13,0-.2,0-.22s-.08,0-.18,0H47.36a.25.25,0,0,1-.16-.06.23.23,0,0,1-.08-.16v-1.14a.22.22,0,0,1,.08-.15.26.26,0,0,1,.16-.07h4v-1.29H45a.21.21,0,0,1-.24-.24v-1.05a.28.28,0,0,1,.07-.19.21.21,0,0,1,.17-.08h14.8a.22.22,0,0,1,.17.09.26.26,0,0,1,.09.18v1.05A.21.21,0,0,1,59.92,474.66ZM57.81,472a.33.33,0,0,1-.16,0h-9.1a1.46,1.46,0,0,1-1-.27,1.3,1.3,0,0,1-.27-.94v-4.06a.28.28,0,0,1,.24-.24H49a.25.25,0,0,1,.18.08.21.21,0,0,1,.07.16v3.4a.29.29,0,0,0,.07.22.42.42,0,0,0,.26.05h8.11a.28.28,0,0,1,.16.07.21.21,0,0,1,.07.15v1.18A.17.17,0,0,1,57.81,472Z"/><path class="cls-8" d="M70.35,478.23a.41.41,0,0,1-.23.13,15.54,15.54,0,0,1-1.59.26l-1.85.17c-.63,0-1.24.07-1.84.08H63.27a1.59,1.59,0,0,1-1-.3,1.3,1.3,0,0,1-.28-.92v-4.12a1.14,1.14,0,0,1,.3-.88,1.3,1.3,0,0,1,.89-.27h3.4a.27.27,0,0,0,.19-.05s.05-.09.05-.21v-2.43a.44.44,0,0,0,0-.19s-.09-.05-.21-.05H62.27a.25.25,0,0,1-.16-.06.23.23,0,0,1-.08-.16v-1.17a.17.17,0,0,1,.08-.14.25.25,0,0,1,.16-.06h5.3a1.25,1.25,0,0,1,1,.27,1.43,1.43,0,0,1,.22.88v3.83a1.14,1.14,0,0,1-.27.88,1.45,1.45,0,0,1-.94.24H64.16a.21.21,0,0,0-.24.24v2.73c0,.2.1.29.31.29q1.29,0,2.7-.09c.94-.07,1.94-.19,3-.35a.21.21,0,0,1,.19.06.42.42,0,0,1,.11.21l.17,1A.21.21,0,0,1,70.35,478.23Zm3.92,4.52H72.76a.2.2,0,0,1-.22-.22v-8.47H69.77a.25.25,0,0,1-.16-.06.2.2,0,0,1-.06-.14v-1.21a.2.2,0,0,1,.06-.15.21.21,0,0,1,.16-.07h2.77v-5.59c0-.15.07-.23.22-.23h1.51c.15,0,.22.08.22.23v15.69A.2.2,0,0,1,74.27,482.75Z"/><path class="cls-8" d="M96.63,475a.24.24,0,0,1-.17.08H81.67a.19.19,0,0,1-.17-.08.25.25,0,0,1-.07-.17v-1.11a.26.26,0,0,1,.07-.18.2.2,0,0,1,.17-.09h5.85v-2.7c0-.16.07-.24.23-.24h1.48a.21.21,0,0,1,.24.24v2.7h6.92a.31.31,0,0,1,.2.1c.08.06.12.12.12.17v1.11A.27.27,0,0,1,96.63,475Zm-2.15,4.42a2.46,2.46,0,0,1-.36,1.29,3.36,3.36,0,0,1-1.05,1,5.91,5.91,0,0,1-1.7.69,11,11,0,0,1-4.58,0,5.91,5.91,0,0,1-1.7-.69,3.26,3.26,0,0,1-1-1,2.42,2.42,0,0,1,0-2.57,3.21,3.21,0,0,1,1-1,5.64,5.64,0,0,1,1.7-.68,10.61,10.61,0,0,1,4.58,0,5.64,5.64,0,0,1,1.7.68,3.31,3.31,0,0,1,1.05,1A2.46,2.46,0,0,1,94.48,479.45Zm0-11.25c0,.22,0,.53,0,.92s-.05.8-.08,1.21-.08.81-.12,1.18a7.27,7.27,0,0,1-.14.83.55.55,0,0,1-.12.24.26.26,0,0,1-.23.09l-1.31-.12q-.25,0-.21-.36c0-.19.07-.43.11-.72s.06-.59.08-.89l.06-.87c0-.28,0-.51,0-.68s0-.26-.11-.3a.79.79,0,0,0-.35-.06H84.15a.29.29,0,0,1-.17-.06.17.17,0,0,1-.09-.14v-1.19a.18.18,0,0,1,.09-.16.37.37,0,0,1,.17-.05h9.2a1.34,1.34,0,0,1,.78.25A1,1,0,0,1,94.47,468.2Zm-5.39,9.5a6.1,6.1,0,0,0-1.5.16,4.2,4.2,0,0,0-1.08.42,2.09,2.09,0,0,0-.66.57,1.06,1.06,0,0,0-.23.62,1.08,1.08,0,0,0,.23.62,2.09,2.09,0,0,0,.66.57,3.87,3.87,0,0,0,1.08.41,6.1,6.1,0,0,0,1.5.16,6.19,6.19,0,0,0,1.49-.16,3.75,3.75,0,0,0,1.08-.41,2.26,2.26,0,0,0,.67-.57,1.08,1.08,0,0,0,.23-.62,1.06,1.06,0,0,0-.23-.62,2.26,2.26,0,0,0-.67-.57,4.06,4.06,0,0,0-1.08-.42A6.19,6.19,0,0,0,89.08,477.7Z"/><path class="cls-8" d="M99,476.58c-.26.1-.45.05-.56-.16l-.48-.86a.39.39,0,0,1,0-.28c0-.09.1-.16.22-.22a12.76,12.76,0,0,0,3.62-2.37,6.88,6.88,0,0,0,1.87-3,1.42,1.42,0,0,0,.09-.37c0-.07-.11-.1-.32-.1H98.75a.19.19,0,0,1-.16-.08.28.28,0,0,1-.06-.18v-1.14a.21.21,0,0,1,.24-.24h5.76a1.78,1.78,0,0,1,1.06.24.94.94,0,0,1,.3.78c0,.06,0,.13,0,.22s0,.19-.05.28,0,.19-.06.26a.91.91,0,0,1,0,.16,10.11,10.11,0,0,1-2.35,4.17A13,13,0,0,1,99,476.58Zm12,5.83a.41.41,0,0,1-.17,0h-9a1.49,1.49,0,0,1-1-.27,1.34,1.34,0,0,1-.27-.94v-3.76a.24.24,0,0,1,.08-.16.27.27,0,0,1,.17-.07h1.45a.28.28,0,0,1,.19.07.24.24,0,0,1,.08.16v3.06c0,.12,0,.19.07.23a.43.43,0,0,0,.24.05h8a.32.32,0,0,1,.17.06.23.23,0,0,1,.08.16v1.2A.19.19,0,0,1,111,482.41Zm1.89-9.11a.28.28,0,0,1-.18.06H110.4v4.49c0,.15-.08.22-.24.22h-1.5a.23.23,0,0,1-.16-.07.19.19,0,0,1-.08-.15v-11a.23.23,0,0,1,.08-.16.28.28,0,0,1,.16-.07h1.5a.21.21,0,0,1,.24.23v4.89h2.29a.28.28,0,0,1,.18.06.19.19,0,0,1,.08.15v1.2A.23.23,0,0,1,112.87,473.3Z"/><path class="cls-8" d="M113.39,474.62v-1.09a.27.27,0,0,1,.07-.18.21.21,0,0,1,.17-.07h14.8a.25.25,0,0,1,.17.08.26.26,0,0,1,.09.17v1.09a.21.21,0,0,1-.09.16.25.25,0,0,1-.17.08h-14.8A.21.21,0,0,1,113.39,474.62Zm13-5.23a2.05,2.05,0,0,1-.34,1.14,2.9,2.9,0,0,1-1,.92,5.79,5.79,0,0,1-1.68.6,11.47,11.47,0,0,1-4.57,0,5.9,5.9,0,0,1-1.68-.6,2.78,2.78,0,0,1-1-.92,2,2,0,0,1-.35-1.14,2,2,0,0,1,.35-1.16,3,3,0,0,1,1-.94,6.56,6.56,0,0,1,1.68-.62,11.47,11.47,0,0,1,4.57,0,6.42,6.42,0,0,1,1.68.62,3.15,3.15,0,0,1,1,.94A2.12,2.12,0,0,1,126.39,469.39Zm.18,13.08a.21.21,0,0,1-.14.07h-9.49a1.34,1.34,0,0,1-.9-.23,1.08,1.08,0,0,1-.24-.79v-2a1.12,1.12,0,0,1,.23-.78,1.25,1.25,0,0,1,.89-.24h7.21c.09,0,.15,0,.17,0s0-.08,0-.2v-.51a.38.38,0,0,0,0-.23.29.29,0,0,0-.18,0H116a.25.25,0,0,1-.16-.06.16.16,0,0,1-.08-.14v-1.14a.17.17,0,0,1,.08-.15A.21.21,0,0,1,116,476h9.09a1.43,1.43,0,0,1,.93.21,1.08,1.08,0,0,1,.23.79v2a1.07,1.07,0,0,1-.23.8,1.51,1.51,0,0,1-.93.2h-7.17a.27.27,0,0,0-.17,0,.31.31,0,0,0,0,.2v.58c0,.1,0,.16,0,.18a.53.53,0,0,0,.18,0h8.47a.21.21,0,0,1,.16.07.23.23,0,0,1,.08.17v1.11A.24.24,0,0,1,126.57,482.47Zm-5.51-14.55a8,8,0,0,0-1.36.11,4.67,4.67,0,0,0-1.07.32,1.94,1.94,0,0,0-.69.47.86.86,0,0,0-.25.58.76.76,0,0,0,.25.56,2.06,2.06,0,0,0,.69.45,4.71,4.71,0,0,0,1.07.3,8,8,0,0,0,1.36.1,8.23,8.23,0,0,0,1.35-.1,4.71,4.71,0,0,0,1.07-.3,2.23,2.23,0,0,0,.7-.45.85.85,0,0,0,.24-.57.81.81,0,0,0-.24-.57,2.09,2.09,0,0,0-.7-.47,4.67,4.67,0,0,0-1.07-.32A8.2,8.2,0,0,0,121.06,467.92Z"/><path class="cls-8" d="M139.42,478.84a3.8,3.8,0,0,1-1.76-.41,3.7,3.7,0,0,1-1.31-1.15,5.58,5.58,0,0,1-.83-1.77,9.23,9.23,0,0,1,0-4.59,5.32,5.32,0,0,1,.83-1.76,3.65,3.65,0,0,1,1.31-1.13,4.07,4.07,0,0,1,3.52,0,3.7,3.7,0,0,1,1.3,1.13,5.13,5.13,0,0,1,.83,1.76,9.35,9.35,0,0,1,0,4.62,5.37,5.37,0,0,1-.83,1.77,3.8,3.8,0,0,1-1.3,1.13A3.9,3.9,0,0,1,139.42,478.84Zm2.26-5.61a6.54,6.54,0,0,0-.16-1.49,4.56,4.56,0,0,0-.44-1.23,2.66,2.66,0,0,0-.7-.84,1.61,1.61,0,0,0-1-.3,1.57,1.57,0,0,0-1,.3,2.56,2.56,0,0,0-.71.84,4.56,4.56,0,0,0-.44,1.23,7.16,7.16,0,0,0-.16,1.49,7,7,0,0,0,.16,1.47,4.76,4.76,0,0,0,.44,1.24,2.5,2.5,0,0,0,.71.85,1.51,1.51,0,0,0,1,.31,1.55,1.55,0,0,0,1-.31,2.6,2.6,0,0,0,.7-.85,4.76,4.76,0,0,0,.44-1.24A6.43,6.43,0,0,0,141.68,473.23Zm6.13,9.3a.2.2,0,0,1-.22.22h-1.51a.2.2,0,0,1-.22-.22V466.84c0-.15.07-.23.22-.23h1.51c.15,0,.22.08.22.23Z"/><path class="cls-8" d="M163,472.49a.2.2,0,0,1-.15.06h-4.16v1.75h6.41a.28.28,0,0,1,.25.25v1.13a.28.28,0,0,1-.25.25H150.35a.21.21,0,0,1-.17-.08.23.23,0,0,1-.07-.17v-1.13a.23.23,0,0,1,.07-.17.19.19,0,0,1,.17-.08h6.42v-1.75h-3a1.19,1.19,0,0,1-1-.31,1.26,1.26,0,0,1-.28-.9V468a1.1,1.1,0,0,1,.29-.88,1.56,1.56,0,0,1,.94-.23h8.94c.16,0,.24.08.24.22v1.16a.21.21,0,0,1-.24.24h-7.87c-.22,0-.32.09-.32.29v1.83a.36.36,0,0,0,.06.22.31.31,0,0,0,.26.09h7.95a.55.55,0,0,1,.21,0,.2.2,0,0,1,.07.17v1.14A.28.28,0,0,1,163,472.49Zm.06,7.35a2.38,2.38,0,0,1-1.39,2.16,10.75,10.75,0,0,1-7.94,0,2.37,2.37,0,0,1,0-4.31,10.62,10.62,0,0,1,7.94,0A2.39,2.39,0,0,1,163.1,479.84Zm-5.36-1.43a6.08,6.08,0,0,0-2.56.42c-.57.28-.86.62-.86,1s.29.73.86,1a6.08,6.08,0,0,0,2.56.42,6,6,0,0,0,2.56-.42c.57-.28.86-.62.86-1s-.29-.75-.86-1A6,6,0,0,0,157.74,478.41Z"/><path class="cls-8" d="M174.43,471.55a.25.25,0,0,1-.18.08h-7.6a.26.26,0,0,1-.18-.09.23.23,0,0,1-.09-.18v-1a.24.24,0,0,1,.09-.17.24.24,0,0,1,.18-.08h7.6a.24.24,0,0,1,.25.25v1.05A.24.24,0,0,1,174.43,471.55Zm-3.79.95a3.62,3.62,0,0,1,1.41.27,3.31,3.31,0,0,1,1.09.73,3.27,3.27,0,0,1,.71,1.08,3.66,3.66,0,0,1,.25,1.33,3.77,3.77,0,0,1-.25,1.35,3.21,3.21,0,0,1-.71,1.09,3,3,0,0,1-1.09.73,3.62,3.62,0,0,1-1.41.27,3.57,3.57,0,0,1-1.4-.27,3,3,0,0,1-1.09-.73,3.16,3.16,0,0,1-.69-1.09,3.56,3.56,0,0,1-.25-1.35,3.46,3.46,0,0,1,.25-1.33,3.22,3.22,0,0,1,.69-1.08,3.31,3.31,0,0,1,1.09-.73A3.57,3.57,0,0,1,170.64,472.5Zm2.1-3.5a.22.22,0,0,1-.19.1h-4.08a.27.27,0,0,1-.16-.08.23.23,0,0,1-.1-.2v-1a.22.22,0,0,1,.1-.19.31.31,0,0,1,.16-.07h4.08a.26.26,0,0,1,.19.09.27.27,0,0,1,.08.18v1A.29.29,0,0,1,172.74,469Zm-2.1,5a1.67,1.67,0,0,0-.71.15,1.49,1.49,0,0,0-.54.42,1.82,1.82,0,0,0-.34.61,2.18,2.18,0,0,0-.12.72,2.25,2.25,0,0,0,.12.74,1.86,1.86,0,0,0,.34.62,1.41,1.41,0,0,0,.54.43,1.67,1.67,0,0,0,.71.15,1.75,1.75,0,0,0,.74-.15,1.49,1.49,0,0,0,.54-.43,1.86,1.86,0,0,0,.34-.62,2.25,2.25,0,0,0,.12-.74,2.18,2.18,0,0,0-.12-.72,1.82,1.82,0,0,0-.34-.61,1.58,1.58,0,0,0-.54-.42A1.75,1.75,0,0,0,170.64,474Zm7.94-7.17a.21.21,0,0,1,.24-.23h1.46c.15,0,.22.08.22.23v15.69a.2.2,0,0,1-.22.22H178.8a.2.2,0,0,1-.22-.22v-8h-1.44v7.38c0,.16-.08.24-.22.24h-1.4c-.16,0-.23-.08-.23-.24V467.14c0-.15.07-.22.23-.22h1.4a.2.2,0,0,1,.22.22v5.73h1.44Z"/><path class="cls-8" d="M197.28,479.91a.21.21,0,0,1-.17.08h-14.8a.19.19,0,0,1-.17-.08.25.25,0,0,1-.07-.17v-1.11a.26.26,0,0,1,.07-.18.2.2,0,0,1,.17-.09h6.42v-3.11h-3.11a1.52,1.52,0,0,1-1-.25,1.31,1.31,0,0,1-.27-1v-6.49a.18.18,0,0,1,.07-.15.25.25,0,0,1,.15,0h1.5a.33.33,0,0,1,.16,0,.18.18,0,0,1,.07.15V470h6.84v-2.42a.19.19,0,0,1,.07-.15.18.18,0,0,1,.15-.07h1.51a.21.21,0,0,1,.16.07.22.22,0,0,1,.06.15v6.58a1.19,1.19,0,0,1-.27.85,1.36,1.36,0,0,1-1,.29h-3.11v3.11h6.42a.21.21,0,0,1,.17.1.26.26,0,0,1,.09.17v1.11A.24.24,0,0,1,197.28,479.91Zm-4.16-8.38h-6.84v1.83c0,.2.11.29.31.29h6.22c.21,0,.31-.09.31-.29Z"/><path class="cls-8" d="M199.65,478.89a.35.35,0,0,1-.55,0l-.76-.75a.31.31,0,0,1,0-.51,8.3,8.3,0,0,0,1.53-1.9,10.46,10.46,0,0,0,1-2.26,15,15,0,0,0,.54-2.64,28.6,28.6,0,0,0,.16-3c0-.17.07-.25.22-.25l1.41.05a.27.27,0,0,1,.17.08.22.22,0,0,1,.08.18c0,.85,0,1.63-.07,2.35a15.34,15.34,0,0,1-.27,2,8.76,8.76,0,0,0,.51,1.46,12,12,0,0,0,.77,1.42,13.57,13.57,0,0,0,.88,1.24,6.45,6.45,0,0,0,.89.91.28.28,0,0,1,.05.45l-.78.79a.31.31,0,0,1-.51,0,5.14,5.14,0,0,1-.73-.64c-.24-.27-.48-.55-.71-.85a11.09,11.09,0,0,1-.65-1,10,10,0,0,1-.5-1.05,10,10,0,0,1-1.12,2A13.73,13.73,0,0,1,199.65,478.89Zm9.3,3.31h-1.4c-.17,0-.25-.08-.25-.23v-8.4h-2.55a.31.31,0,0,1-.17-.07.22.22,0,0,1-.07-.17v-1.16a.17.17,0,0,1,.07-.14.29.29,0,0,1,.17-.06h2.55v-4.86c0-.15.08-.22.25-.22H209a.2.2,0,0,1,.22.22V482A.2.2,0,0,1,209,482.2Zm3.29.58h-1.48a.2.2,0,0,1-.22-.22V466.84a.21.21,0,0,1,.24-.23h1.46c.15,0,.22.08.22.23v15.72A.19.19,0,0,1,212.24,482.78Z"/><path class="cls-8" d="M229.24,479.91a.21.21,0,0,1-.17.08h-14.8a.19.19,0,0,1-.17-.08.25.25,0,0,1-.07-.17v-1.11q0-.27.24-.27h3.4v-2.65c0-.16.08-.24.25-.24h1.46c.17,0,.26.08.26.24v2.65h4.06v-2.65c0-.16.09-.24.26-.24h1.46a.24.24,0,0,1,.18.07.21.21,0,0,1,.07.17v2.65h3.4a.22.22,0,0,1,.17.09.24.24,0,0,1,.09.18v1.11A.24.24,0,0,1,229.24,479.91Zm-7.58-5a9.06,9.06,0,0,1-2.12-.24,6.12,6.12,0,0,1-1.77-.7,3.67,3.67,0,0,1-1.21-1.17,2.93,2.93,0,0,1-.44-1.6,2.9,2.9,0,0,1,.44-1.57,3.85,3.85,0,0,1,1.21-1.16,5.87,5.87,0,0,1,1.77-.72,9.07,9.07,0,0,1,2.12-.23,9.27,9.27,0,0,1,2.15.23,5.66,5.66,0,0,1,1.77.72,3.92,3.92,0,0,1,1.2,1.16,2.9,2.9,0,0,1,.44,1.57,2.93,2.93,0,0,1-.44,1.6,3.73,3.73,0,0,1-1.2,1.17,5.9,5.9,0,0,1-1.77.7A9.26,9.26,0,0,1,221.66,474.91Zm0-5.78a6.43,6.43,0,0,0-1.32.14,5,5,0,0,0-1.13.41,2.46,2.46,0,0,0-.79.66,1.4,1.4,0,0,0-.3.88,1.44,1.44,0,0,0,.3.9,2.46,2.46,0,0,0,.79.66,5,5,0,0,0,1.13.41,6.43,6.43,0,0,0,1.32.14,6.31,6.31,0,0,0,1.3-.14,5,5,0,0,0,1.13-.41,2.46,2.46,0,0,0,.79-.66,1.44,1.44,0,0,0,.3-.9,1.4,1.4,0,0,0-.3-.88,2.46,2.46,0,0,0-.79-.66,5,5,0,0,0-1.13-.41A6.31,6.31,0,0,0,221.68,469.13Z"/><path class="cls-8" d="M232.37,482a1.3,1.3,0,0,1-1.31-1.31,1.24,1.24,0,0,1,.38-.91,1.3,1.3,0,0,1,.93-.38,1.26,1.26,0,0,1,.92.38,1.23,1.23,0,0,1,.37.91,1.26,1.26,0,0,1-.37.93A1.22,1.22,0,0,1,232.37,482Z"/><path class="cls-8" d="M346.26,433.39a.25.25,0,0,1,.14-.07l2.16-.05c.7,0,1.38-.06,2-.12a3.52,3.52,0,0,0,.16-.39c0-.14.09-.27.13-.41a.77.77,0,0,0,.05-.39c0-.07-.12-.1-.29-.1h-3.79a.19.19,0,0,1-.16-.08.28.28,0,0,1-.06-.18v-1a.21.21,0,0,1,.24-.24h4.74a1.72,1.72,0,0,1,1,.24.92.92,0,0,1,.32.78s0,.11,0,.19,0,.18,0,.27,0,.17-.05.24a.91.91,0,0,1,0,.16,9.35,9.35,0,0,1-2.18,3.79,11.17,11.17,0,0,1-3.91,2.61.36.36,0,0,1-.51-.12l-.47-.82a.3.3,0,0,1-.05-.27.35.35,0,0,1,.2-.22A13.85,13.85,0,0,0,348,436a8.42,8.42,0,0,0,1.57-1.34l-1.58.09c-.52,0-1,.05-1.56.05a.31.31,0,0,1-.16-.07.26.26,0,0,1-.08-.19v-1A.21.21,0,0,1,346.26,433.39Zm13,11.82a1.39,1.39,0,0,1-1,.28h-8a1.52,1.52,0,0,1-1-.25,1.27,1.27,0,0,1-.27-.94v-5a.18.18,0,0,1,.07-.15.2.2,0,0,1,.15-.06h1.5a.27.27,0,0,1,.16.06.18.18,0,0,1,.07.15v1.6h6.69v-1.67a.2.2,0,0,1,.06-.15.21.21,0,0,1,.16-.07h1.51a.24.24,0,0,1,.22.22v5.08A1.2,1.2,0,0,1,359.22,445.21Zm-1.68-2.69h-6.69v1.08c0,.2.11.29.31.29h6c.22,0,.33-.09.33-.29Zm0-12.69c0-.14.08-.22.24-.22h1.46a.2.2,0,0,1,.22.22v8.27a.2.2,0,0,1-.22.22h-1.48a.2.2,0,0,1-.22-.22V435h-1.48v2.88c0,.15-.07.23-.22.23h-1.39a.21.21,0,0,1-.24-.23v-7.77c0-.15.08-.22.24-.22h1.39a.19.19,0,0,1,.22.22v3.26h1.48Z"/><path class="cls-8" d="M362.6,439.7a.46.46,0,0,1-.22-.16l-.7-.8q-.17-.18-.12-.3a.39.39,0,0,1,.19-.22A8.46,8.46,0,0,0,364.6,435a10.24,10.24,0,0,0,.94-4.61.29.29,0,0,1,.09-.21.24.24,0,0,1,.17-.1l1.49.09c.15,0,.22.08.22.25a12.49,12.49,0,0,1-.47,3.61,6.61,6.61,0,0,0,.67,1.18,7.37,7.37,0,0,0,.87,1,9.21,9.21,0,0,0,.95.85,5.39,5.39,0,0,0,.93.58c.18.09.2.24.06.43l-.63.92a.3.3,0,0,1-.45.1,8.62,8.62,0,0,1-1.82-1.29,8.3,8.3,0,0,1-1.43-1.76,8.34,8.34,0,0,1-1.38,1.89,11.64,11.64,0,0,1-1.87,1.58C362.79,439.69,362.68,439.73,362.6,439.7Zm12.59,5.74a.25.25,0,0,1-.16.05h-8.86a1.46,1.46,0,0,1-1-.27,1.34,1.34,0,0,1-.26-.93v-3.73a.21.21,0,0,1,.08-.16.23.23,0,0,1,.16-.08h1.46a.25.25,0,0,1,.18.08.23.23,0,0,1,.07.16v3a.3.3,0,0,0,.07.22.51.51,0,0,0,.26.05H375a.23.23,0,0,1,.16.07.19.19,0,0,1,.08.15v1.21A.16.16,0,0,1,375.19,445.44Zm-5.35-10.54h3v-1.22h-3a.34.34,0,0,1-.17-.07.22.22,0,0,1-.08-.15v-1.14a.19.19,0,0,1,.08-.15.32.32,0,0,1,.17-.06h3v-2.28a.2.2,0,0,1,.22-.22h1.52a.2.2,0,0,1,.22.22v11a.2.2,0,0,1-.22.22H373a.2.2,0,0,1-.22-.22v-4.41h-3a.3.3,0,0,1-.17,0,.19.19,0,0,1-.08-.15V435.1a.19.19,0,0,1,.08-.14A.32.32,0,0,1,369.84,434.9Z"/><path class="cls-8" d="M382,441.77a3.69,3.69,0,0,1-3.07-1.53,5.34,5.34,0,0,1-.82-1.75,8,8,0,0,1-.29-2.26,8.3,8.3,0,0,1,.29-2.31,5.12,5.12,0,0,1,.82-1.76,3.76,3.76,0,0,1,1.32-1.13,4.1,4.1,0,0,1,3.51,0,4,4,0,0,1,1.32,1.12,5.17,5.17,0,0,1,.83,1.75,9.31,9.31,0,0,1,0,4.61,5.41,5.41,0,0,1-.83,1.76,3.91,3.91,0,0,1-1.32,1.12A3.86,3.86,0,0,1,382,441.77Zm2.28-5.58a6.46,6.46,0,0,0-.16-1.48,4.41,4.41,0,0,0-.44-1.21,2.52,2.52,0,0,0-.71-.83,1.66,1.66,0,0,0-1-.3,1.6,1.6,0,0,0-.95.3,2.62,2.62,0,0,0-.7.83,4.41,4.41,0,0,0-.44,1.21,6.88,6.88,0,0,0,0,3,4.61,4.61,0,0,0,.44,1.22,2.66,2.66,0,0,0,.7.84,1.55,1.55,0,0,0,.95.32,1.61,1.61,0,0,0,1-.32,2.56,2.56,0,0,0,.71-.84,4.61,4.61,0,0,0,.44-1.22A6.43,6.43,0,0,0,384.28,436.19Zm8.2,1.21a.23.23,0,0,1-.16.07H390v8.06a.2.2,0,0,1-.07.16.29.29,0,0,1-.17.06h-1.49c-.16,0-.24-.08-.24-.22v-15.7c0-.14.08-.22.24-.22h1.49a.31.31,0,0,1,.17.07.21.21,0,0,1,.07.15v6h2.3a.27.27,0,0,1,.16.06.17.17,0,0,1,.08.14v1.19A.23.23,0,0,1,392.48,437.4Z"/><path class="cls-8" d="M398.3,441.84a3.76,3.76,0,0,1-1.75-.41,3.82,3.82,0,0,1-1.32-1.15,5.52,5.52,0,0,1-.82-1.78,8.16,8.16,0,0,1-.29-2.27,8.3,8.3,0,0,1,.29-2.31,5.31,5.31,0,0,1,.82-1.76,3.76,3.76,0,0,1,1.32-1.13,4.05,4.05,0,0,1,3.51,0,3.73,3.73,0,0,1,1.31,1.13,5.12,5.12,0,0,1,.82,1.76,9.35,9.35,0,0,1,0,4.62,5.36,5.36,0,0,1-.82,1.77,3.66,3.66,0,0,1-3.07,1.53Zm2.26-5.61a7.17,7.17,0,0,0-.15-1.49,4.56,4.56,0,0,0-.44-1.23,2.69,2.69,0,0,0-.71-.84,1.69,1.69,0,0,0-1.92,0,2.69,2.69,0,0,0-.71.84,4.56,4.56,0,0,0-.44,1.23,7.17,7.17,0,0,0-.15,1.49,7,7,0,0,0,.15,1.47,4.76,4.76,0,0,0,.44,1.24,2.62,2.62,0,0,0,.71.85,1.64,1.64,0,0,0,1.92,0,2.62,2.62,0,0,0,.71-.85,4.76,4.76,0,0,0,.44-1.24A7,7,0,0,0,400.56,436.23Zm6.14,9.3a.2.2,0,0,1-.22.22H405a.2.2,0,0,1-.22-.22v-15.7a.2.2,0,0,1,.22-.22h1.52a.2.2,0,0,1,.22.22Z"/><path class="cls-8" d="M424.19,439.25a.22.22,0,0,1-.17.09H409.23a.21.21,0,0,1-.17-.09.28.28,0,0,1-.07-.17V438a.29.29,0,0,1,.07-.18.22.22,0,0,1,.17-.07h5.9v-2a.26.26,0,0,1,.26-.26h1.46a.25.25,0,0,1,.18.08.24.24,0,0,1,.07.18v2H424a.21.21,0,0,1,.17.08.24.24,0,0,1,.09.17v1.12A.22.22,0,0,1,424.19,439.25Zm-1.92,6a.37.37,0,0,1-.17.05h-9.4a1.46,1.46,0,0,1-1-.28,1.4,1.4,0,0,1-.26-.95v-3.35a.27.27,0,0,1,.07-.17.27.27,0,0,1,.17-.08h1.46a.25.25,0,0,1,.18.08.23.23,0,0,1,.07.17v2.67a.27.27,0,0,0,.07.22.41.41,0,0,0,.26.06h8.41a.29.29,0,0,1,.17.06.15.15,0,0,1,.09.14v1.22A.18.18,0,0,1,422.27,445.24ZM411.73,433.1H414l2.25,0,2.1,0c.66,0,1.25,0,1.76-.07,0-.19,0-.37,0-.54s0-.34,0-.5,0-.25-.11-.29a.76.76,0,0,0-.35-.06H411.7a.27.27,0,0,1-.17-.06.18.18,0,0,1-.09-.15v-1.15a.18.18,0,0,1,.09-.16.34.34,0,0,1,.17-.05H421a1.24,1.24,0,0,1,.78.26,1,1,0,0,1,.34.88c0,.15,0,.36,0,.62s0,.56-.05.88,0,.65-.08,1-.06.68-.09,1-.07.62-.11.89-.08.48-.12.64a.53.53,0,0,1-.12.25.25.25,0,0,1-.23.09L420,436.4c-.17,0-.24-.15-.21-.38s.07-.46.11-.72.06-.52.1-.81c-1.22.07-2.55.11-4,.13l-4.26,0a.19.19,0,0,1-.15-.08.28.28,0,0,1-.07-.19v-1.05C411.51,433.18,411.58,433.1,411.73,433.1Z"/><path class="cls-8" d="M425,437.62v-1.09a.31.31,0,0,1,.07-.18.22.22,0,0,1,.17-.07H440a.27.27,0,0,1,.17.08.24.24,0,0,1,.08.17v1.09a.19.19,0,0,1-.08.16.27.27,0,0,1-.17.08H425.21A.21.21,0,0,1,425,437.62Zm13-5.23a2.06,2.06,0,0,1-.35,1.14,2.74,2.74,0,0,1-1,.92,5.72,5.72,0,0,1-1.67.6,12,12,0,0,1-4.58,0,5.72,5.72,0,0,1-1.67-.6,2.82,2.82,0,0,1-1-.92,2.06,2.06,0,0,1-.35-1.14,2.13,2.13,0,0,1,.35-1.16,3,3,0,0,1,1-.94,6.34,6.34,0,0,1,1.67-.62,11.52,11.52,0,0,1,4.58,0,6.34,6.34,0,0,1,1.67.62,2.87,2.87,0,0,1,1,.94A2.13,2.13,0,0,1,438,432.39Zm.18,13.08a.21.21,0,0,1-.15.07h-9.48a1.32,1.32,0,0,1-.9-.23,1.08,1.08,0,0,1-.24-.79v-2a1.07,1.07,0,0,1,.23-.78,1.23,1.23,0,0,1,.89-.24h7.21c.09,0,.15,0,.17,0s0-.08,0-.2v-.51a.53.53,0,0,0,0-.23.33.33,0,0,0-.19,0h-8.11a.27.27,0,0,1-.16-.06.19.19,0,0,1-.08-.14v-1.14a.19.19,0,0,1,.08-.15.23.23,0,0,1,.16-.07h9.1a1.42,1.42,0,0,1,.92.21,1,1,0,0,1,.23.79v2a1,1,0,0,1-.23.8,1.5,1.5,0,0,1-.92.2h-7.18a.3.3,0,0,0-.17,0,.43.43,0,0,0,0,.2v.58a.31.31,0,0,0,0,.18.66.66,0,0,0,.19,0H438a.23.23,0,0,1,.16.07.22.22,0,0,1,.07.17v1.11A.23.23,0,0,1,438.16,445.47Zm-5.52-14.55a8.05,8.05,0,0,0-1.36.11,4.58,4.58,0,0,0-1.06.32,2.09,2.09,0,0,0-.7.47.89.89,0,0,0-.24.58.79.79,0,0,0,.24.56,2.23,2.23,0,0,0,.7.45,4.61,4.61,0,0,0,1.06.3,9.23,9.23,0,0,0,2.71,0,4.56,4.56,0,0,0,1.07-.3,2,2,0,0,0,.7-.46.76.76,0,0,0,0-1.13,2,2,0,0,0-.7-.47A4.52,4.52,0,0,0,434,431,8,8,0,0,0,432.64,430.92Z"/><path class="cls-8" d="M448.3,432.9a.18.18,0,0,1,.15-.07h2.27l2.32,0,2.15,0,1.78-.07c0-.16,0-.32,0-.47v-.47c0-.16,0-.25-.12-.29a.74.74,0,0,0-.34-.06h-8.11a.27.27,0,0,1-.17-.06.18.18,0,0,1-.09-.15v-1.15a.18.18,0,0,1,.09-.16.34.34,0,0,1,.17,0h9.35a1.17,1.17,0,0,1,.83.28,1.24,1.24,0,0,1,.29.91c0,.24,0,.54,0,.91s0,.77-.07,1.2-.07.87-.12,1.33-.12.88-.2,1.29h2.28a.27.27,0,0,1,.17.08.24.24,0,0,1,.08.17v1.07a.24.24,0,0,1-.08.18.26.26,0,0,1-.17.1H446a.22.22,0,0,1-.17-.1.34.34,0,0,1-.07-.18V436a.34.34,0,0,1,.07-.18.22.22,0,0,1,.17-.07h10.71c0-.24.09-.49.13-.75s.07-.53.09-.82c-.62,0-1.28.06-2,.08l-2.12,0-2.18,0h-2.16a.19.19,0,0,1-.15-.08.24.24,0,0,1-.07-.18v-1A.24.24,0,0,1,448.3,432.9ZM459,445.47a.25.25,0,0,1-.15.07h-9.57a1.32,1.32,0,0,1-.9-.23,1.08,1.08,0,0,1-.24-.79v-2.14a1.07,1.07,0,0,1,.23-.78,1.23,1.23,0,0,1,.89-.24h7.31a.49.49,0,0,0,.17,0,.31.31,0,0,0,0-.18v-.63c0-.13,0-.2,0-.22s-.09,0-.19,0h-8.21a.27.27,0,0,1-.16-.06.17.17,0,0,1-.08-.14v-1.16a.22.22,0,0,1,.08-.15.23.23,0,0,1,.16-.07h9.18a1.43,1.43,0,0,1,.93.21,1.1,1.1,0,0,1,.23.79v2.11a1.06,1.06,0,0,1-.23.8,1.43,1.43,0,0,1-.93.21h-7.26c-.09,0-.14,0-.17,0a.36.36,0,0,0,0,.18v.73a.31.31,0,0,0,0,.18.66.66,0,0,0,.19,0h8.55a.29.29,0,0,1,.17.06.19.19,0,0,1,.09.16v1.13A.22.22,0,0,1,459,445.47Z"/><path class="cls-8" d="M472.06,437.92a.24.24,0,0,1-.15.09c-.52.1-1.1.2-1.74.27s-1.3.15-2,.19-1.36.08-2,.09-1.32,0-1.92,0a1.4,1.4,0,0,1-.9-.28,1.06,1.06,0,0,1-.24-.78v-2.84a1,1,0,0,1,.23-.74,1.07,1.07,0,0,1,.77-.23h4a.38.38,0,0,0,.2,0s0-.1,0-.22v-1.29c0-.13,0-.2,0-.22s-.09,0-.2,0h-4.73a.23.23,0,0,1-.16-.07.18.18,0,0,1-.07-.15v-1.1a.18.18,0,0,1,.07-.15.27.27,0,0,1,.16-.06h5.77a1.18,1.18,0,0,1,.9.27,1.23,1.23,0,0,1,.24.85V434a1.13,1.13,0,0,1-.27.87,1.15,1.15,0,0,1-.81.24h-3.94a.31.31,0,0,0-.2,0s-.05.09-.05.2v1.34c0,.19.1.29.32.29h1.59c.55,0,1.1,0,1.64-.08l1.6-.14c.52-.06,1-.13,1.48-.21a.5.5,0,0,1,.17,0,.16.16,0,0,1,.12.13l.17,1A.18.18,0,0,1,472.06,437.92Zm3.09,7.72a.23.23,0,0,1-.16.07h-1.46a.24.24,0,0,1-.18-.07.24.24,0,0,1-.08-.16V442a.26.26,0,0,0-.07-.22.47.47,0,0,0-.25-.05H465.2a.23.23,0,0,1-.17-.07.18.18,0,0,1-.07-.15v-1.21a.17.17,0,0,1,.07-.15.34.34,0,0,1,.17-.05h8.9a1.21,1.21,0,0,1,.89.26,1.36,1.36,0,0,1,.24.91v4.24A.24.24,0,0,1,475.15,445.64Zm-.15-6.42h-1.51a.19.19,0,0,1-.22-.22v-9.17a.2.2,0,0,1,.09-.15.28.28,0,0,1,.17-.07H475c.12,0,.19.08.19.22V439A.21.21,0,0,1,475,439.22Z"/><path class="cls-8" d="M486,434.55a.25.25,0,0,1-.18.08h-7.6a.26.26,0,0,1-.17-.09.22.22,0,0,1-.1-.18v-1a.22.22,0,0,1,.1-.17.26.26,0,0,1,.17-.09h7.6a.27.27,0,0,1,.26.26v1.05A.25.25,0,0,1,486,434.55Zm-3.78.95a3.53,3.53,0,0,1,1.4.27,3.36,3.36,0,0,1,1.1.73,3.1,3.1,0,0,1,.7,1.08,3.46,3.46,0,0,1,.25,1.33,3.56,3.56,0,0,1-.25,1.35,3,3,0,0,1-.7,1.09,3.21,3.21,0,0,1-1.1.73,3.76,3.76,0,0,1-2.8,0,3.08,3.08,0,0,1-1.09-.73,3.34,3.34,0,0,1-.7-1.09,3.76,3.76,0,0,1-.24-1.35,3.65,3.65,0,0,1,.24-1.33,3.41,3.41,0,0,1,.7-1.08,3.21,3.21,0,0,1,1.09-.73A3.53,3.53,0,0,1,482.23,435.5Zm2.1-3.5a.26.26,0,0,1-.2.1h-4.08a.3.3,0,0,1-.16-.08.25.25,0,0,1-.09-.2v-1a.23.23,0,0,1,.09-.19.27.27,0,0,1,.16-.07h4.08a.26.26,0,0,1,.19.09.24.24,0,0,1,.09.18v1A.29.29,0,0,1,484.33,432Zm-2.1,5a1.64,1.64,0,0,0-.71.15,1.52,1.52,0,0,0-.55.42,1.82,1.82,0,0,0-.34.61,2.18,2.18,0,0,0-.12.72,2.25,2.25,0,0,0,.12.74,2,2,0,0,0,.34.62,1.55,1.55,0,0,0,.55.43,1.64,1.64,0,0,0,.71.15,1.7,1.7,0,0,0,.73-.15,1.43,1.43,0,0,0,.54-.43,1.79,1.79,0,0,0,.34-.62,2.25,2.25,0,0,0,.12-.74,2.18,2.18,0,0,0-.12-.72,1.66,1.66,0,0,0-.34-.61,1.41,1.41,0,0,0-.54-.42A1.7,1.7,0,0,0,482.23,437Zm7.94-7.18c0-.14.08-.22.24-.22h1.46a.2.2,0,0,1,.22.22v15.7a.2.2,0,0,1-.22.22h-1.48a.2.2,0,0,1-.22-.22v-8h-1.45v7.38c0,.16-.07.24-.22.24h-1.39a.21.21,0,0,1-.24-.24V430.14c0-.15.08-.22.24-.22h1.39a.19.19,0,0,1,.22.22v5.73h1.45Z"/><path class="cls-8" d="M500,438.76a.78.78,0,0,1-.28.05.29.29,0,0,1-.26-.19l-.53-.85a.31.31,0,0,1,0-.28.42.42,0,0,1,.21-.23,12.82,12.82,0,0,0,3.29-2.12,8.74,8.74,0,0,0,2.08-2.67.42.42,0,0,0,.07-.27c0-.08-.11-.12-.29-.12H500a.2.2,0,0,1-.17-.09.28.28,0,0,1-.06-.18v-1.12c0-.16.08-.24.25-.24h5.46a1.85,1.85,0,0,1,1.11.27.79.79,0,0,1,.28.83c0,.13-.05.26-.08.39a3.78,3.78,0,0,1-.12.36,8,8,0,0,1-.54,1.11,10.71,10.71,0,0,1-.75,1.1,8.33,8.33,0,0,0,.68.61c.25.21.5.4.76.58s.52.35.78.5.51.29.73.4a.49.49,0,0,1,.24.18c0,.06,0,.15-.07.26l-.56,1c-.11.2-.28.24-.51.13a7,7,0,0,1-.7-.4,8.94,8.94,0,0,1-.84-.57c-.28-.21-.57-.44-.85-.67s-.55-.47-.79-.7a16.91,16.91,0,0,1-2,1.64A15.1,15.1,0,0,1,500,438.76Zm11.3,6.88a.24.24,0,0,1-.18.07h-1.45a.26.26,0,0,1-.18-.07.22.22,0,0,1-.09-.16V441.7a.3.3,0,0,0-.07-.24.41.41,0,0,0-.23,0h-7.69a.27.27,0,0,1-.16-.06.19.19,0,0,1-.08-.14V440a.19.19,0,0,1,.08-.16.27.27,0,0,1,.16-.06h8.83a1.18,1.18,0,0,1,.89.27,1.39,1.39,0,0,1,.24.92v4.51A.23.23,0,0,1,511.31,445.64Zm2.57-10.42a.27.27,0,0,1-.18.07h-2.3v3.42a.19.19,0,0,1-.22.22h-1.51c-.15,0-.22-.08-.22-.24v-8.86a.2.2,0,0,1,.22-.22h1.51a.2.2,0,0,1,.22.22v3.83h2.3a.32.32,0,0,1,.18.06.19.19,0,0,1,.07.16v1.19A.18.18,0,0,1,513.88,435.22Z"/><path class="cls-8" d="M526.91,445.22a1.5,1.5,0,0,1-1,.27H518.1a1.52,1.52,0,0,1-1-.26,1.34,1.34,0,0,1-.26-.93v-2.87a1.16,1.16,0,0,1,.32-.92,1.5,1.5,0,0,1,1-.27h3v-1.65h-6.43a.21.21,0,0,1-.24-.24v-1.14a.34.34,0,0,1,.07-.18.22.22,0,0,1,.17-.07h14.81a.27.27,0,0,1,.17.08.24.24,0,0,1,.08.17v1.14a.19.19,0,0,1-.08.16.27.27,0,0,1-.17.08H523v1.65h2.93a1.53,1.53,0,0,1,1,.25,1.29,1.29,0,0,1,.27.94v2.87A1.13,1.13,0,0,1,526.91,445.22ZM517,431.48a.24.24,0,0,1-.18-.08.29.29,0,0,1-.09-.21v-1a.24.24,0,0,1,.09-.17A.26.26,0,0,1,517,430h10.11a.27.27,0,0,1,.26.26v1a.25.25,0,0,1-.08.18.24.24,0,0,1-.18.07h-1.6v2.72h1.91a.25.25,0,0,1,.18.08.24.24,0,0,1,.07.18v1a.27.27,0,0,1-.07.2.24.24,0,0,1-.18.07H516.67a.28.28,0,0,1-.19-.08.3.3,0,0,1-.1-.21v-1a.26.26,0,0,1,.1-.17.3.3,0,0,1,.19-.09h1.91v-2.72Zm8.31,10.66q0-.27-.24-.27H519a.22.22,0,0,0-.18.06.46.46,0,0,0,0,.2v1.51a.35.35,0,0,0,0,.19.36.36,0,0,0,.18,0h6.07a.43.43,0,0,0,.2,0s0-.09,0-.19Zm-4.83-10.66v2.72h3.15v-2.72Z"/><path class="cls-8" d="M530.68,440.71a.24.24,0,0,1,.19-.08q1.2,0,2.55,0c.89,0,1.78-.06,2.67-.1s1.76-.11,2.6-.18,1.61-.16,2.31-.25a.42.42,0,0,1,.19,0,.16.16,0,0,1,.13.16l.1,1.11a.22.22,0,0,1-.06.21.29.29,0,0,1-.16.09c-.63.09-1.37.18-2.22.26s-1.75.15-2.68.2-1.88.1-2.82.13-1.81,0-2.61,0a.26.26,0,0,1-.26-.26v-1.15A.24.24,0,0,1,530.68,440.71Zm5.07-10.11a4.6,4.6,0,0,1,1.62.28,4,4,0,0,1,1.32.8,3.72,3.72,0,0,1,.88,1.25,4.26,4.26,0,0,1,0,3.24,3.51,3.51,0,0,1-.88,1.22,4.16,4.16,0,0,1-1.32.78,4.86,4.86,0,0,1-1.64.27,4.75,4.75,0,0,1-1.62-.27,4,4,0,0,1-1.3-.78,3.48,3.48,0,0,1-.87-1.22,4.14,4.14,0,0,1,0-3.24,3.7,3.7,0,0,1,.87-1.25,3.88,3.88,0,0,1,1.31-.8A4.62,4.62,0,0,1,535.75,430.6Zm0,1.61a2.16,2.16,0,0,0-1.6.63,2.64,2.64,0,0,0,0,3.42,2.16,2.16,0,0,0,1.6.63,2.22,2.22,0,0,0,1.63-.63,2.64,2.64,0,0,0,0-3.42A2.22,2.22,0,0,0,535.75,432.21Zm8.33,13.32c0,.14-.08.22-.24.22h-1.5a.27.27,0,0,1-.16-.06.21.21,0,0,1-.08-.16v-15.7a.22.22,0,0,1,.08-.15.28.28,0,0,1,.16-.07h1.5c.16,0,.24.08.24.22Z"/><path class="cls-8" d="M552.64,438.76a.47.47,0,0,1-.34.1.44.44,0,0,1-.22-.15l-.69-.8c-.12-.12-.16-.23-.13-.31a.48.48,0,0,1,.19-.22,12.34,12.34,0,0,0,1.67-1.33,6.55,6.55,0,0,0,1.18-1.52,7.12,7.12,0,0,0,.71-1.88,10.9,10.9,0,0,0,.23-2.41.27.27,0,0,1,.09-.2.24.24,0,0,1,.17-.09l1.5.07c.14,0,.22.09.22.26a12.13,12.13,0,0,1-.26,2.63,5.85,5.85,0,0,0,.71,1.23,8.79,8.79,0,0,0,2,1.91,6.45,6.45,0,0,0,1,.57c.19.08.23.21.1.41l-.59.93a.31.31,0,0,1-.46.14,7.68,7.68,0,0,1-1.93-1.25,8.7,8.7,0,0,1-1.52-1.76,8.5,8.5,0,0,1-1.47,2A13.63,13.63,0,0,1,552.64,438.76Zm11.63,3.76a2.44,2.44,0,0,1-.38,1.31,3.33,3.33,0,0,1-1.07,1,5.62,5.62,0,0,1-1.63.67,8.15,8.15,0,0,1-2,.24,8.45,8.45,0,0,1-2.09-.24,5.43,5.43,0,0,1-1.6-.67,3.1,3.1,0,0,1-1-1,2.49,2.49,0,0,1-.36-1.32,2.46,2.46,0,0,1,.36-1.31,3.1,3.1,0,0,1,1-1,5.43,5.43,0,0,1,1.6-.67,8.45,8.45,0,0,1,2.09-.24,8.15,8.15,0,0,1,2,.24,5.91,5.91,0,0,1,1.63.66,3.28,3.28,0,0,1,1.07,1A2.46,2.46,0,0,1,564.27,442.52Zm-2,.05a1.18,1.18,0,0,0-.26-.75,1.94,1.94,0,0,0-.68-.54,3.71,3.71,0,0,0-1-.34,5.65,5.65,0,0,0-1.19-.12,4.67,4.67,0,0,0-2.2.45,1.41,1.41,0,0,0-.84,1.3,1.16,1.16,0,0,0,.23.71,1.73,1.73,0,0,0,.63.52,3.49,3.49,0,0,0,1,.32,5.83,5.83,0,0,0,1.22.11,5.66,5.66,0,0,0,1.19-.11,3.71,3.71,0,0,0,1-.32,2,2,0,0,0,.68-.52A1.07,1.07,0,0,0,562.27,442.57Zm4.31-7.21a.25.25,0,0,1-.17.07H564.1v3.4a.23.23,0,0,1-.07.16.19.19,0,0,1-.15.08h-1.51a.23.23,0,0,1-.16-.08.28.28,0,0,1-.06-.18v-9a.2.2,0,0,1,.22-.22h1.51a.2.2,0,0,1,.22.22v4h2.31a.29.29,0,0,1,.17.06.18.18,0,0,1,.07.15v1.19A.21.21,0,0,1,566.58,435.36Z"/><path class="cls-8" d="M568.69,441.89a.34.34,0,0,1-.54,0l-.77-.75c-.17-.16-.16-.33,0-.51a8.87,8.87,0,0,0,1.53-1.9,10.54,10.54,0,0,0,1-2.27,15.69,15.69,0,0,0,.53-2.63,26.17,26.17,0,0,0,.16-3c0-.17.08-.25.22-.25l1.41.05a.25.25,0,0,1,.17.08.22.22,0,0,1,.09.17c0,.86,0,1.64-.08,2.36a17.27,17.27,0,0,1-.26,2,7.49,7.49,0,0,0,.51,1.46,12.79,12.79,0,0,0,.76,1.42,12.18,12.18,0,0,0,.89,1.23,6,6,0,0,0,.88.92c.17.15.19.3,0,.44l-.78.8a.31.31,0,0,1-.51,0,4.6,4.6,0,0,1-.72-.64c-.24-.27-.48-.55-.72-.85a11,11,0,0,1-.64-1,7.14,7.14,0,0,1-.5-1.05,10.07,10.07,0,0,1-1.13,2A13.73,13.73,0,0,1,568.69,441.89Zm9.3,3.31H576.6c-.17,0-.26-.08-.26-.24v-8.39h-2.55a.26.26,0,0,1-.16-.07.23.23,0,0,1-.08-.17v-1.16a.19.19,0,0,1,.08-.14.25.25,0,0,1,.16-.06h2.55v-4.86c0-.15.09-.22.26-.22H578a.19.19,0,0,1,.22.22V445C578.21,445.12,578.14,445.2,578,445.2Zm3.3.58h-1.48a.19.19,0,0,1-.22-.22V429.83c0-.14.08-.22.24-.22h1.46a.2.2,0,0,1,.22.22v15.73A.19.19,0,0,1,581.29,445.78Z"/><path class="cls-8" d="M584.38,438.06l-.68-.81a.37.37,0,0,1-.09-.27c0-.1.06-.17.18-.23A7.11,7.11,0,0,0,586.7,434a8,8,0,0,0,.91-4,.22.22,0,0,1,.1-.19.34.34,0,0,1,.17-.07l1.47.07c.14,0,.22.09.22.26a10.62,10.62,0,0,1-.34,2.67,5.41,5.41,0,0,0,.68,1.12,8.11,8.11,0,0,0,.88,1,7.77,7.77,0,0,0,1,.77,7.42,7.42,0,0,0,1,.54c.19.08.22.22.1.42l-.58.92a.33.33,0,0,1-.44.14,7,7,0,0,1-1.89-1.21,9.08,9.08,0,0,1-1.49-1.72,8.26,8.26,0,0,1-3.52,3.35C584.68,438.23,584.5,438.22,584.38,438.06Zm12.74,7.58a.21.21,0,0,1-.14.07H587.8a1.23,1.23,0,0,1-.9-.25,1.14,1.14,0,0,1-.24-.8v-2a1.12,1.12,0,0,1,.23-.78,1.23,1.23,0,0,1,.89-.24h6.87c.09,0,.15,0,.17-.05a.48.48,0,0,0,0-.21v-.57c0-.13,0-.21-.05-.23a.3.3,0,0,0-.2-.05h-7.74a.27.27,0,0,1-.16-.06.15.15,0,0,1-.07-.14v-1.12a.21.21,0,0,1,.07-.16.24.24,0,0,1,.16-.08h8.74a1.3,1.3,0,0,1,.93.24,1.17,1.17,0,0,1,.23.81v2a1.12,1.12,0,0,1-.23.81,1.37,1.37,0,0,1-.93.22h-6.81c-.1,0-.15,0-.17,0s0,.08,0,.18v.67c0,.11,0,.17,0,.18a.48.48,0,0,0,.21,0H597a.26.26,0,0,1,.24.24v1.09A.24.24,0,0,1,597.12,445.64Zm-5.56-11.78v-1.15a.18.18,0,0,1,.07-.15.28.28,0,0,1,.18-.06h3v-2.67a.2.2,0,0,1,.22-.22h1.51a.2.2,0,0,1,.23.22v8.1a.28.28,0,0,1-.07.16.23.23,0,0,1-.16.08H595a.19.19,0,0,1-.15-.08.23.23,0,0,1-.07-.16v-3.86h-3a.28.28,0,0,1-.18-.06A.18.18,0,0,1,591.56,433.86Z"/><path class="cls-8" d="M607.65,438a1.25,1.25,0,0,1-.91.26h-5a1.4,1.4,0,0,1-1-.26,1.29,1.29,0,0,1-.27-.93v-5.57a1.26,1.26,0,0,1,.26-.9,1.36,1.36,0,0,1,.91-.24h5.14a1.36,1.36,0,0,1,.91.23,1.2,1.2,0,0,1,.26.91v.46h2.89v-2.1a.2.2,0,0,1,.22-.22h1.51a.2.2,0,0,1,.22.22v9.07c0,.15-.07.23-.22.23H611c-.15,0-.22-.08-.22-.23v-2.13h-2.89V437A1.34,1.34,0,0,1,607.65,438ZM606,432.11a.27.27,0,0,0,0-.19s-.08,0-.17,0h-3.23a.34.34,0,0,0-.18,0s0,.08,0,.19v4.35a.27.27,0,0,0,0,.19.34.34,0,0,0,.18,0h3.23a.29.29,0,0,0,.17,0,.27.27,0,0,0,0-.19Zm6.86,10.42a2.31,2.31,0,0,1-.38,1.31,3.24,3.24,0,0,1-1.06,1,5.44,5.44,0,0,1-1.62.66,8.66,8.66,0,0,1-2,.23,9,9,0,0,1-2.09-.23,5.51,5.51,0,0,1-1.59-.65,3.14,3.14,0,0,1-1-1,2.52,2.52,0,0,1-.35-1.33,2.44,2.44,0,0,1,.35-1.3,3.35,3.35,0,0,1,1-1,5.24,5.24,0,0,1,1.59-.65,8.47,8.47,0,0,1,2.09-.23,8.17,8.17,0,0,1,2,.23,5.71,5.71,0,0,1,1.62.64,3.32,3.32,0,0,1,1.06,1A2.31,2.31,0,0,1,612.87,442.53Zm-2,.05a1.12,1.12,0,0,0-.25-.73,1.9,1.9,0,0,0-.67-.53,3.71,3.71,0,0,0-1-.32,5.66,5.66,0,0,0-1.19-.11,4.91,4.91,0,0,0-2.19.42,1.36,1.36,0,0,0-.83,1.27,1.29,1.29,0,0,0,.85,1.21,5.06,5.06,0,0,0,2.17.41,6.44,6.44,0,0,0,1.19-.1,3.72,3.72,0,0,0,1-.31,1.84,1.84,0,0,0,.67-.5A1,1,0,0,0,610.87,442.58Zm-.07-7.34v-1.78h-2.89v1.78Z"/><path class="cls-8" d="M615,437.62v-1.09a.31.31,0,0,1,.07-.18.22.22,0,0,1,.17-.07h14.81a.28.28,0,0,1,.25.25v1.09a.23.23,0,0,1-.08.16.29.29,0,0,1-.17.08H615.27A.21.21,0,0,1,615,437.62Zm13-5.23a2.06,2.06,0,0,1-.35,1.14,2.82,2.82,0,0,1-1,.92,5.72,5.72,0,0,1-1.67.6,12,12,0,0,1-4.58,0,5.72,5.72,0,0,1-1.67-.6,2.82,2.82,0,0,1-1-.92,2.06,2.06,0,0,1-.35-1.14,2.13,2.13,0,0,1,.35-1.16,3,3,0,0,1,1-.94,6.34,6.34,0,0,1,1.67-.62,11.52,11.52,0,0,1,4.58,0,6.34,6.34,0,0,1,1.67.62,3,3,0,0,1,1,.94A2.13,2.13,0,0,1,628,432.39Zm.18,13.08a.21.21,0,0,1-.15.07h-9.48a1.3,1.3,0,0,1-.9-.23,1.08,1.08,0,0,1-.24-.79v-2a1.07,1.07,0,0,1,.23-.78,1.23,1.23,0,0,1,.89-.24h7.21a.35.35,0,0,0,.17,0s0-.08,0-.2v-.51a.53.53,0,0,0,0-.23.35.35,0,0,0-.19,0h-8.11a.25.25,0,0,1-.16-.06.19.19,0,0,1-.08-.14v-1.14a.19.19,0,0,1,.08-.15.21.21,0,0,1,.16-.07h9.1a1.42,1.42,0,0,1,.92.21,1,1,0,0,1,.23.79v2a1,1,0,0,1-.23.8,1.5,1.5,0,0,1-.92.2h-7.18a.27.27,0,0,0-.17,0,.43.43,0,0,0,0,.2v.58a.31.31,0,0,0,0,.18.61.61,0,0,0,.19,0h8.47a.23.23,0,0,1,.16.07.22.22,0,0,1,.07.17v1.11A.23.23,0,0,1,628.22,445.47Zm-5.52-14.55a8.05,8.05,0,0,0-1.36.11,4.58,4.58,0,0,0-1.06.32,2.09,2.09,0,0,0-.7.47.91.91,0,0,0-.25.58.8.8,0,0,0,.25.56,2.23,2.23,0,0,0,.7.45,4.61,4.61,0,0,0,1.06.3,9.23,9.23,0,0,0,2.71,0,4.71,4.71,0,0,0,1.07-.3,2,2,0,0,0,.7-.46.76.76,0,0,0,0-1.13,2,2,0,0,0-.7-.47,4.67,4.67,0,0,0-1.07-.32A8,8,0,0,0,622.7,430.92Z"/><path class="cls-8" d="M395.9,475.73l2,0c.69,0,1.39,0,2.09,0v-.85a4,4,0,0,1-2-.75,1.76,1.76,0,0,1-.74-1.41,1.64,1.64,0,0,1,.26-.88,2.44,2.44,0,0,1,.75-.71,3.71,3.71,0,0,1,1.16-.48,6.25,6.25,0,0,1,1.5-.17,6.49,6.49,0,0,1,1.52.17,3.65,3.65,0,0,1,1.15.48,2.4,2.4,0,0,1,.74.71,1.56,1.56,0,0,1,.26.88,1.71,1.71,0,0,1-.71,1.37,4,4,0,0,1-1.94.78v.79c.65,0,1.27-.05,1.88-.1s1.19-.1,1.76-.17a.37.37,0,0,1,.18,0,.17.17,0,0,1,.11.15l.08.95a.23.23,0,0,1-.05.2.24.24,0,0,1-.15.09c-.78.09-1.61.17-2.47.23s-1.73.11-2.59.15-1.69.06-2.5.07-1.58,0-2.27,0a.25.25,0,0,1-.17-.08.28.28,0,0,1-.06-.18v-1A.21.21,0,0,1,395.9,475.73Zm9.28-5.78a.25.25,0,0,1-.18.08h-8.48a.22.22,0,0,1-.17-.09.28.28,0,0,1-.09-.2v-.83a.24.24,0,0,1,.09-.17.3.3,0,0,1,.18-.09H405a.25.25,0,0,1,.18.08.24.24,0,0,1,.07.18v.85A.28.28,0,0,1,405.18,470Zm3.23,12.74a.23.23,0,0,1-.16.07h-1.47a.23.23,0,0,1-.17-.07.21.21,0,0,1-.08-.16v-2.61a.26.26,0,0,0-.07-.22.47.47,0,0,0-.25-.05H398a.21.21,0,0,1-.16-.07.19.19,0,0,1-.08-.15v-1.14a.18.18,0,0,1,.08-.15.3.3,0,0,1,.16-.05h9.4a1.21,1.21,0,0,1,.89.26,1.42,1.42,0,0,1,.23.91v3.27A.23.23,0,0,1,408.41,482.69ZM403.07,468a.26.26,0,0,1-.21.09h-4.19a.32.32,0,0,1-.17-.07.23.23,0,0,1-.1-.19v-.86a.24.24,0,0,1,.1-.19.43.43,0,0,1,.17-.07h4.19a.27.27,0,0,1,.2.09.24.24,0,0,1,.09.18v.84A.27.27,0,0,1,403.07,468Zm-2.17,3.85a2.56,2.56,0,0,0-1.28.27.77.77,0,0,0-.47.64c0,.24.16.45.47.64a3.07,3.07,0,0,0,2.56,0c.32-.19.47-.4.47-.64a.75.75,0,0,0-.47-.64A2.54,2.54,0,0,0,400.9,471.82Zm10,1.73a.25.25,0,0,1-.17.07h-2.22v3.47a.2.2,0,0,1-.22.22h-1.52a.2.2,0,0,1-.22-.22V466.83a.2.2,0,0,1,.22-.22h1.52a.2.2,0,0,1,.22.22V472h2.22a.29.29,0,0,1,.17.06.16.16,0,0,1,.07.14v1.21A.21.21,0,0,1,410.86,473.55Z"/><path class="cls-8" d="M420.54,471.41a4.26,4.26,0,0,1-.31,1.6,3.93,3.93,0,0,1-.86,1.3,4.2,4.2,0,0,1-3,1.19,4,4,0,0,1-1.66-.32,4.18,4.18,0,0,1-1.3-.87,4,4,0,0,1-.84-1.3,4.26,4.26,0,0,1-.3-1.6,4.13,4.13,0,0,1,.3-1.56,4.2,4.2,0,0,1,.84-1.31,4.09,4.09,0,0,1,1.3-.9,4,4,0,0,1,1.66-.33,4.2,4.2,0,0,1,1.68.33,4.07,4.07,0,0,1,2.18,2.21A4.13,4.13,0,0,1,420.54,471.41Zm-1.94,0a2.73,2.73,0,0,0-.16-.92,2.24,2.24,0,0,0-.46-.76,2.11,2.11,0,0,0-.71-.51,2,2,0,0,0-.9-.19,2,2,0,0,0-.89.19,1.94,1.94,0,0,0-.69.51,2.39,2.39,0,0,0-.45.76,2.51,2.51,0,0,0-.16.92,2.67,2.67,0,0,0,.16.95,2.44,2.44,0,0,0,.45.77,2.21,2.21,0,0,0,.69.51,2.15,2.15,0,0,0,.89.19,2.2,2.2,0,0,0,.9-.19,2.43,2.43,0,0,0,.71-.51,2.29,2.29,0,0,0,.46-.77A2.91,2.91,0,0,0,418.6,471.44Zm6.75,10.93a.3.3,0,0,1-.17.05h-8.81a1.46,1.46,0,0,1-1-.27,1.34,1.34,0,0,1-.26-.93v-3.84a.25.25,0,0,1,.08-.17.21.21,0,0,1,.16-.07h1.48a.23.23,0,0,1,.17.07.21.21,0,0,1,.08.17v3.14c0,.11,0,.19.07.22a.45.45,0,0,0,.24.05h7.82a.32.32,0,0,1,.17.06.19.19,0,0,1,.08.15v1.22A.16.16,0,0,1,425.35,482.37Zm-.44-4.52c0,.15-.08.22-.23.22h-1.51c-.15,0-.22-.08-.22-.24v-11a.2.2,0,0,1,.22-.22h1.51a.2.2,0,0,1,.23.22Z"/><path class="cls-8" d="M437.36,471.61a.23.23,0,0,1-.18.09H428a.33.33,0,0,1-.29-.29v-1a.24.24,0,0,1,.09-.17.27.27,0,0,1,.2-.08h9.21a.24.24,0,0,1,.25.25v1.05A.26.26,0,0,1,437.36,471.61Zm-4.67.92a4.39,4.39,0,0,1,1.53.25,3.33,3.33,0,0,1,1.19.69,3.09,3.09,0,0,1,.77,1.08,3.37,3.37,0,0,1,.29,1.4,3.45,3.45,0,0,1-.29,1.41,3.11,3.11,0,0,1-.78,1.11,3.63,3.63,0,0,1-1.2.74,4.52,4.52,0,0,1-3.05,0,3.48,3.48,0,0,1-1.18-.74,3.32,3.32,0,0,1-.76-1.12,3.62,3.62,0,0,1-.28-1.41,3.47,3.47,0,0,1,.28-1.38,3.09,3.09,0,0,1,.77-1.08,3.6,3.6,0,0,1,1.19-.7A4.37,4.37,0,0,1,432.69,472.53Zm2.49-3.64a.23.23,0,0,1-.19.09h-4.78a.31.31,0,0,1-.16-.07.24.24,0,0,1-.1-.19V467.6a.24.24,0,0,1,.1-.19.29.29,0,0,1,.16-.06H435a.23.23,0,0,1,.18.08.26.26,0,0,1,.09.19v1.09A.27.27,0,0,1,435.18,468.89Zm-2.49,5.19a1.84,1.84,0,0,0-1.38.53,1.9,1.9,0,0,0-.52,1.39,1.93,1.93,0,0,0,.52,1.38,1.81,1.81,0,0,0,1.38.54,1.85,1.85,0,0,0,1.41-.54,2,2,0,0,0,.51-1.38,1.94,1.94,0,0,0-.51-1.39A1.88,1.88,0,0,0,432.69,474.08Zm10.13.51a.34.34,0,0,1-.18.07h-2.3v7.87a.2.2,0,0,1-.22.22h-1.51a.2.2,0,0,1-.22-.22v-15.7a.2.2,0,0,1,.22-.22h1.51a.2.2,0,0,1,.22.22V473h2.3a.32.32,0,0,1,.18.06.18.18,0,0,1,.07.15v1.2A.21.21,0,0,1,442.82,474.59Z"/><path class="cls-8" d="M452,469.16a11.64,11.64,0,0,1-2.07,5.84,15.35,15.35,0,0,1-4.79,4.28.4.4,0,0,1-.3.06.36.36,0,0,1-.25-.16l-.59-.83a.27.27,0,0,1-.05-.25.25.25,0,0,1,.17-.18,13.5,13.5,0,0,0,4-3.52,10.65,10.65,0,0,0,1.9-4.32c.05-.22.05-.37,0-.45a.59.59,0,0,0-.41-.11h-4.73c-.15,0-.22-.08-.22-.24v-1.19c0-.13.07-.2.22-.2h6a1.26,1.26,0,0,1,1,.31A1.36,1.36,0,0,1,452,469.16Zm4.9,13.59h-1.5a.2.2,0,0,1-.23-.22v-8.38H452a.25.25,0,0,1-.16-.06.19.19,0,0,1-.08-.15v-1.21a.19.19,0,0,1,.08-.14.25.25,0,0,1,.16-.06h3.13v-5.7a.2.2,0,0,1,.23-.22h1.5c.16,0,.24.08.24.22v15.7C457.14,482.67,457.06,482.75,456.9,482.75Z"/><path class="cls-8" d="M469.51,477.09a.4.4,0,0,1-.23.13,13.78,13.78,0,0,1-1.6.33c-.65.11-1.32.2-2,.28s-1.39.14-2.06.17a13.54,13.54,0,0,1-1.73,0,1.47,1.47,0,0,1-.95-.39,1.33,1.33,0,0,1-.29-.9v-8.84a.28.28,0,0,1,.24-.24h1.46a.25.25,0,0,1,.18.08.23.23,0,0,1,.08.16V476c0,.12,0,.19.07.21a.5.5,0,0,0,.23.06,10.31,10.31,0,0,0,1.39,0c.51,0,1.05-.06,1.6-.12s1.09-.14,1.63-.24,1-.2,1.5-.31a.28.28,0,0,1,.27.06.93.93,0,0,1,.11.19l.18,1A.21.21,0,0,1,469.51,477.09Zm5.25-2.69a.23.23,0,0,1-.16.07h-2.32v8.06a.2.2,0,0,1-.22.22h-1.51a.2.2,0,0,1-.22-.22v-15.7a.2.2,0,0,1,.22-.22h1.51a.2.2,0,0,1,.22.22v6h2.32a.27.27,0,0,1,.16.06.16.16,0,0,1,.07.14v1.19A.22.22,0,0,1,474.76,474.4Z"/><path class="cls-8" d="M488.8,477.78a1.36,1.36,0,0,1-1,.29h-5.1a1.52,1.52,0,0,1-1-.25,1.27,1.27,0,0,1-.27-.94V467.7a.2.2,0,0,1,.06-.14.25.25,0,0,1,.16-.06h1.49a.25.25,0,0,1,.16.06.16.16,0,0,1,.08.14v3.72h3.76v-3.73a.21.21,0,0,1,.07-.16.31.31,0,0,1,.17-.07h1.49a.26.26,0,0,1,.16.07.23.23,0,0,1,.08.16v9.24A1.15,1.15,0,0,1,488.8,477.78ZM487.11,473h-3.76v3.18c0,.19.1.28.31.28h3.14c.21,0,.31-.09.31-.28Zm6.63,9.52a.2.2,0,0,1-.22.22H492a.2.2,0,0,1-.22-.22v-15.7a.2.2,0,0,1,.22-.22h1.52a.2.2,0,0,1,.22.22Z"/><path class="cls-8" d="M506.61,477.38l-.17.1a13.54,13.54,0,0,1-1.72.35c-.69.11-1.41.19-2.15.25s-1.47.11-2.17.13a16.16,16.16,0,0,1-1.75,0,1.53,1.53,0,0,1-.93-.28,1.08,1.08,0,0,1-.29-.86V469a1.14,1.14,0,0,1,.24-.83,1.31,1.31,0,0,1,.9-.24h6.34c.16,0,.24.07.24.22v1.19c0,.15-.08.22-.24.22h-5.2c-.22,0-.33.1-.33.29V476c0,.18,0,.3.1.35a.85.85,0,0,0,.41.11,10.49,10.49,0,0,0,1.29,0c.5,0,1-.06,1.6-.11s1.14-.12,1.73-.2,1.13-.16,1.64-.25a.22.22,0,0,1,.3.2l.21,1C506.68,477.26,506.66,477.34,506.61,477.38Zm3.11,5.15a.2.2,0,0,1-.22.22H508a.2.2,0,0,1-.22-.22v-15.7a.2.2,0,0,1,.22-.22h1.52a.2.2,0,0,1,.22.22Z"/><path class="cls-8" d="M527.23,479.91a.27.27,0,0,1-.17.08H512.25a.23.23,0,0,1-.17-.08.34.34,0,0,1-.07-.17v-1.11q0-.27.24-.27h6.43v-3.14a7.48,7.48,0,0,1-1.85-.42,5.2,5.2,0,0,1-1.45-.81,3.46,3.46,0,0,1-1-1.15,3,3,0,0,1-.34-1.45,3.11,3.11,0,0,1,.42-1.6,3.91,3.91,0,0,1,1.18-1.22,5.57,5.57,0,0,1,1.76-.78,9.18,9.18,0,0,1,4.42,0,5.73,5.73,0,0,1,1.77.78,3.87,3.87,0,0,1,1.17,1.22,3.2,3.2,0,0,1,.41,1.6,3,3,0,0,1-.34,1.45,3.46,3.46,0,0,1-1,1.15,5.2,5.2,0,0,1-1.45.81,7.48,7.48,0,0,1-1.85.42v3.14h6.43a.24.24,0,0,1,.17.09.22.22,0,0,1,.08.18v1.11A.24.24,0,0,1,527.23,479.91Zm-7.57-10.78a5.51,5.51,0,0,0-1.36.16,4.12,4.12,0,0,0-1.13.46,2.64,2.64,0,0,0-.77.71,1.63,1.63,0,0,0-.29.93,1.68,1.68,0,0,0,.29.94,2.54,2.54,0,0,0,.77.72,4.12,4.12,0,0,0,1.13.46,5.51,5.51,0,0,0,1.36.16,5.45,5.45,0,0,0,1.36-.16,4,4,0,0,0,1.13-.46,2.43,2.43,0,0,0,.77-.72,1.67,1.67,0,0,0,.28-.94,1.62,1.62,0,0,0-.28-.93,2.52,2.52,0,0,0-.77-.71,4,4,0,0,0-1.13-.46A5.45,5.45,0,0,0,519.66,469.13Z"/><path class="cls-8" d="M534.35,475.76a.78.78,0,0,1-.28.05.29.29,0,0,1-.26-.19l-.53-.85a.31.31,0,0,1,0-.28.42.42,0,0,1,.21-.23,12.82,12.82,0,0,0,3.29-2.12,8.74,8.74,0,0,0,2.08-2.67.42.42,0,0,0,.07-.27c0-.08-.11-.12-.29-.12h-4.27a.19.19,0,0,1-.17-.09.28.28,0,0,1-.06-.18v-1.12c0-.16.08-.24.25-.24h5.46a1.85,1.85,0,0,1,1.11.27.79.79,0,0,1,.28.83c0,.13-.05.26-.08.39a3.78,3.78,0,0,1-.12.36,8,8,0,0,1-.54,1.11,10.71,10.71,0,0,1-.75,1.1,8.33,8.33,0,0,0,.68.61,8.47,8.47,0,0,0,.76.58c.26.18.52.35.78.5s.51.29.73.4a.49.49,0,0,1,.24.18c0,.06,0,.15-.07.26l-.56,1c-.11.2-.28.24-.51.13a7,7,0,0,1-.7-.4,8.94,8.94,0,0,1-.84-.57c-.28-.21-.57-.44-.85-.67s-.55-.47-.79-.7a16.91,16.91,0,0,1-2,1.64A15.1,15.1,0,0,1,534.35,475.76Zm11.3,6.88a.24.24,0,0,1-.18.07H544a.26.26,0,0,1-.18-.07.22.22,0,0,1-.09-.16V478.7a.3.3,0,0,0-.07-.24.41.41,0,0,0-.23,0h-7.69a.27.27,0,0,1-.16-.06.19.19,0,0,1-.08-.14V477a.19.19,0,0,1,.08-.16.27.27,0,0,1,.16-.06h8.82a1.19,1.19,0,0,1,.9.27,1.39,1.39,0,0,1,.24.92v4.51A.23.23,0,0,1,545.65,482.64Zm2.56-10.42a.23.23,0,0,1-.17.07h-2.3v3.42a.19.19,0,0,1-.22.22H544c-.15,0-.22-.08-.22-.24v-8.86a.2.2,0,0,1,.22-.22h1.51a.2.2,0,0,1,.22.22v3.83H548a.27.27,0,0,1,.17.06.17.17,0,0,1,.08.16v1.19A.17.17,0,0,1,548.21,472.22Z"/><path class="cls-8" d="M561.25,482.22a1.5,1.5,0,0,1-1,.27h-7.84a1.52,1.52,0,0,1-1-.26,1.29,1.29,0,0,1-.26-.93v-2.87a1.13,1.13,0,0,1,.32-.92,1.5,1.5,0,0,1,1-.27h3v-1.65H549a.21.21,0,0,1-.24-.24v-1.14a.34.34,0,0,1,.07-.18A.22.22,0,0,1,549,474h14.81a.28.28,0,0,1,.25.25v1.14a.23.23,0,0,1-.08.16.29.29,0,0,1-.17.08h-6.43v1.65h2.93a1.53,1.53,0,0,1,1,.25,1.29,1.29,0,0,1,.26.94v2.87A1.13,1.13,0,0,1,561.25,482.22Zm-9.93-13.74a.24.24,0,0,1-.18-.08.3.3,0,0,1-.1-.21v-1a.35.35,0,0,1,.28-.26h10.11a.27.27,0,0,1,.26.26v1a.25.25,0,0,1-.08.18.24.24,0,0,1-.18.07h-1.6v2.72h1.91a.25.25,0,0,1,.18.08.24.24,0,0,1,.07.18v1a.27.27,0,0,1-.07.2.24.24,0,0,1-.18.07H551a.28.28,0,0,1-.19-.08.3.3,0,0,1-.1-.21v-1a.26.26,0,0,1,.1-.17.3.3,0,0,1,.19-.09h1.91v-2.72Zm8.31,10.66q0-.27-.24-.27h-6.07a.22.22,0,0,0-.18.06.46.46,0,0,0,0,.2v1.51a.35.35,0,0,0,0,.19.36.36,0,0,0,.18,0h6.07a.43.43,0,0,0,.2,0s0-.09,0-.19Zm-4.83-10.66v2.72H558v-2.72Z"/><path class="cls-8" d="M564.71,474.62v-1.09a.31.31,0,0,1,.07-.18.22.22,0,0,1,.17-.07h14.81a.28.28,0,0,1,.25.25v1.09a.23.23,0,0,1-.08.16.29.29,0,0,1-.17.08H565A.21.21,0,0,1,564.71,474.62Zm13-5.23a2.06,2.06,0,0,1-.35,1.14,2.82,2.82,0,0,1-1,.92,5.72,5.72,0,0,1-1.67.6,12,12,0,0,1-4.58,0,5.72,5.72,0,0,1-1.67-.6,2.82,2.82,0,0,1-1-.92,2.06,2.06,0,0,1-.35-1.14,2.13,2.13,0,0,1,.35-1.16,3,3,0,0,1,1-.94,6.34,6.34,0,0,1,1.67-.62,11.52,11.52,0,0,1,4.58,0,6.34,6.34,0,0,1,1.67.62,3,3,0,0,1,1,.94A2.13,2.13,0,0,1,577.72,469.39Zm.18,13.08a.21.21,0,0,1-.15.07h-9.48a1.3,1.3,0,0,1-.9-.23,1.08,1.08,0,0,1-.24-.79v-2a1.07,1.07,0,0,1,.23-.78,1.23,1.23,0,0,1,.89-.24h7.21a.35.35,0,0,0,.17,0s0-.08,0-.2v-.51a.53.53,0,0,0,0-.23.35.35,0,0,0-.19,0h-8.11a.25.25,0,0,1-.16-.06.19.19,0,0,1-.08-.14v-1.14a.19.19,0,0,1,.08-.15.21.21,0,0,1,.16-.07h9.1a1.42,1.42,0,0,1,.92.21,1,1,0,0,1,.23.79v2a1,1,0,0,1-.23.8,1.5,1.5,0,0,1-.92.2h-7.18a.27.27,0,0,0-.17,0,.43.43,0,0,0,0,.2v.58a.31.31,0,0,0,0,.18.61.61,0,0,0,.19,0h8.47a.23.23,0,0,1,.16.07.22.22,0,0,1,.07.17v1.11A.23.23,0,0,1,577.9,482.47Zm-5.52-14.55A8.05,8.05,0,0,0,571,468a4.58,4.58,0,0,0-1.06.32,2,2,0,0,0-.7.47.91.91,0,0,0-.25.58.8.8,0,0,0,.25.56,2.12,2.12,0,0,0,.7.45,4.61,4.61,0,0,0,1.06.3,9.23,9.23,0,0,0,2.71,0,4.71,4.71,0,0,0,1.07-.3,2.08,2.08,0,0,0,.7-.46.76.76,0,0,0,0-1.13,2.09,2.09,0,0,0-.7-.47,4.67,4.67,0,0,0-1.07-.32A8,8,0,0,0,572.38,467.92Z"/><path class="cls-8" d="M439.16,513c-.27.11-.45.06-.54-.16l-.45-.88a.43.43,0,0,1,0-.27.32.32,0,0,1,.21-.22,12.78,12.78,0,0,0,3.51-2.17,6.16,6.16,0,0,0,1.88-2.81.64.64,0,0,0,0-.38c0-.07-.11-.1-.28-.1h-4.63a.19.19,0,0,1-.16-.08.33.33,0,0,1-.06-.19v-1.12a.21.21,0,0,1,.24-.24h5.76a1.72,1.72,0,0,1,1.05.24,1,1,0,0,1,.29.78,1.49,1.49,0,0,1,0,.19,2.56,2.56,0,0,1-.05.27,1.44,1.44,0,0,1-.05.24.71.71,0,0,1,0,.16,8.7,8.7,0,0,1-2.32,4A13.48,13.48,0,0,1,439.16,513Zm11.08,6.27a1.32,1.32,0,0,1-.93.27h-7.48a1.51,1.51,0,0,1-1.05-.27,1.34,1.34,0,0,1-.26-.93v-3.58a1,1,0,0,1,1.22-1.22h7.48a1.44,1.44,0,0,1,1,.28,1.38,1.38,0,0,1,.27,1v3.57A1.2,1.2,0,0,1,450.24,519.22Zm-1.66-3.94a.34.34,0,0,0,0-.18.26.26,0,0,0-.18,0H442.7a.4.4,0,0,0-.2,0s0,.08,0,.17v2.45c0,.1,0,.16,0,.18s.09,0,.2,0h5.66a.26.26,0,0,0,.18,0,.29.29,0,0,0,0-.18Zm4.4-6.12a.29.29,0,0,1-.17.06h-2.29v3.2c0,.15-.08.22-.24.22h-1.5a.26.26,0,0,1-.24-.24v-8.57a.22.22,0,0,1,.08-.15.26.26,0,0,1,.16-.07h1.5c.16,0,.24.08.24.22v3.76h2.29a.25.25,0,0,1,.17.07.2.2,0,0,1,.09.15V509A.21.21,0,0,1,453,509.16Z"/><path class="cls-8" d="M455,512.76a.48.48,0,0,1-.34.1.4.4,0,0,1-.22-.15l-.7-.8c-.11-.12-.16-.23-.13-.31a.51.51,0,0,1,.2-.22,12.22,12.22,0,0,0,1.66-1.33,6.88,6.88,0,0,0,1.19-1.52,7.11,7.11,0,0,0,.7-1.88,10.86,10.86,0,0,0,.24-2.41.3.3,0,0,1,.08-.2.26.26,0,0,1,.17-.09l1.5.07c.15,0,.22.09.22.26a12.17,12.17,0,0,1-.25,2.63,5.81,5.81,0,0,0,.7,1.23,8.68,8.68,0,0,0,.94,1.06,7.92,7.92,0,0,0,1,.85,6.39,6.39,0,0,0,1,.57c.2.08.23.21.11.41l-.6.93a.31.31,0,0,1-.46.14,7.87,7.87,0,0,1-1.93-1.25,9,9,0,0,1-1.52-1.76,8.19,8.19,0,0,1-1.46,2A14.14,14.14,0,0,1,455,512.76Zm11.63,3.76a2.36,2.36,0,0,1-.39,1.31,3.23,3.23,0,0,1-1.07,1,5.68,5.68,0,0,1-1.62.67,8.15,8.15,0,0,1-2,.24,8.39,8.39,0,0,1-2.09-.24,5.21,5.21,0,0,1-1.6-.67,3.23,3.23,0,0,1-1-1,2.49,2.49,0,0,1-.36-1.32,2.46,2.46,0,0,1,.36-1.31,3.23,3.23,0,0,1,1-1,5.21,5.21,0,0,1,1.6-.67,8.39,8.39,0,0,1,2.09-.24,8.15,8.15,0,0,1,2,.24,6,6,0,0,1,1.62.66,3.18,3.18,0,0,1,1.07,1A2.38,2.38,0,0,1,466.67,516.52Zm-2,.05a1.17,1.17,0,0,0-.25-.75,2,2,0,0,0-.69-.54,3.76,3.76,0,0,0-1-.34,5.65,5.65,0,0,0-1.19-.12,4.65,4.65,0,0,0-2.2.45,1.41,1.41,0,0,0-.84,1.3,1.1,1.1,0,0,0,.23.71,1.78,1.78,0,0,0,.62.52,3.45,3.45,0,0,0,1,.32,5.83,5.83,0,0,0,1.22.11,5.66,5.66,0,0,0,1.19-.11,3.76,3.76,0,0,0,1-.32,2.06,2.06,0,0,0,.69-.52A1.06,1.06,0,0,0,464.66,516.57Zm4.31-7.21a.23.23,0,0,1-.16.07H466.5v3.4a.28.28,0,0,1-.07.16.23.23,0,0,1-.16.08h-1.51a.21.21,0,0,1-.15-.08.24.24,0,0,1-.07-.18v-9a.2.2,0,0,1,.22-.22h1.51a.2.2,0,0,1,.23.22v4h2.31a.27.27,0,0,1,.16.06.19.19,0,0,1,.08.15v1.19A.22.22,0,0,1,469,509.36Z"/><path class="cls-8" d="M477.83,508.55a.25.25,0,0,1-.18.08h-7.6a.26.26,0,0,1-.18-.09.24.24,0,0,1-.09-.18v-1a.24.24,0,0,1,.09-.17.26.26,0,0,1,.18-.09h7.6a.25.25,0,0,1,.18.08.24.24,0,0,1,.07.18v1.05A.24.24,0,0,1,477.83,508.55Zm-3.79.95a3.62,3.62,0,0,1,1.41.27,3.31,3.31,0,0,1,1.09.73,3.27,3.27,0,0,1,.71,1.08,3.66,3.66,0,0,1,.25,1.33,3.77,3.77,0,0,1-.25,1.35,3.21,3.21,0,0,1-.71,1.09,3.17,3.17,0,0,1-1.09.73,3.62,3.62,0,0,1-1.41.27,3.57,3.57,0,0,1-1.4-.27,3.15,3.15,0,0,1-1.78-1.82,3.56,3.56,0,0,1-.25-1.35,3.46,3.46,0,0,1,.25-1.33,3.22,3.22,0,0,1,.69-1.08,3.31,3.31,0,0,1,1.09-.73A3.57,3.57,0,0,1,474,509.5Zm2.1-3.5a.24.24,0,0,1-.19.1h-4.08a.27.27,0,0,1-.16-.08.23.23,0,0,1-.1-.2v-1a.22.22,0,0,1,.1-.19.25.25,0,0,1,.16-.07H476a.23.23,0,0,1,.18.09.24.24,0,0,1,.09.18v1A.29.29,0,0,1,476.14,506Zm-2.1,5a1.64,1.64,0,0,0-.71.15,1.41,1.41,0,0,0-.54.42,1.82,1.82,0,0,0-.34.61,2.18,2.18,0,0,0-.12.72,2.25,2.25,0,0,0,.12.74,2,2,0,0,0,.34.62,1.43,1.43,0,0,0,.54.43,1.64,1.64,0,0,0,.71.15,1.67,1.67,0,0,0,.73-.15,1.55,1.55,0,0,0,.55-.43,2,2,0,0,0,.34-.62,2.25,2.25,0,0,0,.12-.74,2.18,2.18,0,0,0-.12-.72,1.82,1.82,0,0,0-.34-.61,1.52,1.52,0,0,0-.55-.42A1.67,1.67,0,0,0,474,511Zm7.94-7.18c0-.14.08-.22.24-.22h1.46a.2.2,0,0,1,.22.22v15.7a.2.2,0,0,1-.22.22H482.2a.2.2,0,0,1-.22-.22v-8h-1.44v7.38c0,.16-.08.24-.22.24h-1.4a.21.21,0,0,1-.24-.24V504.14c0-.15.08-.22.24-.22h1.4a.2.2,0,0,1,.22.22v5.73H482Z"/><path class="cls-8" d="M500.68,516.91a.25.25,0,0,1-.17.08h-14.8a.21.21,0,0,1-.17-.08.27.27,0,0,1-.07-.17v-1.11a.24.24,0,0,1,.07-.18.2.2,0,0,1,.17-.09h6.42v-3.11H489a1.52,1.52,0,0,1-1-.25,1.31,1.31,0,0,1-.27-1v-6.49a.18.18,0,0,1,.07-.15.2.2,0,0,1,.15,0h1.5a.25.25,0,0,1,.16,0,.18.18,0,0,1,.07.15V507h6.84v-2.42a.19.19,0,0,1,.07-.15.18.18,0,0,1,.15-.07h1.51a.18.18,0,0,1,.15.07.19.19,0,0,1,.07.15v6.58a1.2,1.2,0,0,1-.27.85,1.37,1.37,0,0,1-1,.29h-3.11v3.11h6.42a.22.22,0,0,1,.17.09.3.3,0,0,1,.09.18v1.11A.26.26,0,0,1,500.68,516.91Zm-4.16-8.38h-6.84v1.83c0,.2.11.29.31.29h6.22c.21,0,.31-.09.31-.29Z"/><path class="cls-8" d="M503.05,515.89a.35.35,0,0,1-.55,0l-.76-.75a.31.31,0,0,1,0-.51,8.3,8.3,0,0,0,1.53-1.9,10.54,10.54,0,0,0,1-2.27,14.73,14.73,0,0,0,.54-2.63,28.6,28.6,0,0,0,.16-3c0-.17.07-.25.22-.25l1.41.05a.27.27,0,0,1,.17.08.21.21,0,0,1,.08.17c0,.86,0,1.64-.07,2.36a15.34,15.34,0,0,1-.27,2,9.09,9.09,0,0,0,.51,1.46,11.37,11.37,0,0,0,.77,1.42,12.14,12.14,0,0,0,.88,1.23,6.06,6.06,0,0,0,.89.92c.17.15.18.3.05.44l-.78.8a.31.31,0,0,1-.51,0,5.14,5.14,0,0,1-.73-.64c-.24-.27-.48-.55-.71-.85a11.09,11.09,0,0,1-.65-1,10,10,0,0,1-.5-1,10,10,0,0,1-1.12,2A13.73,13.73,0,0,1,503.05,515.89Zm9.29,3.31H511c-.17,0-.25-.08-.25-.24v-8.39h-2.55a.31.31,0,0,1-.17-.07.22.22,0,0,1-.07-.17v-1.16A.17.17,0,0,1,508,509a.29.29,0,0,1,.17-.06h2.55v-4.86c0-.15.08-.22.25-.22h1.39c.15,0,.23.07.23.22V519A.21.21,0,0,1,512.34,519.2Zm3.3.58h-1.48a.2.2,0,0,1-.22-.22V503.83c0-.14.08-.22.24-.22h1.46a.2.2,0,0,1,.22.22v15.73A.19.19,0,0,1,515.64,519.78Z"/><path class="cls-8" d="M532.64,516.91a.25.25,0,0,1-.17.08h-14.8a.21.21,0,0,1-.17-.08.27.27,0,0,1-.07-.17v-1.11q0-.27.24-.27h3.4v-2.65c0-.16.08-.24.25-.24h1.46c.17,0,.26.08.26.24v2.65h4.06v-2.65c0-.16.09-.24.26-.24h1.46a.24.24,0,0,1,.18.07.21.21,0,0,1,.07.17v2.65h3.4a.22.22,0,0,1,.17.09.23.23,0,0,1,.09.18v1.11A.26.26,0,0,1,532.64,516.91Zm-7.58-5a9,9,0,0,1-2.12-.24,6.12,6.12,0,0,1-1.77-.7A3.67,3.67,0,0,1,520,509.8a3,3,0,0,1-.44-1.6,2.88,2.88,0,0,1,.44-1.57,3.64,3.64,0,0,1,1.21-1.16,5.87,5.87,0,0,1,1.77-.72,9,9,0,0,1,2.12-.23,9.27,9.27,0,0,1,2.15.23,5.77,5.77,0,0,1,1.77.72,3.81,3.81,0,0,1,1.2,1.16,2.88,2.88,0,0,1,.44,1.57,3,3,0,0,1-.44,1.6A3.84,3.84,0,0,1,529,511a6,6,0,0,1-1.77.7A9.26,9.26,0,0,1,525.06,511.91Zm0-5.78a6.35,6.35,0,0,0-1.32.14,4.83,4.83,0,0,0-1.13.41,2.46,2.46,0,0,0-.79.66,1.4,1.4,0,0,0-.3.88,1.44,1.44,0,0,0,.3.9,2.46,2.46,0,0,0,.79.66,4.42,4.42,0,0,0,1.13.4,5.8,5.8,0,0,0,2.62,0,4.56,4.56,0,0,0,1.13-.4,2.46,2.46,0,0,0,.79-.66,1.44,1.44,0,0,0,.3-.9,1.4,1.4,0,0,0-.3-.88,2.46,2.46,0,0,0-.79-.66,5,5,0,0,0-1.13-.41A6.31,6.31,0,0,0,525.08,506.13Z"/><path class="cls-8" d="M535.77,519a1.3,1.3,0,0,1-1.31-1.31,1.24,1.24,0,0,1,.38-.91,1.3,1.3,0,0,1,.93-.38,1.26,1.26,0,0,1,.92.38,1.23,1.23,0,0,1,.37.91,1.26,1.26,0,0,1-.37.93A1.22,1.22,0,0,1,535.77,519Z"/><path class="cls-8" d="M394.06,10.77a.24.24,0,0,1-.17.09H387.5v5.39a.21.21,0,0,1-.24.24h-1.48a.21.21,0,0,1-.24-.24V10.86h-6.46a.21.21,0,0,1-.17-.09.41.41,0,0,1-.07-.18V9.48a.34.34,0,0,1,.07-.18.22.22,0,0,1,.17-.07h14.81a.27.27,0,0,1,.17.08.24.24,0,0,1,.08.17v1.11A.28.28,0,0,1,394.06,10.77Zm-2.17-3.34a.2.2,0,0,1-.14.06h-9.42a1.21,1.21,0,0,1-.95-.31,1.35,1.35,0,0,1-.27-.91V1.94a1.08,1.08,0,0,1,.28-.88,1.56,1.56,0,0,1,.94-.23h9.26c.16,0,.24.07.24.22V2.24c0,.15-.08.22-.24.22h-8.22c-.21,0-.31.1-.31.29V5.56c0,.2.1.3.31.3h8.31a.35.35,0,0,1,.2,0c.05,0,.07.08.07.17V7.22A.28.28,0,0,1,391.89,7.43Z"/><path class="cls-8" d="M414.78,10.06a.24.24,0,0,1-.17.09H399.82a.23.23,0,0,1-.17-.08.29.29,0,0,1-.07-.18V8.75a.21.21,0,0,1,.24-.24h6.43V6.29c0-.17.08-.26.24-.26h1.39a.24.24,0,0,1,.18.07.25.25,0,0,1,.07.19V8.51h6.48a.27.27,0,0,1,.17.08.22.22,0,0,1,.09.16V9.89A.24.24,0,0,1,414.78,10.06Zm-12.9-3c-.25.08-.4.05-.46-.1L401,5.93a.31.31,0,0,1,0-.19.18.18,0,0,1,.15-.13,8.61,8.61,0,0,0,3.68-1.8A4.38,4.38,0,0,0,406.23.92a.28.28,0,0,1,.32-.28l1.35,0c.16,0,.23.08.23.24s0,.24,0,.35a2.91,2.91,0,0,1,0,.31,4.2,4.2,0,0,0,.8,1.28A7.73,7.73,0,0,0,410.15,4a9.15,9.15,0,0,0,1.56.89,9.17,9.17,0,0,0,1.66.59.24.24,0,0,1,.15.13.23.23,0,0,1,0,.18l-.51,1c-.05.15-.18.21-.39.17a7,7,0,0,1-1.46-.43,10.53,10.53,0,0,1-1.49-.77,9.72,9.72,0,0,1-1.34-1,6.18,6.18,0,0,1-1-1.17,7.15,7.15,0,0,1-2.2,2.18A9.9,9.9,0,0,1,401.88,7.1Zm11,9.06a.28.28,0,0,1-.17.05h-9.35a1.51,1.51,0,0,1-1-.27A1.34,1.34,0,0,1,402,15V11.59a.27.27,0,0,1,.08-.17.19.19,0,0,1,.16-.08h1.46a.22.22,0,0,1,.18.08.27.27,0,0,1,.08.17v2.72a.29.29,0,0,0,.06.22.42.42,0,0,0,.26.05h8.38a.29.29,0,0,1,.17.06.18.18,0,0,1,.09.15V16A.16.16,0,0,1,412.86,16.16Z"/><path class="cls-8" d="M424.22,3a11.63,11.63,0,0,1-.63,3,11.29,11.29,0,0,1-1.41,2.71A13.27,13.27,0,0,1,420,11.1a16,16,0,0,1-2.83,2,.49.49,0,0,1-.28.06.27.27,0,0,1-.23-.14l-.69-.84a.3.3,0,0,1-.05-.24.39.39,0,0,1,.16-.2,12.69,12.69,0,0,0,4.09-3.42,9.29,9.29,0,0,0,1.91-4.35c0-.23,0-.38,0-.45a.56.56,0,0,0-.4-.11h-4.8c-.15,0-.22-.08-.22-.24V2c0-.13.07-.2.22-.2H423a1.24,1.24,0,0,1,1,.31A1.41,1.41,0,0,1,424.22,3ZM431,8.24a.23.23,0,0,1-.17.07h-2.3v8.07c0,.15-.07.23-.22.23h-1.51c-.15,0-.22-.08-.22-.23V.69a.2.2,0,0,1,.22-.22h1.51a.2.2,0,0,1,.22.22v6h2.3a.27.27,0,0,1,.17.06.16.16,0,0,1,.08.14V8.07A.19.19,0,0,1,431,8.24Z"/><path class="cls-8" d="M441.76,8.78a.3.3,0,0,1-.15.09c-.54.1-1.12.19-1.75.27s-1.29.14-2,.19-1.34.08-2,.09-1.32,0-1.92,0a1.42,1.42,0,0,1-.9-.28,1.07,1.07,0,0,1-.24-.78V5.52a1,1,0,0,1,.23-.75,1.15,1.15,0,0,1,.78-.22h3.92a.5.5,0,0,0,.23,0,.45.45,0,0,0,0-.22V3c0-.13,0-.2,0-.22s-.1,0-.23,0h-4.62a.21.21,0,0,1-.16-.07.19.19,0,0,1-.08-.15V1.42a.19.19,0,0,1,.08-.14.25.25,0,0,1,.16-.06h5.68a1.22,1.22,0,0,1,.9.26,1.28,1.28,0,0,1,.24.86V4.89a1.13,1.13,0,0,1-.27.87,1.14,1.14,0,0,1-.8.24H435a.32.32,0,0,0-.19,0,.28.28,0,0,0-.05.2V7.58c0,.19.11.29.31.29,1,0,2.1,0,3.21-.08a28.75,28.75,0,0,0,3.06-.35.37.37,0,0,1,.18,0,.15.15,0,0,1,.11.13l.17,1A.2.2,0,0,1,441.76,8.78Zm2.66,7.72a.21.21,0,0,1-.16.07H442.8a.24.24,0,0,1-.18-.07.27.27,0,0,1-.08-.17v-3.5a.26.26,0,0,0-.07-.22.41.41,0,0,0-.23,0h-7.69a.27.27,0,0,1-.17-.07.19.19,0,0,1-.08-.15V11.13a.16.16,0,0,1,.08-.15.3.3,0,0,1,.17-.05h8.83a1.18,1.18,0,0,1,.88.26,1.36,1.36,0,0,1,.24.91v4.23A.27.27,0,0,1,444.42,16.5ZM447,6.17a.28.28,0,0,1-.16.07h-2.32V9.86a.2.2,0,0,1-.22.22h-1.51c-.15,0-.22-.08-.22-.24V.69a.2.2,0,0,1,.22-.22h1.51a.2.2,0,0,1,.22.22V4.6h2.32a.28.28,0,0,1,.16.07.21.21,0,0,1,.07.15V6A.21.21,0,0,1,447,6.17Z"/><path class="cls-8" d="M462.74,13.65a.29.29,0,0,1-.17.08H447.76a.23.23,0,0,1-.17-.08.27.27,0,0,1-.07-.17V12.36a.24.24,0,0,1,.07-.18.23.23,0,0,1,.17-.08h14.81a.26.26,0,0,1,.17.09.25.25,0,0,1,.08.17v1.12A.29.29,0,0,1,462.74,13.65ZM455.17,9.3A8.21,8.21,0,0,1,453,9a5.73,5.73,0,0,1-1.77-.78A4,4,0,0,1,450,7a3.11,3.11,0,0,1-.42-1.6,3.11,3.11,0,0,1,.42-1.6,4,4,0,0,1,1.17-1.22A5.73,5.73,0,0,1,453,1.82a8.86,8.86,0,0,1,4.42,0,5.73,5.73,0,0,1,1.77.78,3.73,3.73,0,0,1,1.16,1.22,3.11,3.11,0,0,1,.42,1.6,3.11,3.11,0,0,1-.42,1.6,3.73,3.73,0,0,1-1.16,1.22,5.73,5.73,0,0,1-1.77.78A8.16,8.16,0,0,1,455.17,9.3Zm0-6.14a5.51,5.51,0,0,0-1.36.16,4,4,0,0,0-1.13.46,2.64,2.64,0,0,0-.77.71,1.64,1.64,0,0,0,0,1.86,2.45,2.45,0,0,0,.77.73,4,4,0,0,0,1.13.46,6,6,0,0,0,1.36.16,6,6,0,0,0,1.36-.16,4,4,0,0,0,1.13-.46,2.35,2.35,0,0,0,.77-.73,1.68,1.68,0,0,0,0-1.86,2.52,2.52,0,0,0-.77-.71,4,4,0,0,0-1.13-.46A5.45,5.45,0,0,0,455.17,3.16Z"/><path class="cls-8" d="M478.72,13.77a.29.29,0,0,1-.17.08H463.74a.23.23,0,0,1-.17-.08.27.27,0,0,1-.07-.17V12.53a.28.28,0,0,1,.07-.19.21.21,0,0,1,.17-.09h6.44V9.72h-3a3.32,3.32,0,0,1-.61-.05.72.72,0,0,1-.38-.19.65.65,0,0,1-.18-.35,2.1,2.1,0,0,1-.05-.55V5.84a2.15,2.15,0,0,1,.05-.55.66.66,0,0,1,.18-.34.79.79,0,0,1,.38-.17,3.44,3.44,0,0,1,.61,0h7.07c.12,0,.19,0,.21,0a.37.37,0,0,0,.05-.23V3.14c0-.12,0-.19-.05-.21a.4.4,0,0,0-.21,0h-8a.21.21,0,0,1-.16-.07.28.28,0,0,1-.07-.16V1.53a.26.26,0,0,1,.07-.16.25.25,0,0,1,.16-.06h8.94a1.46,1.46,0,0,1,1,.23,1.18,1.18,0,0,1,.25.89V5.18a1.18,1.18,0,0,1-.25.89,1.46,1.46,0,0,1-1,.23h-7.09a.39.39,0,0,0-.21,0,.38.38,0,0,0,0,.2V7.88c0,.13,0,.21,0,.23a.33.33,0,0,0,.22.05h8.43a.24.24,0,0,1,.15.06.16.16,0,0,1,.07.14V9.5a.19.19,0,0,1-.08.15.21.21,0,0,1-.14.07h-4.37v2.53h6.41a.28.28,0,0,1,.17.1.29.29,0,0,1,.08.18V13.6A.29.29,0,0,1,478.72,13.77Z"/><path class="cls-8" d="M484.75,9.58c.65,0,1.32,0,2,.05l2.09,0V8.75a4,4,0,0,1-2-.75,1.74,1.74,0,0,1-.74-1.41,1.64,1.64,0,0,1,.26-.88,2.44,2.44,0,0,1,.75-.71,3.76,3.76,0,0,1,1.15-.48,6.79,6.79,0,0,1,3,0,3.71,3.71,0,0,1,1.16.48,2.4,2.4,0,0,1,.74.71,1.64,1.64,0,0,1,.26.88A1.75,1.75,0,0,1,492.71,8a4,4,0,0,1-1.94.77v.8c.65,0,1.27,0,1.88-.1s1.19-.1,1.76-.17a.4.4,0,0,1,.18,0c.06,0,.09.07.11.15l.08,1a.23.23,0,0,1,0,.2.3.3,0,0,1-.15.09c-.79.09-1.61.17-2.48.23l-2.58.15-2.51.06c-.81,0-1.57,0-2.26,0a.23.23,0,0,1-.17-.08.29.29,0,0,1-.07-.18v-1A.21.21,0,0,1,484.75,9.58ZM494,3.8a.22.22,0,0,1-.17.09h-8.49a.26.26,0,0,1-.17-.09.34.34,0,0,1-.08-.2V2.77a.22.22,0,0,1,.09-.17.26.26,0,0,1,.18-.09h8.47a.25.25,0,0,1,.17.08.22.22,0,0,1,.08.18v.85A.22.22,0,0,1,494,3.8Zm3.23,12.75a.21.21,0,0,1-.16.07h-1.46a.24.24,0,0,1-.18-.07.23.23,0,0,1-.07-.17v-2.6a.3.3,0,0,0-.07-.22.51.51,0,0,0-.26-.05h-8.24a.21.21,0,0,1-.16-.07.19.19,0,0,1-.08-.15V12.15a.16.16,0,0,1,.08-.15.24.24,0,0,1,.16-.05h9.4a1.18,1.18,0,0,1,.88.26,1.36,1.36,0,0,1,.24.91v3.26A.21.21,0,0,1,497.25,16.55ZM491.92,1.83a.28.28,0,0,1-.22.09h-4.18a.32.32,0,0,1-.17-.07.22.22,0,0,1-.1-.19V.8a.21.21,0,0,1,.1-.19.32.32,0,0,1,.17-.07h4.18a.29.29,0,0,1,.21.09.27.27,0,0,1,.08.18v.84A.26.26,0,0,1,491.92,1.83Zm-2.17,3.84a2.56,2.56,0,0,0-1.28.28.75.75,0,0,0-.47.64c0,.24.15.45.47.64a3.07,3.07,0,0,0,2.56,0c.31-.19.47-.4.47-.64A.77.77,0,0,0,491,6,2.56,2.56,0,0,0,489.75,5.67Zm9.95,1.74a.26.26,0,0,1-.16.07h-2.23v3.46c0,.15-.07.23-.22.23h-1.51c-.15,0-.22-.08-.22-.23V.69a.2.2,0,0,1,.22-.22h1.51a.2.2,0,0,1,.22.22V5.84h2.23a.25.25,0,0,1,.16.06.19.19,0,0,1,.08.15V7.26A.22.22,0,0,1,499.7,7.41Z"/><path class="cls-8" d="M508.53,11.46l-.18.1a11,11,0,0,1-1.34.26c-.51.07-1.05.13-1.61.18s-1.12.08-1.68.09a14.11,14.11,0,0,1-1.48,0,1.64,1.64,0,0,1-.92-.29,1,1,0,0,1-.32-.85v-8a1.13,1.13,0,0,1,.25-.84,1.32,1.32,0,0,1,.89-.23h4.93a.21.21,0,0,1,.24.23V3.23c0,.14-.08.22-.24.22h-3.79c-.21,0-.32.09-.32.29v6.2a.47.47,0,0,0,.09.35.86.86,0,0,0,.42.11,5.11,5.11,0,0,0,.93,0c.39,0,.8,0,1.23-.08s.87-.09,1.3-.15.79-.12,1.11-.18a.28.28,0,0,1,.22,0,.21.21,0,0,1,.14.17l.2,1A.2.2,0,0,1,508.53,11.46ZM512.72.69c0-.14.07-.22.23-.22h1.47a.2.2,0,0,1,.22.22V16.38a.2.2,0,0,1-.22.23h-1.48c-.15,0-.22-.08-.22-.23v-8h-1.59v7.4c0,.16-.07.24-.22.24h-1.39a.21.21,0,0,1-.24-.24V1c0-.15.08-.22.24-.22h1.39a.19.19,0,0,1,.22.22V6.71h1.59Z"/><path class="cls-8" d="M526.33,14.65a1.34,1.34,0,0,1-.33,0,.36.36,0,0,1-.2-.13l-1-1a5.17,5.17,0,0,1-3.68,1.46,5.47,5.47,0,0,1-1.62-.23,4,4,0,0,1-1.37-.69,3.39,3.39,0,0,1-.95-1.16,3.6,3.6,0,0,1-.36-1.66A3.61,3.61,0,0,1,517.53,9a5.31,5.31,0,0,1,1.92-1.55,10.82,10.82,0,0,1-.91-1.29,2.91,2.91,0,0,1-.4-1.55,2.64,2.64,0,0,1,.32-1.3,3,3,0,0,1,.83-.95,3.61,3.61,0,0,1,1.16-.58,4.45,4.45,0,0,1,1.29-.2,4.15,4.15,0,0,1,1.22.19,3.28,3.28,0,0,1,1,.55,2.74,2.74,0,0,1,.7.91A2.84,2.84,0,0,1,525,4.5a3.16,3.16,0,0,1-.63,1.87,5,5,0,0,1-2,1.53l2.49,2.81a3.89,3.89,0,0,0,.52-1.25A6.07,6.07,0,0,0,525.5,8a.58.58,0,0,1,0-.29.44.44,0,0,1,.26,0H527a.38.38,0,0,1,.24,0,.58.58,0,0,1,0,.29A6.72,6.72,0,0,1,527.19,9a10.66,10.66,0,0,1-.25,1.12,8,8,0,0,1-.4,1A5.16,5.16,0,0,1,526,12l2.05,2.26a.35.35,0,0,1,.12.24c0,.08-.09.12-.29.12Zm-6.41-5.5a3.17,3.17,0,0,0-.57.53,2.81,2.81,0,0,0-.39.64,2.14,2.14,0,0,0-.14.76A2.06,2.06,0,0,0,519,12a1.82,1.82,0,0,0,.53.66,2.21,2.21,0,0,0,.76.4,2.93,2.93,0,0,0,.9.14,3.2,3.2,0,0,0,1.28-.29,3.8,3.8,0,0,0,1.15-.77l-3-3.38A6.71,6.71,0,0,0,519.92,9.15Zm1.75-5.84a1.92,1.92,0,0,0-1.11.34,1.19,1.19,0,0,0-.48,1,1.82,1.82,0,0,0,.29.83,8.42,8.42,0,0,0,.78,1.16c.21-.1.43-.21.64-.33a3.63,3.63,0,0,0,.59-.41,1.9,1.9,0,0,0,.43-.54,1.39,1.39,0,0,0,.17-.73,1.46,1.46,0,0,0-.32-.95A1.19,1.19,0,0,0,521.67,3.31Z"/><path class="cls-8" d="M541.33,16.55a.21.21,0,0,1-.16.07h-1.46a.24.24,0,0,1-.18-.07.23.23,0,0,1-.07-.17V13.53a.31.31,0,0,0-.07-.24.51.51,0,0,0-.26,0h-8.24a.25.25,0,0,1-.16-.06.16.16,0,0,1-.08-.14V11.86a.17.17,0,0,1,.08-.16.25.25,0,0,1,.16-.06h4.33V10.32H528.8a.21.21,0,0,1-.24-.24V9a.24.24,0,0,1,.07-.18.21.21,0,0,1,.17-.08h14.79a.26.26,0,0,1,.17.09.25.25,0,0,1,.08.17v1.07a.24.24,0,0,1-.08.16.29.29,0,0,1-.17.08h-6.41v1.32h3.11a1.14,1.14,0,0,1,.88.27,1.41,1.41,0,0,1,.24.92v3.55A.25.25,0,0,1,541.33,16.55ZM530.84,8a.46.46,0,0,1-.26,0,.25.25,0,0,1-.17-.14l-.29-1a.21.21,0,0,1,0-.2.28.28,0,0,1,.18-.14c1.36-.26,2.63-.56,3.8-.89a21.09,21.09,0,0,0,3.19-1.17.67.67,0,0,0,.2-.11s0-.05,0-.06,0,0-.09,0h-6c-.16,0-.24-.07-.24-.22V3q0-.21.24-.21h7.71a1.94,1.94,0,0,1,1.11.25.68.68,0,0,1,.36.55,1,1,0,0,1-.18.56,2.27,2.27,0,0,1-.44.49,6,6,0,0,1-1.59,1.06l1.8.36,1.87.3a.23.23,0,0,1,.18.15.26.26,0,0,1,0,.21l-.25.88a.38.38,0,0,1-.15.16.33.33,0,0,1-.26,0c-.82-.13-1.7-.3-2.65-.51s-1.87-.44-2.74-.7q-1.25.43-2.64.81C532.68,7.61,531.75,7.81,530.84,8Zm7.56-6a.3.3,0,0,1-.2.08h-4.35a.29.29,0,0,1-.17-.07.2.2,0,0,1-.09-.18V.88a.23.23,0,0,1,.09-.19.35.35,0,0,1,.17-.06h4.35a.25.25,0,0,1,.19.08.24.24,0,0,1,.1.19v.9A.26.26,0,0,1,538.4,2Z"/><path class="cls-8" d="M559.75,13.77a.25.25,0,0,1-.17.08h-14.8a.21.21,0,0,1-.17-.07.26.26,0,0,1-.07-.18V12.48a.24.24,0,0,1,.07-.18.21.21,0,0,1,.17-.08h6.39V8.58a.21.21,0,0,1,.24-.24h1.47a.29.29,0,0,1,.18.07.23.23,0,0,1,.08.17v3.64h6.44a.25.25,0,0,1,.17.08.26.26,0,0,1,.09.18V13.6A.26.26,0,0,1,559.75,13.77ZM546.53,9.19a.22.22,0,0,1-.18,0,.3.3,0,0,1-.2-.16l-.61-1a.28.28,0,0,1,0-.25.28.28,0,0,1,.18-.14,15.2,15.2,0,0,0,2.24-1,6.76,6.76,0,0,0,1.62-1.27,5.69,5.69,0,0,0,1-1.63,7.24,7.24,0,0,0,.51-2.13.7.7,0,0,1,.08-.23.19.19,0,0,1,.2-.11l1.47.07c.2,0,.29.14.28.38a4.38,4.38,0,0,1-.11.83A5,5,0,0,0,553.77,4,6.72,6.72,0,0,0,555,5.41a9,9,0,0,0,1.64,1.1,9.74,9.74,0,0,0,1.87.75.22.22,0,0,1,.14.14.27.27,0,0,1,0,.2l-.56,1.08a.33.33,0,0,1-.41.19,9.07,9.07,0,0,1-1.57-.58,10.62,10.62,0,0,1-1.53-.88,9.59,9.59,0,0,1-1.34-1.12,6.56,6.56,0,0,1-1-1.34,8.07,8.07,0,0,1-2.32,2.56A12.29,12.29,0,0,1,546.53,9.19Z"/><path class="cls-8" d="M570.33,3.93a.25.25,0,0,1-.17.08h-9a.26.26,0,0,1-.19-.09.24.24,0,0,1-.08-.2V2.84a.22.22,0,0,1,.09-.17.28.28,0,0,1,.19-.09h8.95a.25.25,0,0,1,.17.08.22.22,0,0,1,.08.18v.9A.22.22,0,0,1,570.33,3.93Zm-4.51.61a5.57,5.57,0,0,1,1.44.18,3.71,3.71,0,0,1,1.17.54,2.46,2.46,0,0,1,.78.83,2.06,2.06,0,0,1,.28,1.07,2,2,0,0,1-.29,1.1,2.6,2.6,0,0,1-.78.84,3.9,3.9,0,0,1-1.16.55,5.61,5.61,0,0,1-1.46.19,5.36,5.36,0,0,1-1.42-.19,3.9,3.9,0,0,1-1.16-.55,2.46,2.46,0,0,1-.77-.84,2.12,2.12,0,0,1-.28-1.1,2.06,2.06,0,0,1,.28-1.07,2.37,2.37,0,0,1,.78-.83,3.76,3.76,0,0,1,1.16-.54A5.44,5.44,0,0,1,565.82,4.54Zm2.32-2.69a.26.26,0,0,1-.21.09h-4.4a.31.31,0,0,1-.16-.07.22.22,0,0,1-.1-.19V.78a.22.22,0,0,1,.1-.19.31.31,0,0,1,.16-.07h4.4a.25.25,0,0,1,.2.09.26.26,0,0,1,.09.19v.86A.29.29,0,0,1,568.14,1.85Zm5.71,14.66a.23.23,0,0,1-.14.08h-9.06a1.25,1.25,0,0,1-.91-.26,1.07,1.07,0,0,1-.25-.79V13.9a1.07,1.07,0,0,1,.24-.78,1.28,1.28,0,0,1,.9-.24h6.75c.1,0,.16,0,.19,0a.38.38,0,0,0,0-.19v-.31c0-.13,0-.2,0-.22a.39.39,0,0,0-.21,0H563.7a.25.25,0,0,1-.16-.06.15.15,0,0,1-.08-.14V10.83a.22.22,0,0,1,.08-.17.21.21,0,0,1,.16-.07h8.63a1.37,1.37,0,0,1,.95.23,1.17,1.17,0,0,1,.22.82v1.58a1.2,1.2,0,0,1-.22.83,1.42,1.42,0,0,1-.95.23h-6.7c-.1,0-.16,0-.18,0a.26.26,0,0,0,0,.18v.39c0,.11,0,.18,0,.19a.38.38,0,0,0,.2,0h8a.25.25,0,0,1,.16.06.17.17,0,0,1,.08.16v1A.19.19,0,0,1,573.85,16.51ZM565.82,6a2.36,2.36,0,0,0-1.32.34,1,1,0,0,0-.51.84,1.07,1.07,0,0,0,.51.9,2.36,2.36,0,0,0,1.32.35,2.32,2.32,0,0,0,1.33-.35,1.07,1.07,0,0,0,.51-.9,1,1,0,0,0-.51-.84A2.32,2.32,0,0,0,565.82,6ZM576,6.1a.24.24,0,0,1-.18.07h-2.3v3.5a.25.25,0,0,1-.06.16.23.23,0,0,1-.16.08h-1.51a.19.19,0,0,1-.15-.08.24.24,0,0,1-.07-.18v-9a.2.2,0,0,1,.22-.22h1.51a.2.2,0,0,1,.22.22V4.54h2.3a.28.28,0,0,1,.18.06.23.23,0,0,1,.08.16V6A.22.22,0,0,1,576,6.1Z"/><path class="cls-8" d="M596.47,10.6a.22.22,0,0,1-.17.09h-6.44v5.56a.21.21,0,0,1-.24.24h-1.48a.21.21,0,0,1-.24-.24V10.69h-6.41a.22.22,0,0,1-.17-.09.38.38,0,0,1-.06-.18V9.31a.32.32,0,0,1,.06-.18.23.23,0,0,1,.17-.07H596.3a.25.25,0,0,1,.17.08.26.26,0,0,1,.09.17v1.11A.3.3,0,0,1,596.47,10.6ZM583.35,7.49a.5.5,0,0,1-.24,0,.22.22,0,0,1-.17-.09l-.58-1.09a.3.3,0,0,1,0-.23.29.29,0,0,1,.19-.15,13.69,13.69,0,0,0,2.17-.79,6.88,6.88,0,0,0,1.65-1.1,4.88,4.88,0,0,0,1.11-1.46A5.48,5.48,0,0,0,588,.73a.4.4,0,0,1,.09-.21.24.24,0,0,1,.21-.1l1.43,0c.16,0,.24.09.24.28s-.06.65-.1.93A4.26,4.26,0,0,0,590.63,3a7.72,7.72,0,0,0,1.26,1.14,9.1,9.1,0,0,0,1.6.9,11.4,11.4,0,0,0,1.79.6.35.35,0,0,1,.19.12.2.2,0,0,1,0,.2L595,7.09a.3.3,0,0,1-.36.17A9.74,9.74,0,0,1,593,6.77,9.81,9.81,0,0,1,591.37,6,10.16,10.16,0,0,1,590,5a4.88,4.88,0,0,1-1-1.14,7.22,7.22,0,0,1-2.27,2.23A11.32,11.32,0,0,1,583.35,7.49Z"/><path class="cls-8" d="M470.63,39a4,4,0,0,1-.3,1.56,3.44,3.44,0,0,1-.85,1.23,4,4,0,0,1-1.31.79,4.47,4.47,0,0,1-1.67.29,4.37,4.37,0,0,1-1.65-.29,3.83,3.83,0,0,1-1.29-.79,3.49,3.49,0,0,1-.82-1.23,4.16,4.16,0,0,1-.29-1.56,4,4,0,0,1,.29-1.53,3.63,3.63,0,0,1,.82-1.24,4.11,4.11,0,0,1,1.29-.84,4.37,4.37,0,0,1,1.65-.3,4.47,4.47,0,0,1,1.67.3,4.33,4.33,0,0,1,1.31.84,3.56,3.56,0,0,1,.85,1.24A3.87,3.87,0,0,1,470.63,39Zm-6.14,11.61a.81.81,0,0,1-.26.11c-.09,0-.17,0-.25-.13l-.65-.92a.26.26,0,0,1-.07-.2c0-.07.07-.14.19-.2a5.34,5.34,0,0,0,2.18-2,5.57,5.57,0,0,0,.68-2.72c0-.17.07-.26.22-.26l1.34,0c.16,0,.24.06.24.19s0,.37,0,.56a4.36,4.36,0,0,1,0,.52,3.83,3.83,0,0,0,.27.95,5.56,5.56,0,0,0,.44.84,4.19,4.19,0,0,0,.53.69,3.61,3.61,0,0,0,.58.5,1.22,1.22,0,0,0,.24.11c.07,0,.15,0,.25-.11a4.16,4.16,0,0,0,1.36-1.73,5.62,5.62,0,0,0,.45-2.28c0-.17.07-.26.22-.26l1.34,0a.34.34,0,0,1,.18,0,.16.16,0,0,1,.08.15,5.17,5.17,0,0,1,0,.57l-.06.55a4.43,4.43,0,0,0,.4,1.14,6.18,6.18,0,0,0,.66,1,6.49,6.49,0,0,0,.84.82,6.2,6.2,0,0,0,.92.59.34.34,0,0,1,.16.2.23.23,0,0,1-.06.19l-.68,1q-.09.15-.39,0a3.93,3.93,0,0,1-.71-.39,5.55,5.55,0,0,1-.73-.59,6.64,6.64,0,0,1-.68-.72,4.33,4.33,0,0,1-.54-.8,6.28,6.28,0,0,1-1.15,1.41,7.79,7.79,0,0,1-1.49,1,.69.69,0,0,1-.68,0,5,5,0,0,1-1.43-1A5.22,5.22,0,0,1,467.21,48,6.94,6.94,0,0,1,466,49.5,5.86,5.86,0,0,1,464.49,50.59ZM468.69,39a2.24,2.24,0,0,0-3.76-1.6,2.16,2.16,0,0,0-.59,1.6,2.18,2.18,0,0,0,.59,1.61A2.18,2.18,0,0,0,468.69,39Zm6.1,4.47h-1.51c-.15,0-.22-.08-.22-.23V34.69a.2.2,0,0,1,.22-.22h1.51a.2.2,0,0,1,.22.22v8.57A.19.19,0,0,1,474.79,43.48Z"/><path class="cls-8" d="M482.63,46.71a3.66,3.66,0,0,1-1.74-.41,3.83,3.83,0,0,1-1.31-1.16,5.53,5.53,0,0,1-.83-1.78,8.55,8.55,0,0,1-.29-2.27,8.82,8.82,0,0,1,.29-2.32,5.42,5.42,0,0,1,.83-1.76,3.55,3.55,0,0,1,1.31-1.13,3.66,3.66,0,0,1,1.74-.4,3.78,3.78,0,0,1,1.63.34,3.6,3.6,0,0,1,1.27,1,5,5,0,0,1,.86,1.5,7.4,7.4,0,0,1,.4,2h2.54V34.69a.2.2,0,0,1,.22-.22h1.51a.2.2,0,0,1,.22.22V50.38c0,.15-.07.23-.22.23h-1.51c-.15,0-.22-.08-.22-.23v-8.5h-2.54a7.46,7.46,0,0,1-.4,2,5.07,5.07,0,0,1-.86,1.52,3.62,3.62,0,0,1-1.27,1A3.78,3.78,0,0,1,482.63,46.71Zm2.28-5.62a6.48,6.48,0,0,0-.16-1.49,4.56,4.56,0,0,0-.44-1.23,2.5,2.5,0,0,0-.71-.85,1.6,1.6,0,0,0-1-.31,1.55,1.55,0,0,0-.95.31,2.6,2.6,0,0,0-.7.85,4.56,4.56,0,0,0-.44,1.23,6.92,6.92,0,0,0,0,3A4.76,4.76,0,0,0,481,43.8a2.87,2.87,0,0,0,.7.86,1.55,1.55,0,0,0,.95.32,1.61,1.61,0,0,0,1-.32,2.75,2.75,0,0,0,.71-.86,4.76,4.76,0,0,0,.44-1.24A6.43,6.43,0,0,0,484.91,41.09Z"/><path class="cls-8" d="M508.67,47.77a.25.25,0,0,1-.17.08H493.69a.25.25,0,0,1-.17-.08.32.32,0,0,1-.06-.17V46.49c0-.18.08-.27.23-.27h3.4V43.57c0-.16.09-.24.26-.24h1.46c.17,0,.26.08.26.24v2.65h4.06V43.57c0-.16.08-.24.25-.24h1.47a.26.26,0,0,1,.18.07.21.21,0,0,1,.07.17v2.65h3.4a.25.25,0,0,1,.17.08.26.26,0,0,1,.09.19V47.6A.26.26,0,0,1,508.67,47.77Zm-7.58-5a9.15,9.15,0,0,1-2.13-.24,6.17,6.17,0,0,1-1.76-.7A3.67,3.67,0,0,1,496,40.66a3,3,0,0,1-.44-1.6,2.88,2.88,0,0,1,.44-1.57,3.64,3.64,0,0,1,1.21-1.16,5.92,5.92,0,0,1,1.76-.72,9.15,9.15,0,0,1,2.13-.24,9.26,9.26,0,0,1,2.15.24,5.87,5.87,0,0,1,1.77.72,3.81,3.81,0,0,1,1.2,1.16,2.88,2.88,0,0,1,.44,1.57,3,3,0,0,1-.44,1.6,3.84,3.84,0,0,1-1.2,1.17,6.12,6.12,0,0,1-1.77.7A9.26,9.26,0,0,1,501.09,42.77Zm0-5.78a6.28,6.28,0,0,0-1.32.14,4.83,4.83,0,0,0-1.13.41,2.46,2.46,0,0,0-.79.66,1.4,1.4,0,0,0-.3.88,1.44,1.44,0,0,0,.3.9,2.46,2.46,0,0,0,.79.66,4.42,4.42,0,0,0,1.13.4,5.8,5.8,0,0,0,2.62,0,4.56,4.56,0,0,0,1.13-.4,2.46,2.46,0,0,0,.79-.66,1.44,1.44,0,0,0,.3-.9,1.4,1.4,0,0,0-.3-.88,2.46,2.46,0,0,0-.79-.66,5,5,0,0,0-1.13-.41A6.31,6.31,0,0,0,501.11,37Z"/><path class="cls-8" d="M511.8,49.89a1.3,1.3,0,0,1-.93-.38,1.28,1.28,0,0,1-.38-.93,1.22,1.22,0,0,1,.38-.91,1.3,1.3,0,0,1,.93-.38,1.26,1.26,0,0,1,.92.38,1.21,1.21,0,0,1,.37.91,1.27,1.27,0,0,1-.37.93A1.26,1.26,0,0,1,511.8,49.89Z"/><path class="cls-8" d="M69.13,12.61a.7.7,0,0,1-.16.1,11.48,11.48,0,0,1-1.46.3c-.61.09-1.24.17-1.91.22s-1.33.08-2,.09-1.21,0-1.69-.05c-.82-.07-1.22-.48-1.22-1.23V3.7A1.17,1.17,0,0,1,61,2.86a1.35,1.35,0,0,1,.9-.23h5.62c.17,0,.26.07.26.22V4c0,.15-.09.22-.26.22H63c-.21,0-.31.1-.31.29V6.94H65l1.11,0,1,0a.31.31,0,0,1,.13,0,.13.13,0,0,1,.07.12l0,1.18a.41.41,0,0,1,0,.21s-.07.07-.11.07c-.31,0-.66,0-1,.06l-1.15.05H62.66v2.6a.53.53,0,0,0,.09.37.68.68,0,0,0,.4.11c.36,0,.75,0,1.19,0s.89,0,1.36-.07l1.48-.15c.51-.07,1-.15,1.52-.25a.22.22,0,0,1,.3.19l.17.93C69.19,12.48,69.18,12.56,69.13,12.61Zm2.34-11a.2.2,0,0,1,.22-.22H73.2a.2.2,0,0,1,.22.22V17.26a.19.19,0,0,1-.22.22H71.69a.19.19,0,0,1-.22-.22V8.36H68.85a.31.31,0,0,1-.16-.07.27.27,0,0,1-.1-.21V7a.24.24,0,0,1,.1-.19.31.31,0,0,1,.16-.07h2.62Z"/><path class="cls-8" d="M77,13.8a.71.71,0,0,1-.28.06.3.3,0,0,1-.23-.13L76,12.91a.38.38,0,0,1-.06-.35.35.35,0,0,1,.18-.21,18.61,18.61,0,0,0,1.8-1.12,14.91,14.91,0,0,0,1.6-1.31,10.08,10.08,0,0,0,1.28-1.45,7.63,7.63,0,0,0,.88-1.56,1.43,1.43,0,0,0,.12-.35c0-.07-.12-.11-.39-.11H77a.21.21,0,0,1-.17-.08.28.28,0,0,1-.07-.19V5.06a.21.21,0,0,1,.08-.17A.24.24,0,0,1,77,4.82h5.72a1.49,1.49,0,0,1,1,.27.78.78,0,0,1,.29.58,2.84,2.84,0,0,1-.15.87,13.15,13.15,0,0,1-.64,1.37,10.24,10.24,0,0,1-.79,1.3c.22.23.45.47.71.72s.52.48.79.7.54.45.81.65.53.39.77.54a.22.22,0,0,1,.12.22.77.77,0,0,1-.1.26l-.65.9a.25.25,0,0,1-.2.12.45.45,0,0,1-.31-.1,8.11,8.11,0,0,1-.7-.5,9.56,9.56,0,0,1-.81-.67l-.81-.75a9.34,9.34,0,0,1-.7-.75A15.82,15.82,0,0,1,77,13.8ZM82.92,3.58a.24.24,0,0,1-.2.08H78.3a.32.32,0,0,1-.16-.06.23.23,0,0,1-.09-.19v-1a.2.2,0,0,1,.09-.18.27.27,0,0,1,.16-.07h4.42a.34.34,0,0,1,.2.08.26.26,0,0,1,.09.19v1A.26.26,0,0,1,82.92,3.58Zm6.23,13.68c0,.15-.08.22-.24.22h-1.5a.33.33,0,0,1-.16-.05.21.21,0,0,1-.08-.17V1.57a.22.22,0,0,1,.08-.15.23.23,0,0,1,.16-.07h1.5c.16,0,.24.08.24.22Z"/><path class="cls-8" d="M101.56,15.53l-.34,0a.34.34,0,0,1-.19-.13l-1-1a5.19,5.19,0,0,1-3.67,1.46,5.49,5.49,0,0,1-1.63-.23,4,4,0,0,1-1.36-.69,3.31,3.31,0,0,1-1-1.16,3.73,3.73,0,0,1-.35-1.66,3.54,3.54,0,0,1,.67-2.17,5.17,5.17,0,0,1,1.91-1.55,12.1,12.1,0,0,1-.91-1.29,3,3,0,0,1-.4-1.55,2.54,2.54,0,0,1,.33-1.3,2.93,2.93,0,0,1,.83-1,3.56,3.56,0,0,1,1.15-.58,4.51,4.51,0,0,1,1.3-.2,4.08,4.08,0,0,1,1.21.19,3.18,3.18,0,0,1,1,.55,2.9,2.9,0,0,1,.71.91,3,3,0,0,1,.26,1.26,3.16,3.16,0,0,1-.63,1.87,5,5,0,0,1-2,1.53L100,11.59a3.89,3.89,0,0,0,.53-1.25,6.56,6.56,0,0,0,.18-1.51.54.54,0,0,1,0-.29s.11,0,.26,0h1.19a.42.42,0,0,1,.25,0,.73.73,0,0,1,0,.29,5.76,5.76,0,0,1-.1,1.07,8.62,8.62,0,0,1-.25,1.12,7.22,7.22,0,0,1-.4,1,5.16,5.16,0,0,1-.51.85l2.06,2.26a.35.35,0,0,1,.12.24c0,.08-.1.12-.29.12ZM95.15,10a2.62,2.62,0,0,0-.57.53,2.25,2.25,0,0,0-.39.64A1.94,1.94,0,0,0,94,12a2.06,2.06,0,0,0,.2.91,1.8,1.8,0,0,0,.52.66,2.41,2.41,0,0,0,.76.4,2.93,2.93,0,0,0,.9.14,3.25,3.25,0,0,0,1.29-.29A3.88,3.88,0,0,0,98.85,13l-3-3.38A4.18,4.18,0,0,0,95.15,10ZM96.9,4.19a1.9,1.9,0,0,0-1.12.34,1.19,1.19,0,0,0-.48,1,2,2,0,0,0,.29.83,8.42,8.42,0,0,0,.78,1.16L97,7.23a3.54,3.54,0,0,0,.58-.41A2.09,2.09,0,0,0,98,6.28a1.51,1.51,0,0,0,.17-.73,1.46,1.46,0,0,0-.33-1A1.17,1.17,0,0,0,96.9,4.19Z"/><path class="cls-8" d="M119,13.06a.29.29,0,0,1,.08.17v1.13a.28.28,0,0,1-.25.25H104a.23.23,0,0,1-.17-.08.34.34,0,0,1-.07-.17V13.23a.28.28,0,0,1,.07-.17A.23.23,0,0,1,104,13h14.81A.29.29,0,0,1,119,13.06Zm-2.14-3.32a.18.18,0,0,1-.14.06H107.3a1.24,1.24,0,0,1-1-.34,1.32,1.32,0,0,1-.31-.93V3.6a1.09,1.09,0,0,1,.29-.88,1.51,1.51,0,0,1,.93-.23h9.34c.16,0,.23.07.23.22V3.9c0,.15-.07.22-.23.22h-8.3c-.2,0-.31.1-.31.29V7.88a.37.37,0,0,0,.06.23.32.32,0,0,0,.25.08h8.38a.58.58,0,0,1,.21,0s.06.08.06.17V9.55A.25.25,0,0,1,116.86,9.74Z"/><path class="cls-8" d="M128.25,12.68a.42.42,0,0,1-.21.11,13.41,13.41,0,0,1-1.32.26q-.78.12-1.65.21c-.57.06-1.14.11-1.7.13s-1.07,0-1.5,0a1.84,1.84,0,0,1-1.05-.33,1.15,1.15,0,0,1-.28-.9V8.25a1.11,1.11,0,0,1,.31-.87,1.31,1.31,0,0,1,.9-.27h3.06a.32.32,0,0,0,.19,0,.32.32,0,0,0,0-.21V4.53a.44.44,0,0,0,0-.19.32.32,0,0,0-.21,0h-4a.21.21,0,0,1-.16-.07.19.19,0,0,1-.08-.15V3a.19.19,0,0,1,.08-.15.21.21,0,0,1,.16-.07h4.91a1.22,1.22,0,0,1,.95.27,1.49,1.49,0,0,1,.21.9V7.56a1.14,1.14,0,0,1-.26.87,1.41,1.41,0,0,1-.93.23h-3c-.17,0-.26.08-.26.24v2.55a.3.3,0,0,0,.07.24.69.69,0,0,0,.25.07c.41,0,.81,0,1.21,0s.8,0,1.21-.08.83-.09,1.26-.16l1.39-.24c.16,0,.25,0,.29.22l.19,1A.18.18,0,0,1,128.25,12.68Zm4-11.11a.2.2,0,0,1,.23-.22H134a.2.2,0,0,1,.22.22V17.26a.2.2,0,0,1-.22.22h-1.48a.19.19,0,0,1-.22-.22v-8H130.8v7.4a.21.21,0,0,1-.23.24h-1.39a.21.21,0,0,1-.24-.24V1.88c0-.15.08-.22.24-.22h1.39c.15,0,.23.07.23.22V7.59h1.46Z"/><path class="cls-8" d="M151,14.54a.26.26,0,0,1-.17.09H136a.2.2,0,0,1-.17-.09.23.23,0,0,1-.07-.17V13.25a.24.24,0,0,1,.07-.18A.21.21,0,0,1,136,13h10.25a36.08,36.08,0,0,0,.42-3.65c.09-1.41.14-2.92.14-4.53a.91.91,0,0,0-.07-.42c0-.08-.16-.12-.35-.12h-8.23A.19.19,0,0,1,138,4.2a.23.23,0,0,1-.07-.16V2.92a.25.25,0,0,1,.07-.17.18.18,0,0,1,.15-.07h9.47c.5,0,.82.13,1,.38a2.11,2.11,0,0,1,.21,1c0,1.52,0,3-.13,4.51a38.82,38.82,0,0,1-.5,4.42h2.64a.28.28,0,0,1,.25.25v1.12A.25.25,0,0,1,151,14.54Z"/><path class="cls-8" d="M166.94,14.65a.29.29,0,0,1-.17.08H152a.21.21,0,0,1-.17-.08.27.27,0,0,1-.07-.17V13.4a.26.26,0,0,1,.07-.18.2.2,0,0,1,.17-.09h6.44V10.6h-3a3.32,3.32,0,0,1-.61,0,.8.8,0,0,1-.38-.19.65.65,0,0,1-.18-.35,2.1,2.1,0,0,1-.05-.55V6.72a2.15,2.15,0,0,1,.05-.55.66.66,0,0,1,.18-.34.79.79,0,0,1,.38-.17,3.44,3.44,0,0,1,.61,0h7.07a.42.42,0,0,0,.21,0,.37.37,0,0,0,.05-.23V4c0-.12,0-.19-.05-.21a.45.45,0,0,0-.21,0h-8a.21.21,0,0,1-.15-.07.28.28,0,0,1-.07-.17V2.41a.26.26,0,0,1,.07-.16.24.24,0,0,1,.15-.06h9a1.5,1.5,0,0,1,1,.22,1.17,1.17,0,0,1,.26.9V6.06a1.14,1.14,0,0,1-.26.89,1.43,1.43,0,0,1-1,.23h-7.09c-.12,0-.18,0-.21,0a.38.38,0,0,0,0,.2V8.76c0,.13,0,.21,0,.23a.32.32,0,0,0,.21,0h8.44a.24.24,0,0,1,.15.06.19.19,0,0,1,.07.14v1.14a.19.19,0,0,1-.08.15.21.21,0,0,1-.14.07h-4.37v2.53h6.41a.24.24,0,0,1,.17.1.29.29,0,0,1,.08.17v1.08A.29.29,0,0,1,166.94,14.65Z"/><path class="cls-8" d="M187.68,11.57a.24.24,0,0,1-.17.08H181.1v5.48a.21.21,0,0,1-.24.24h-1.48a.21.21,0,0,1-.24-.24V11.65H172.7a.19.19,0,0,1-.17-.08.25.25,0,0,1-.07-.17V10.29a.23.23,0,0,1,.07-.17.19.19,0,0,1,.17-.08h14.81a.28.28,0,0,1,.25.25V11.4A.27.27,0,0,1,187.68,11.57Zm-13-3a.36.36,0,0,1-.27,0,.3.3,0,0,1-.15-.17l-.39-1a.21.21,0,0,1,0-.22.42.42,0,0,1,.17-.16c.79-.19,1.57-.41,2.33-.65s1.46-.5,2.12-.78a17.42,17.42,0,0,0,1.78-.87,8.17,8.17,0,0,0,1.32-.91c.12-.1.19-.18.2-.24s-.08-.1-.27-.1h-6.22a.19.19,0,0,1-.22-.22V2c0-.13.07-.2.22-.2h8a2.3,2.3,0,0,1,1.06.21.64.64,0,0,1,.4.56,1.3,1.3,0,0,1-.16.57,5.26,5.26,0,0,1-.3.48,8.36,8.36,0,0,1-2.14,1.89l1,.35,1,.34c.36.12.71.22,1.06.31s.68.16,1,.22a.3.3,0,0,1,.18.13.23.23,0,0,1,0,.23l-.41,1a.31.31,0,0,1-.37.22c-.34-.07-.72-.17-1.15-.29s-.87-.27-1.32-.43l-1.4-.54c-.47-.19-.92-.38-1.35-.58a23,23,0,0,1-2.85,1.18A27.05,27.05,0,0,1,174.65,8.54Z"/><path class="cls-8" d="M197,10.17a1.4,1.4,0,0,1-1,.28h-4.91a1.51,1.51,0,0,1-1-.26,1.26,1.26,0,0,1-.27-.93V2.32a.18.18,0,0,1,.06-.14.25.25,0,0,1,.16-.06h1.48a.27.27,0,0,1,.16.06.16.16,0,0,1,.07.14V5h3.61V2.3a.21.21,0,0,1,.07-.15.21.21,0,0,1,.15-.07h1.5a.24.24,0,0,1,.22.22V3.94h2.89V1.57a.2.2,0,0,1,.22-.22h1.51a.2.2,0,0,1,.22.22V12.71a.19.19,0,0,1-.22.22h-1.51a.19.19,0,0,1-.22-.22V8.9H197.3v.41A1.17,1.17,0,0,1,197,10.17Zm-1.66-3.62h-3.61v2c0,.19.11.29.31.29h3c.21,0,.31-.1.31-.29Zm7.2,10.6a.33.33,0,0,1-.16.05h-8.84a1.49,1.49,0,0,1-1-.28,1.29,1.29,0,0,1-.27-.93v-3.5a.25.25,0,0,1,.08-.17.26.26,0,0,1,.17-.09H194a.23.23,0,0,1,.19.09.25.25,0,0,1,.08.17v2.8c0,.11,0,.19.07.22s.12.05.24.05h7.87a.28.28,0,0,1,.16.07.21.21,0,0,1,.07.15V17A.19.19,0,0,1,202.56,17.15Zm-2.37-9.78V5.47H197.3v1.9Z"/><path class="cls-8" d="M204.42,9.36V8.27a.24.24,0,0,1,.07-.18.21.21,0,0,1,.17-.07h14.8a.21.21,0,0,1,.17.08.24.24,0,0,1,.09.17V9.36a.21.21,0,0,1-.09.16.25.25,0,0,1-.17.08h-14.8A.21.21,0,0,1,204.42,9.36Zm13-5.24a2.09,2.09,0,0,1-.34,1.15,3,3,0,0,1-1,.92,6.44,6.44,0,0,1-1.68.6,10.37,10.37,0,0,1-2.28.22,10.47,10.47,0,0,1-2.29-.22,6.36,6.36,0,0,1-1.67-.6,2.82,2.82,0,0,1-1-.92,2.06,2.06,0,0,1,0-2.3,2.78,2.78,0,0,1,1-.94,6,6,0,0,1,1.67-.62,11.47,11.47,0,0,1,4.57,0,6.08,6.08,0,0,1,1.68.62,3,3,0,0,1,1,.94A2.09,2.09,0,0,1,217.42,4.12Zm.18,13.08a.19.19,0,0,1-.14.08H208a1.28,1.28,0,0,1-.9-.24,1.07,1.07,0,0,1-.24-.78v-2a1.12,1.12,0,0,1,.23-.78,1.26,1.26,0,0,1,.9-.24h7.2a.49.49,0,0,0,.17,0s0-.09,0-.2v-.51a.38.38,0,0,0,0-.23s-.08,0-.18,0H207a.25.25,0,0,1-.16-.06.17.17,0,0,1-.08-.15V10.91a.19.19,0,0,1,.08-.16.25.25,0,0,1,.16-.06h9.09a1.43,1.43,0,0,1,.93.21,1.06,1.06,0,0,1,.23.79v2a1.09,1.09,0,0,1-.23.8,1.51,1.51,0,0,1-.93.2H209c-.09,0-.15,0-.17,0a.4.4,0,0,0,0,.2v.58c0,.1,0,.16,0,.17s.08,0,.19,0h8.46a.26.26,0,0,1,.24.24V17A.23.23,0,0,1,217.6,17.2ZM212.09,2.66a8,8,0,0,0-1.36.11,4.67,4.67,0,0,0-1.07.32,1.94,1.94,0,0,0-.69.47.84.84,0,0,0-.25.58.78.78,0,0,0,.25.56,2.06,2.06,0,0,0,.69.45,4.71,4.71,0,0,0,1.07.3,8,8,0,0,0,1.36.1,8.23,8.23,0,0,0,1.35-.1,4.71,4.71,0,0,0,1.07-.3,2.08,2.08,0,0,0,.7-.46.81.81,0,0,0,.24-.57.85.85,0,0,0-.24-.57,2.24,2.24,0,0,0-.7-.46,4.67,4.67,0,0,0-1.07-.32A8.2,8.2,0,0,0,212.09,2.66Z"/><path class="cls-8" d="M112.62,46.38a.21.21,0,0,1-.17.08H106v1.31h3.13a1.42,1.42,0,0,1,.92.21,1.08,1.08,0,0,1,.23.79v2a1.09,1.09,0,0,1-.23.8,1.5,1.5,0,0,1-.92.2H102a.27.27,0,0,0-.17,0,.34.34,0,0,0,0,.18v.55c0,.1,0,.16,0,.17s.08,0,.19,0h8.44a.27.27,0,0,1,.17.06.2.2,0,0,1,.09.18V54a.21.21,0,0,1-.09.16.19.19,0,0,1-.15.08H101a1.28,1.28,0,0,1-.9-.24,1.07,1.07,0,0,1-.24-.78V51.32a1.12,1.12,0,0,1,.23-.78,1.26,1.26,0,0,1,.9-.24h7.2a.49.49,0,0,0,.17,0s0-.08,0-.2v-.47c0-.13,0-.21,0-.23s-.08-.05-.18-.05h-8.13a.25.25,0,0,1-.16-.06.17.17,0,0,1-.08-.14V48a.19.19,0,0,1,.08-.15.21.21,0,0,1,.16-.07h4V46.46H97.65a.21.21,0,0,1-.24-.24v-1q0-.27.24-.27h14.8a.25.25,0,0,1,.17.08.26.26,0,0,1,.09.19v1A.21.21,0,0,1,112.62,46.38Zm-2.28-2.75a.2.2,0,0,1-.15.06H101.1a1.19,1.19,0,0,1-.95-.31,1.26,1.26,0,0,1-.28-.9v-2.9a1.09,1.09,0,0,1,.29-.88,1.54,1.54,0,0,1,.94-.23H110c.16,0,.24.07.24.22v1.12a.21.21,0,0,1-.24.24h-7.87c-.22,0-.32.1-.32.29v1.48a.33.33,0,0,0,.06.21.35.35,0,0,0,.26.08h8a.55.55,0,0,1,.21,0,.2.2,0,0,1,.07.17v1.13A.25.25,0,0,1,110.34,43.63Z"/><path class="cls-8" d="M123,50a.41.41,0,0,1-.22.13,13.36,13.36,0,0,1-1.59.25c-.6.07-1.22.13-1.85.17s-1.24.08-1.84.09H116a1.59,1.59,0,0,1-1-.31,1.26,1.26,0,0,1-.28-.92V45.27a1.13,1.13,0,0,1,.3-.88,1.3,1.3,0,0,1,.89-.28h3.4a.3.3,0,0,0,.19,0,.32.32,0,0,0,0-.21V41.43a.44.44,0,0,0,0-.19.3.3,0,0,0-.21-.05H115a.21.21,0,0,1-.16-.07.19.19,0,0,1-.08-.15V39.8a.19.19,0,0,1,.08-.15.25.25,0,0,1,.16-.06h5.3a1.25,1.25,0,0,1,1,.27,1.49,1.49,0,0,1,.22.89v3.82a1.17,1.17,0,0,1-.28.89,1.4,1.4,0,0,1-.93.24h-3.38a.21.21,0,0,0-.24.23v2.74a.26.26,0,0,0,.3.29c.86,0,1.77,0,2.71-.09s1.94-.19,3-.35a.21.21,0,0,1,.19.06.42.42,0,0,1,.11.21l.17,1A.2.2,0,0,1,123,50ZM127,54.48h-1.51a.19.19,0,0,1-.22-.22V45.8h-2.77a.25.25,0,0,1-.16-.06.21.21,0,0,1-.07-.15v-1.2a.26.26,0,0,1,.07-.16.25.25,0,0,1,.16-.06h2.77v-5.6a.2.2,0,0,1,.22-.22H127a.2.2,0,0,1,.22.22V54.26A.19.19,0,0,1,127,54.48Z"/><path class="cls-8" d="M144.58,51.65a.25.25,0,0,1-.17.08H129.6a.21.21,0,0,1-.16-.08.27.27,0,0,1-.07-.17V50.37a.28.28,0,0,1,.07-.19.21.21,0,0,1,.16-.08H136V47h-3.11a1.51,1.51,0,0,1-1-.26,1.28,1.28,0,0,1-.27-.95V39.29a.18.18,0,0,1,.07-.15.2.2,0,0,1,.15-.06h1.5a.27.27,0,0,1,.16.06.18.18,0,0,1,.07.15v2.39h6.84V39.27a.24.24,0,0,1,.22-.22h1.51a.24.24,0,0,1,.22.22v6.58a1.2,1.2,0,0,1-.27.85,1.37,1.37,0,0,1-1,.29H138V50.1h6.42a.22.22,0,0,1,.17.09.26.26,0,0,1,.09.18v1.11A.26.26,0,0,1,144.58,51.65Zm-4.16-8.39h-6.84V45.1c0,.19.11.29.31.29h6.22c.21,0,.31-.1.31-.29Z"/><path class="cls-8" d="M146.94,50.63a.34.34,0,0,1-.54,0l-.76-.75a.31.31,0,0,1,0-.51,8.4,8.4,0,0,0,1.53-1.91,10.25,10.25,0,0,0,1-2.26,13.91,13.91,0,0,0,.53-2.63,26.08,26.08,0,0,0,.17-3c0-.17.07-.25.22-.25l1.41.05a.26.26,0,0,1,.25.25c0,.85,0,1.64-.07,2.36a15.57,15.57,0,0,1-.27,2,9.44,9.44,0,0,0,.51,1.46,11.37,11.37,0,0,0,.77,1.42,12.14,12.14,0,0,0,.88,1.23,6.57,6.57,0,0,0,.89.92c.17.15.18.3,0,.44l-.78.8a.31.31,0,0,1-.51,0,5.26,5.26,0,0,1-.73-.65,10.29,10.29,0,0,1-.71-.85,9.64,9.64,0,0,1-.65-1,8.33,8.33,0,0,1-.5-1,10.54,10.54,0,0,1-1.12,2A13.72,13.72,0,0,1,146.94,50.63Zm9.3,3.31h-1.39c-.17,0-.25-.08-.25-.24V45.3h-2.55a.27.27,0,0,1-.17-.06.23.23,0,0,1-.07-.17V43.91a.16.16,0,0,1,.07-.14.27.27,0,0,1,.17-.06h2.55V38.84c0-.14.08-.22.25-.22h1.39a.2.2,0,0,1,.23.22V53.7A.21.21,0,0,1,156.24,53.94Zm3.3.58h-1.48a.2.2,0,0,1-.22-.22V38.57c0-.14.08-.22.24-.22h1.46a.2.2,0,0,1,.22.22V54.3A.2.2,0,0,1,159.54,54.52Z"/><path class="cls-8" d="M176.54,51.65a.27.27,0,0,1-.17.08H161.56a.25.25,0,0,1-.17-.08.32.32,0,0,1-.06-.17V50.37c0-.18.08-.27.23-.27H165V47.45c0-.16.09-.24.26-.24h1.46c.17,0,.26.08.26.24V50.1H171V47.45c0-.16.08-.24.25-.24h1.47a.27.27,0,0,1,.18.07.21.21,0,0,1,.07.17V50.1h3.4a.27.27,0,0,1,.17.08.26.26,0,0,1,.09.19v1.11A.26.26,0,0,1,176.54,51.65Zm-7.58-5a9.15,9.15,0,0,1-2.13-.24,5.9,5.9,0,0,1-1.76-.71,3.64,3.64,0,0,1-1.21-1.16,2.87,2.87,0,0,1-.44-1.6,2.8,2.8,0,0,1,.44-1.57,3.77,3.77,0,0,1,1.21-1.17,6.18,6.18,0,0,1,1.76-.71,9.15,9.15,0,0,1,2.13-.24,9.26,9.26,0,0,1,2.15.24,6.13,6.13,0,0,1,1.77.71,4,4,0,0,1,1.2,1.17,2.88,2.88,0,0,1,.44,1.57,3,3,0,0,1-.44,1.6,3.81,3.81,0,0,1-1.2,1.16,5.86,5.86,0,0,1-1.77.71A9.26,9.26,0,0,1,169,46.65Zm0-5.78a6.28,6.28,0,0,0-1.32.14,4.42,4.42,0,0,0-1.13.41,2.44,2.44,0,0,0-.79.65,1.49,1.49,0,0,0,0,1.79,2.32,2.32,0,0,0,.79.65,4.07,4.07,0,0,0,1.13.41,5.8,5.8,0,0,0,2.62,0,4.19,4.19,0,0,0,1.13-.41,2.32,2.32,0,0,0,.79-.65,1.49,1.49,0,0,0,0-1.79,2.44,2.44,0,0,0-.79-.65,4.56,4.56,0,0,0-1.13-.41A6.31,6.31,0,0,0,169,40.87Z"/><path class="cls-8" d="M179.67,53.77a1.3,1.3,0,0,1-1.31-1.31,1.26,1.26,0,0,1,.38-.92,1.29,1.29,0,0,1,.93-.37A1.26,1.26,0,0,1,181,52.46a1.29,1.29,0,0,1-.37.93A1.26,1.26,0,0,1,179.67,53.77Z"/></g><g id="Layer_4" data-name="Layer 4"><rect class="cls-9" width="634" height="768"/></g></g></svg>